<svg xmlns="http://www.w3.org/2000/svg" xmlns:xlink="http://www.w3.org/1999/xlink" width="1066.667" height="1066.667" viewBox="0 0 800 800" preserveAspectRatio="xMidYMid meet" xmlns:v="https://vecta.io/nano"><path d="M325.3 45.3c-1.9 2.5-4.3 2.5-4.3.1 0-.8-.5-1.4-1.1-1.4-.5 0-.7.5-.3 1.1.4.8.1.8-1.3.1-1.6-.9-2.5-.5-5.1 1.9-1.7 1.6-3.5 2.9-4.1 2.9s-3.1 2-5.7 4.5c-2.5 2.5-4.1 4.5-3.5 4.5 1.7 0 1.3 1.4-1 3.9-2.3 2.4-7.4 13.7-13.3 29.6l-5.1 13c-.7 1.6-1.9 5-2.6 7.5s-2.3 6.2-3.6 8.2c-1.2 2-2.5 4.9-2.9 6.5-.4 1.5-1.8 4-3.2 5.5-1.4 1.6-2.3 2.8-1.9 2.8.3 0-1 2.4-2.9 5.2-1.9 2.9-3.4 5.8-3.4 6.5 0 1.2-3 8.6-5.1 12.5-.5 1-.9 2.2-.9 2.8 0 .5-.9 1.9-2.1 3.1-1.3 1.3-1.8 2.7-1.4 4 .4 1.1.2 1.9-.4 1.9s-1.1.7-1.1 1.5-.4 1.5-.8 1.5c-1.2 0-3.2 4.6-3.2 7.1 0 1.1-1.1 3.7-2.5 5.9-1.4 2.3-2.8 5.5-3.2 7.3-.3 1.8-1.2 3.9-1.9 4.7s-1.3 1.9-1.3 2.5c0 1.8-4.4 14.9-7.2 21-9.2 20.7-14.6 38.4-15.5 50.9-.2 3.2-1.5 9-2.9 12.8s-2.8 9.4-3.1 12.4c-.5 3.9-2.2 8.1-6 15-2.9 5.2-5.9 11.6-6.8 14.2-2.9 8.8-5.6 19-5.6 21.1 0 3.2-2.7 12.5-4.8 16.7-1.1 2.2-2.3 5.5-2.6 7.4s-1.2 5.5-2.1 8-1.7 5.8-1.9 7.5c-.1 1.6-.9 5.5-1.8 8.5s-2.2 8.2-2.8 11.5c-1.9 9.4-2.2 9.8-8.8 11.8-3.3 1.1-6.8 2.7-7.8 3.8-.9 1-2.3 1.9-2.9 1.9-.7 0-1.8.7-2.6 1.6-.7.8-3 2.5-5.2 3.6-5.2 2.6-11.9 8.8-11.3 10.5.3.7-.4 1.9-1.5 2.7-2 1.3-2 1.5-.2 2.5 1.7 1 1.7 1.2 0 2.2-.9.5-1.5 1.4-1.2 2 .4.5-.3.9-1.5.9-1.1 0-2.3.7-2.7 1.5-.8 2.3.4 3 2.4 1.3 2.2-1.9 5.6-3.2 4.8-1.8-.9 1.5-6.4 4.2-7.4 3.6-1.2-.8-6.1.8-6.1 1.9 0 1.3 2.2 1.4 3.9.1 1.1-.8 1.3-.8.8.1-.8 1.3-6.7 4.5-6.6 3.5.4-2.9-.5-3-3.2-.3-1.7 1.7-2.7 3.5-2.4 4.1.4.6 1.1.8 1.6.5 1.6-1.1 1 .3-1.5 2.9-2.3 2.6-4.3 3.6-3.1 1.6.3-.5 0-.8-.7-.5s-1.3 1.6-1.3 2.9c0 1.4.5 2.2 1.2 1.9 1.2-.5 1.1 2.6-.2 4.6-.5 1 5 2.7 7.2 2.2 1.9-.3 1.6 1-.9 3.6-1.8 1.9-1.9 2.5-.8 3.6 1 1 1.2.9.7-.5-.4-1.1 0-1.9 1.1-2.2.9-.3 2.9-1.7 4.4-3.1 2.3-2.1 6.8-4.5 8.8-4.7.3 0 1.7-.9 3.2-1.9 1.4-1 3-1.9 3.5-1.9 1.5 0 6.3-4.7 6.3-6.2 0-1.7 5.1-3.2 6-1.8.3.5 1.2.3 2.1-.3 1.3-1 1.4-1.4.3-2.5-.8-.7-1.5-.8-1.9-.2-.3.6-.1 1 .6 1s1 .3.6.6c-.3.3-1.1.3-1.7-.1-.8-.5-.8-1.1.1-2.1 1.5-1.8 2.4-1.8 4.3.2 1.7 1.7 2.1.8.7-1.6-1.3-2-.2-3.4 1.5-1.9 1.2 1 1.3.9.8-.5-.4-1.1.1-1.9 1.7-2.5 1.3-.5 2.5-.7 2.7-.6s-.6 2-1.7 4.1c-1.1 2.2-2.1 5.5-2.2 7.4-.2 1.9-.6 3.9-.9 4.5-.4.5-.7 1.7-.8 2.5 0 .8-1 4-2.2 7s-2.4 6.5-2.7 7.8c-.3 1.2-.9 2.5-1.4 2.8s-.9 1.4-.9 2.5.4 1.7 1 1.4c1.5-.9 1.2.1-1.5 5.5-1.4 2.7-2.5 5.6-2.5 6.5s-1.2 2.8-2.7 4.2c-1.8 1.7-2.4 2.7-1.6 3 1.4.5.2 3.5-2.4 6.1-.7.7-1.4 1.9-1.4 2.5-.1.7-.3 2.1-.4 3.2s-2.2 5.8-4.5 10.5c-4 8-5.4 11.1-7.8 17-.5 1.4-2.2 5.3-3.6 8.7-1.5 3.4-3.3 9.5-4.1 13.5-2.1 10.6-7 29-8.3 31.5-.7 1.2-1.2 4-1.2 6.2s-1.1 6.9-2.4 10.4c-1.9 5.1-2.4 8-2.2 14.3.2 4.4-.1 8.9-.5 10.2-.5 1.2-.5 2.2 0 2.2s1.7-2.2 2.6-5c.9-2.7 1.8-5 2-5 .7 0-.6 9.5-1.4 10.3-1 1-.2 4.7.9 4.7.5 0 1.5.3 2.3.6.9.3 2.2-.8 3.6-3.1 1.2-2.2 2.6-3.3 3.2-2.9.8.4.4 1.3-1.2 2.5-1.5 1.1-1.9 1.9-1 1.9 1.2 0 1.1.3-.1 1.7-1.7 2-2.4 9.8-.8 8.8.6-.3 1 .1 1 1s-.9 1.9-1.9 2.2c-1.1.3-2.2 1.5-2.5 2.6-.9 3.3-.7 8.7.2 8.7 1.5 0 4.2-3.6 4.2-5.6 0-3.5 1.2-6.4 2.6-6.4.8 0 1.4-.8 1.4-1.8 0-1.9 2.3-8.8 3.2-9.7 1-1-2 13.3-3.3 15.7-.7 1.3-1.2 3.5-1.1 5.1.2 1.7-.4 3-1.3 3.3-.8.3-1.2 1-.9 1.5.2.5-.2 2.1-1 3.6-1.6 3-1.9 2.6-1.7-2.2.1-2.6-.1-2.7-.8-1a32.17 32.17 0 0 0-1.7 5c-.4 1.7-.9 2.4-1.2 1.6-.2-.8-1 .2-1.8 2.4-.7 2-1 4.3-.8 4.9.7 1.9 3.9 1.6 5.2-.5.7-1.1.8-1.9.2-1.9-.5 0-1-.7-1-1.5 0-1.6 1.6-2 2.4-.6.8 1.2-1.2 11.3-2.4 12.5-.6.6-1.3-.1-2-1.8-1.7-4.5-3.5-2.6-3.6 3.7 0 3.1-.6 6.2-1.2 7-.7.7-1.1 4.9-1.1 9.8 0 4.7-.2 9.9-.6 11.5l-.6 2.9 1.6-3c1.5-3 1.5-2.9.9 2.7-.3 3.1-.1 5.9.4 6.2 1.1.7 2.2-4 2.2-9.3 0-2 .6-5.6 1.4-8.1.7-2.5 1.4-6.7 1.4-9.4.1-2.7.4-5.1.7-5.4.5-.5 1 7 .6 9.8l-1.2 9c-1.4 10.5-1.9 20.1-.9 19.5.5-.3 1.1-1.9 1.5-3.6s1.3-3.3 2.1-3.6 1.4-1.9 1.4-3.7c0-1.7.5-3.8 1-4.6.8-1.2 1-1.2 1 .5 0 1.1-.5 3.7-1.1 5.8-.6 2.2-.7 4.6-.3 5.5.4 1 .8 1.9.8 2.2.1.3.5 1.1.9 1.8.5.7.5 2.1.2 3.2-.9 2.7.8 2.5 2-.2 1.3-2.9 3.5-3.5 3.5-.9 0 3.9 2 2.6 7.8-4.7 3.4-4.3 4.3-5 4.9-3.7.3 1 .1 3.2-.5 4.9-1.6 4.3-1.5 6.2.4 10.2 1.7 3.6 2.7 3.6 4.5.2.7-1.2.7-1.8.1-1.4-1.7 1-2-1.7-.6-6.4.7-2.5 1.2-5.9 1.2-7.5-.1-10.5 7.7-41.9 9-36.2.2 1-.4 2.9-1.2 4.2-.9 1.4-1.4 2.5-1 2.5s.1.7-.6 1.5c-1 1.2-1 1.9-.2 2.7s1.3.3 1.7-1.8c.4-1.6 1-3.8 1.5-4.9.9-1.9 2.3-7.3 5.6-21 .8-3.3 1.9-6.8 2.5-7.7.5-1 .9-2.9.9-4.3 0-1.5.4-2.4.8-2.1.5.3.9 0 .9-.7s.3-2.3.7-3.7c.7-2.3.6-2.3-1.3.4l-2 3-1.1-2.9c-1-2.7-.9-4.7.6-9.2.6-1.6.5-1.6-1 .2-1.2 1.4-1.6 1.5-1.3.4.3-.8 1.3-4.4 2.2-8 2-7.1 4.2-10.7 3-4.9-.6 3.3-.6 3.4.9 1.4.8-1.1 1.8-3.3 2.1-4.7.4-1.5 1.1-2.5 1.5-2.2s1-.5 1.4-1.8c1-3.6.7-4.2-1-2.1-1.5 1.9-1.6 1.9-.9-.1 1.3-3.7 1.6-6.7.7-6.1-.5.3-1.2 2-1.6 3.7-.3 1.8-.9 2.9-1.2 2.6-.4-.3-.3-2.2 0-4 .4-2.4 1.3-3.7 2.7-4 1.3-.4 1.8-1 1.4-1.7-.6-.9-1-.9-1.6.1-1.5 2.5-1.7.4-.4-4.1.7-2.5 1.8-7.4 2.4-11 1.2-7.5 1.3-7.8 2.9-10.7.7-1.2 1-2.8.7-3.5s.1-2.2.9-3.3c1.5-2 1.5-2 1 0-.3 1.1-.1 4.5.4 7.5.6 3 1 4.3 1.1 2.7 0-1.5.5-3.5 1-4.5.5-.9 1.7-5.3 2.6-9.7 1-4.4 2.3-8.7 3-9.5 1.3-1.4 2.1-3.9 3-8.6.6-3 .6-3 1.4-1 .7 1.9.8 1.9 1.3-.2.4-1.6.2-2.2-.9-2.2s-1.3-.5-.7-1.8c.4-.9.8-2.7.8-3.9.1-1.2.6-2.1 1.1-2 .6.1.9-.8.7-2.1s.3-2.5 1.2-2.8c1-.4 1.6-1.8 1.6-4 0-1.8.6-4.8 1.4-6.6 1.7-3.9 6.4-23.9 6.8-28.6.1-1.9.6-3.6 1-3.8.7-.5 2.4-9.3 1.9-10.8-.1-.5.2-1.2.6-1.5s1.9-4.9 3.1-10.1l2.9-11c.4-.8.7-2 .8-2.5 0-.6.7-2.4 1.5-4 .7-1.7 1.4-3.5 1.4-4 .4-3 2-8.2 2.8-9.2.5-.7.7-1.6.4-2.2-.3-.5 0-2.1.8-3.6.9-1.7 1.6-2.2 1.9-1.3.4.9.6.8.6-.4.1-.9-.4-1.8-1-2-.7-.2-.7-1.2.2-3.1 1.3-2.9 2.5-3.4 3.2-1.5.3.7.4.3.4-1-.1-1.2-.4-2.2-.8-2.2-.3 0-.4-1.2-.1-2.6.3-1.5.8-2.1 1.2-1.5.4.7 1.1.2 1.8-1.4.9-2 .9-2.5-.2-2.5-1 0-.9-1.1.5-5.3.9-2.8 1.9-6.1 2.1-7.2.1-1.1 1.1-2.8 2-3.9.9-1 1.4-2.4 1.1-3.2s.1-1.4.9-1.4c.7 0 1.9-.9 2.6-2s2.3-2 3.6-2 2.6-.7 3-1.5c.3-.9 1.2-1.2 2.2-.8 1.3.5 1.5.3.9-.7s-.3-1.2 1.2-.8c1.3.3 2.4-.1 3.2-1.4.6-1 1.6-1.6 2.1-1.3s1.3-.3 1.9-1.2c.6-1 1.1-1.2 1.1-.6 0 .7.8 1.3 1.8 1.2 1 0 1.2-.3.5-.6-1.8-.7-1.6-2.3.2-2.3.9 0 1.8-.7 2.1-1.5.4-.8 1-1.2 1.5-.9.6.3 2.1-.2 3.5-1.1s4.2-1.8 6.2-2c4.3-.3 6.3-1.2 24-10.5 7.4-3.9 13.8-6.8 14.3-6.4.5.3.9-.1.9-.8 0-.9.3-.9 1 .2 1.2 1.9 1.3 6.7.1 7.4-2 1.2-.3 16.8 2 18.2.5.3.6-.2.3-1-1-2.5 2-1.9 4.6.9 1.3 1.4 2 2.5 1.6 2.5s0 .7.9 1.6 1.3 1.9 1 2.2c-.3.4-1 0-1.4-.7-.6-.8-1.1-.9-1.5-.3-.3.6.1 1.8 1 2.6.8.9 1.1 1.6.7 1.6-.5 0-1.9-1.1-3.1-2.5-1.3-1.4-2.6-2.4-3.1-2.1-1.2.8-1.1 6.5 0 7.2.6.3 1.4 1.7 1.9 3 1 2.5 2.9 3.3 3.1 1.1.1-.6.2-1.9.3-2.7.2-2.8 3.1-2.1 4.3 1.1.8 2 1.7 3 2.6 2.6.7-.3 2.3.6 3.6 1.9s2.7 2.4 3.2 2.4.9.7.9 1.5-.9 1.5-2 1.5c-1.2 0-2-.7-2-1.6 0-2-2.4-1.3-2.8.9-.2 1.2.3 1.7 1.7 1.7 1.2 0 2.1.4 2.1 1 0 .5 1 1 2.3 1 1.7 0 2.7 1 4 4 .9 2.2 1.7 4.5 1.7 5.1s1.4.9 3.3.7c2.7-.3 3.7.3 6.4 3.7 1.8 2.2 3.8 4 4.5 4.1.7 0 2.1.2 3.2.2 1.5.2 1.6.5.6 1.7-.7.8-1.8 1.5-2.4 1.4-3.1-.4-3.4.2-3.1 4.8.6 7.5 0 8.4-4.9 8.2-2.9-.2-4.3-.7-4.3-1.6 0-1.8 5.4-4.6 7-3.7.7.4.1-.4-1.3-1.8-1.7-1.7-4.3-3-7.6-3.6-4.8-.8-5.1-.7-4.6 1 .3 1.4 1.1 1.8 2.4 1.5 2.7-.7 5.9 2.5 4.2 4.1-.7.7-1.9 1.2-2.6 1.2s-2.2.8-3.3 1.6c-2 1.5-2 1.5-.1 3 1.1.8 2.5 1.4 3.2 1.4s1.2 1 1.2 2.2c-.4 6.4.2 8.9 2.5 9.9 2.1 1 2.4 1.7 2.5 8.7.1 7.6.1 7.6-1.3 4.3-.8-1.8-1.2-4.3-.9-5.6s.1-2.6-.5-2.9c-.5-.4-.7-1.4-.4-2.3.4-1 .2-1.4-.4-1-1 .6-2.1-1.1-4.3-7.1-1.3-3.4-3.6-5.2-5.7-4.5-1.3.5-1.2.8 2 6.9 2.6 5 3.1 10.7 1.3 14.2-1.9 3.7-2 7.5-.4 10.5 1.8 3.2 2.1 6.7.6 6.7-.9 0-.9.3 0 1.2.7.7.8 1.7.2 2.8-.7 1.2-.4 2.3 1 3.8 1.9 2 2.3 6.4.8 8.8-.4.5-.3 1.6.2 2.4s.7 2.5.4 3.7c-.4 1.3-.3 3.1.1 4 .4 1 .8 4.7 1 8.3.1 3.6.5 7.5.9 8.7.4 1.4.3 2.3-.3 2.3-1 0-3.6 6.8-2.8 7.6.2.2 1.2.1 2.1-.2 1.3-.5 1.7-1.5 1.4-3.5-.6-3.9 2.1-3.9 2.8 0 .4 1.7 1.2 3.2 2 3.5.7.3 1.1 1.2.8 2s-.1 1.7.5 2.1c1.3.7 1.5 5.5.2 5.5-.5 0-1.5-1-2.4-2.2l-1.5-2.3-2.5 2.4c-2 1.8-2.4 2.8-1.7 4.5.5 1.1 1.1 3.4 1.5 5 .4 2 .9 2.6 1.4 1.8.6-1 1-1 1.9 0 1.2 1.5 3.5 6.7 3.7 8.3 0 .5.4 1.6.8 2.2.5.7.5 1.9 0 2.5-.4.7-.8 4.1-.8 7.5 0 5.3.3 6.3 1.8 6.3.9 0 1.7-.7 1.7-1.6s.7-3 1.4-4.7c1.9-4.1 4.6-16.9 5.7-27.2 2.1-18.3 4-29.5 6.3-35.9.8-2.2 1.8-6.8 2.1-10.1.4-3.3 1.4-7.3 2.2-9 1-1.7 1.7-6.3 1.8-11.5.3-8.8.8-15 2.5-31 4.7-45.8 4.6-53.1-.6-76.1-1.5-6.4-2.4-13.9-2.5-19 0-4.6-.4-10.7-.9-13.4-.5-2.8-1.3-7.1-1.6-9.7-.7-4.6-.6-4.7 2.8-6.1 2-.8 3.9-2 4.2-2.6 1.1-1.7-.3-1.3-4.2 1.1-2.2 1.3-3.3 1.6-3 .8.2-.7 1.9-2.1 3.6-3 4.6-2.5 7.7-6.7 6.3-8.4-.7-.8-.8-1.6-.3-1.8 2.2-.8 2.3-4.7.3-6.7-1.2-1.2-2.1-2.5-2.1-3.1 0-.5-.8-1.4-1.9-1.9-1.6-.9-1.7-1.7-1-6 .4-2.7 1.3-6 2-7.3s1.3-5.8 1.4-10.3c0-4.4.6-11.4 1.2-15.5.7-4.1 1.7-12.9 2.3-19.5.7-6.6 1.6-13 2.1-14.3s1.1-7.3 1.4-13.5c.7-14.6 1.2-17.7 3-19.7s1.9-3.1.2-2.5c-1.3.6-4.1-7-3.2-8.6.4-.5-.1-.9-.9-.9-.9 0-1.6.5-1.6 1.1 0 .5-.4.7-1 .4-1.3-.8-1.3-5.5 0-7.5.8-1.3 1.1-1.2 2.4.5s1.5 1.8 1.6.3c0-.9-.5-2-1.1-2.3-.7-.5-.5-1.5.5-3.1.9-1.3 1.6-3 1.6-3.8 0-1.7 3.5-4 4.8-3.2.4.3.9-2.4 1-6 .2-3.9-.1-6.4-.8-6.4-.5 0-1 1.5-1 3.2 0 4.6-1.4 6.6-3.4 4.9-1.4-1.2-1.4-1.7 0-4.9.8-2.1 1.9-3.9 2.5-4 .5-.2.7-.8.3-1.3-.3-.5 0-.9.5-.9.6 0 1.1.5 1.1 1.2 0 2.5 1.8-.8 2.3-4.4.4-2.6.1-3.8-.8-4.2-4.2-1.6-1.8-15.1 2.9-15.8 1.3-.2 1.9-.9 1.7-1.8-1.3-4.6-2.1-17.3-2-30.5.1-8.5-.4-16.5-1-18.5-.6-1.9-1.1-4.7-1.1-6.2 0-3.8-6.3-8.3-13.8-9.9-3.1-.7-7-2.3-8.7-3.5-1.6-1.2-5.1-2.8-7.8-3.4-2.6-.7-4.7-1.8-4.6-2.4.4-3.5-.3-8.5-1.4-10-1.2-1.6-1.4-1.1-1.3 3.9.1 4-.3 6-1.2 6.3-1.1.3-1.3-1.2-.9-7.2.2-4.2.1-7.9-.4-8.2-.5-.2-.4-1.5.1-2.9.7-1.7.5-2.5-.6-2.9-.8-.3-1.2-1-.9-1.6.3-.5.2-1-.3-1-.6 0-1.2.7-1.6 1.5-1 2.7-2.6 1.6-2.6-1.8-.1-4.7-1.7-10.9-3.1-11.7-.6-.4-2.5-.4-4 0-2.8.8-3.4.3-3-2.3.2-1.3-.7-.7-2.6 1.6zm59.2 106.4c-.5 2.1-.8 2.3-2.1 1.2-1-.8-1.2-1.5-.4-2.3.5-.5 1-1.9 1-3.1.1-1.9.1-1.9 1.1-.2.6 1 .8 3 .4 4.4zM298.3 187c.3 1.1.2 1.8-.2 1.5-.5-.2-1.3.8-2 2.3-1 2.4-1 2.5.3.9s1.4-1.6 1.9.5c.6 2.2.4 4.1-1.3 10.8-.5 1.9-1.4 6.2-2.1 9.5-1.5 7.2-6.3 18.5-7.9 18.5-.7 0-1 1.3-.9 3.3.2 1.8 0 3.7-.3 4.2-.3.6-1.3 4.1-2.3 8-.9 3.8-2.3 8.3-3 10-.7 1.6-2.3 6.1-3.5 10-3.1 9.6-5.1 14.5-6.2 14.5-1.2 0-1-1.4.4-2.8.9-.9.9-1.2.1-1.2-1.7 0-2.7 4.1-1.3 5 1 .6.8 2.4-.9 8.2-1.3 4-2.6 8.2-3.1 9.3-2.6 6.6-4 11.4-4 14.2 0 3.4-2.3 6.2-3.5 4.2-.4-.6-.2-1.4.4-1.8.7-.5 1.3-6 1.5-15.7.5-18.5.4-17.4 1.5-17.4.5 0 .5 1.5.1 3.4-.8 3.5-.5 4.6 1.2 4.6.5 0 .6-.5.2-1.2s-.3-.8.4-.4c.6.4.8 1.4.5 2.4-.6 1.4-.4 1.5.9.4.9-.7 1.8-2.8 2-4.7.3-2.8.1-3.4-1.2-3-2.5.8-4-3.7-2.1-6.2.9-1.1 2.1-1.8 2.6-1.6 1.6.5 3.6-7 2.3-8.2-.8-.7-.9-.5-.5.7.3 1 .2 2-.3 2.3-.6.4-1 0-1-.9 0-.8-.3-2.3-.6-3.3s-.2-1.4.3-.8c1.2 1.6 6.3.3 6.3-1.5 0-.9-2-.8-3.7.3-1.9 1.2-2.1-.5-.8-5.5.8-3.3.9-5 .1-5.8-.7-.7-.5-1 .7-1 1.6 0 3.7-5.2 3.7-9.2 0-.9.5-2 1-2.3.6-.3 1-1.6 1-2.8 0-1.3.6-3.2 1.4-4.3s2.4-5.3 3.6-9.4c2.4-8 9.5-25.4 13.5-33.2 1.4-2.7 2.5-5.5 2.5-6.4 0-2 1.6-1 2.3 1.6zm14.8 11.9l-.1 8.5c-.1 3.2.2 4.6.9 4.1 1.7-1 1.3 1.4-.5 3.2-1 1-1.3 2.5-1 3.9.4 1.3.2 2.4-.3 2.4s-.7.9-.4 2 0 2-.6 2-1.1 1.1-1.1 2.4-.7 2.9-1.5 3.6-1.5.8-1.5.3c0-.6-2-.9-4.5-.9-3 .1-4.9-.4-5.4-1.3-1-1.6-.3-7.6 1.2-10.5.5-1 .9-3.6.9-5.7-.1-2.1.3-4.1.9-4.4.5-.4.9-2.1 1-3.8.1-3 .2-3 .8-.7l.7 2.4 1.7-2.4 1.7-2.4v4.4c0 3 .3 4 .9 3.1.5-.8.7-2 .4-2.7-.2-.6 0-1.5.6-1.9.8-.4.8-1.2.1-2.6-.8-1.4-.7-2.7.5-4.9 2-3.9 4.5-3 4.6 1.9zM254.5 215c-.3.5-1.1 1-1.6 1-.6 0-.7-.5-.4-1 .3-.6 1.1-1 1.6-1 .6 0 .7.4.4 1zm73.3 6.1c-.6 1.6-1.2 2.8-1.5 2.6-.7-.7.8-5.7 1.8-5.7.4 0 .3 1.4-.3 3.1zm-14.4 9.7c-.4 1.8-1 3.2-1.5 3.2-.8 0-.3-4.6.8-6.2 1-1.7 1.3-.2.7 3zm12.9-2.3c-.3.9-.8 1.4-1 1.1-.3-.3-.2-.9.2-1.5.9-1.6 1.5-1.3.8.4zm-19.7 7.1c-.4.9-.9 1.5-1.1 1.2-.3-.3-.3-1.3.1-2.2s.9-1.5 1.1-1.2c.3.3.3 1.3-.1 2.2zm16 10c-.9.8-1.6 1.1-1.6.5 0-.5.5-1.3 1-1.6.6-.3 1.1-1.8 1.1-3.3l.2-2.7.4 2.8c.3 1.6-.2 3.3-1.1 4.3zm-32.3 17.6c.8.6.9 1 .1 1.5-1.4 1-2.5 5.3-1.3 5.3.5 0 .9-.8.9-1.9 0-1 .7-2.4 1.5-3.1s1.2-1.6.9-2.1.2-.9 1-.9c1 0 1.6-.9 1.6-2.4 0-1.3.6-2.7 1.3-2.9.9-.4.9-.7-.1-1.4-.8-.6-1.1-2.5-.8-5.2.5-6.1 2.3-7.4 2.3-1.6 0 3.5.6 5.1 2.3 6.7 1.3 1.2 1.8 2.3 1.2 2.7-2.5 1.5-3.9 8-4.4 19-.2 5.1 1.8 6.8 2.8 2.4.3-1.5 1-3.9 1.4-5.3.7-2.2.9-2.2 1.1-.5.1 1.1.3 3.3.6 5 .2 1.6.5 4.3.6 6 .1 1.6.6 3.6 1 4.2.5.8.3 1.3-.4 1.3-.9 0-.9.3 0 1.4.6.7.9 2.1.5 3-.5 1.2-.2 1.5 1 1 .9-.4 1.6-.1 1.6.6 0 .6-.9 1.4-2.1 1.7-1.5.4-2 1.2-1.6 2.9.2 1.3-.1 2.2-.7 2.1s-1 .7-.8 1.8c.1 1.1.5 3.8.8 5.9.3 2.6.1 4.2-.8 4.7-1 .7-1 .9 0 .9.6 0 1.2.7 1.2 1.5s-.7 1.5-1.6 1.5c-1.4 0-1.4.3-.4 1.5 2.1 2.5 4 1.8 4-1.5 0-1.7.5-3 1-3 .6 0 1-1.1 1-2.5s.5-2.5 1-2.5c.6 0 .8 1.1.4 2.7-.6 2.4-.5 2.6.8 1.5 1.2-1 1.8-1 2.8.2 1.5 1.9.4 3.8-1.9 3.1-1.4-.4-1.7.2-1.8 3-.1 1.9.3 3.5.7 3.5 1.3 0 1.9 5.4.7 6.2-.8.5-.7 1.7.5 4.1 1.6 3.4 1.6 3.5-.7 4.5-1.6.7-2.6.7-3.3 0-1.3-1.3-1.7-.4-3 5.7-.6 3.2-1.3 4.1-3.2 4.3-1.3.2-3 1-3.7 1.8-.8.8-2.3 1.4-3.4 1.4-1 0-1.9.4-1.9 1 0 .5-1.1 1-2.4 1-1.4 0-2.8.4-3.1 1-.3.5-2.5 1.8-4.9 2.8-4.2 1.9-12.4 7.1-17.8 11.2-1.4 1.1-3.3 2-4.1 2s-2.8.7-4.3 1.5c-1.6.8-3.6 1.5-4.4 1.5-.9 0-3.2 1.2-5.3 2.6-3 2-4.1 2.3-5.2 1.4-1.5-1.3-.9-3.8 1.4-5.8.9-.8 1-1 .3-.7-1 .5-1.3.2-1-1.1.2-1.1.9-1.8 1.5-1.7s1.4-.4 1.7-1.3c.3-.8.2-1.3-.2-1-.5.3-.9-.1-.9-.9s.4-1.2.8-.9c.9.5 1.8-.8 2.5-3.8 1-4.2 1.1-7.9.2-8.4-.4-.3-.8-1.1-.8-1.7 0-.7.4-.6 1 .3.8 1.3 1 1.2 1-.4 0-1.1.6-2.7 1.3-3.5 1.8-2.1 3.8-9.1 2.6-9.1-1 0 .9-4.8 2.6-6.8 1-1.1 1.2-1.1 1.2 0 0 .7.4 2.6.8 4.3.5 2.2.4 2.6-.4 1.5-1.2-1.8-1.9-1.2-2.3 2-.2 1.4-.6 3-1 3.5-.3.6-.9 2.8-1.2 5l-.6 4 2.5-5c1.4-2.8 2.3-5.6 2-6.3-.2-.6.2-1.2.9-1.2 1.2 0 4.3-5.6 5-9 .2-.8.8-2.6 1.3-4 .6-1.4 1.6-5.1 2.3-8.3.8-3.2 1.7-6 2.2-6.3.4-.3.8-1.3.8-2.3s.9-2.9 1.9-4.3c1.1-1.3 2.2-4.4 2.4-6.9.3-2.5.9-4.3 1.6-4.1.6.1 1.1-.9 1.1-2.3s.7-3.6 1.5-4.9c.9-1.3 1.5-2.8 1.4-3.2-.2-.5.4-2.9 1.1-5.4.8-2.5 1.4-5.4 1.5-6.5s1.8-6.7 3.8-12.5l4.4-13.5c.6-2.2.9-.6 1.1 6.5.2 6 .7 9.7 1.5 10.2zm30.7-11c0 1.6-.3 1.9-1.1 1.1-.6-.6-.8-1.6-.5-2.2 1.1-1.7 1.6-1.3 1.6 1.1zm6.3 4.5c-.3.7-1 1.3-1.5 1.3-.6 0-.7-.7-.4-1.6s.6-2.1.6-2.7c0-.7.4-.7.9.2.5.8.7 2 .4 2.8zm-6.7 4c-1 2.6-2.9-.1-2.1-2.8.7-2 .8-2.1 1.7-.5.5.9.7 2.4.4 3.3zm-102.7 4.7c-.9.8-1 .7-.5-.7.3-1 .7-2.4.7-3 .1-.7.3-.4.6.7.3 1-.1 2.3-.8 3zm100.5-.9c-.4.8-.8 1.5-1 1.5s-.4-.7-.4-1.5.4-1.5 1-1.5c.5 0 .7.7.4 1.5zm-66.4 3.1c0 .8-.5 1.2-1 .9-.6-.4-.8-1.1-.5-1.6.9-1.4 1.5-1.1 1.5.7zm-14 4.4c0 .5-.5 1-1.1 1-.5 0-.7-.5-.4-1 .3-.6.8-1 1.1-1 .2 0 .4.4.4 1zm77.7 16c.1 1.8-.2 2.8-.7 2.5-.6-.4-1 .3-1 1.3 0 1.3-.9 2.1-2.5 2.4-1.4.3-2.5.1-2.5-.3 0-.5.7-.9 1.5-.9 1 0 1.5-1 1.5-2.9 0-6.2 3.3-8 3.7-2.1zm-1.1 13.7c-.7 1.8-3.5 1.6-4.3-.2-.3-.9.3-2.5 1.3-3.6l1.8-2 .8 2.2c.5 1.3.6 2.9.4 3.6zm-3.6 4.7c0 2 0 2-1.5 0-.8-1-1.4-2.8-1.4-3.9 0-2 0-2 1.4-.1.8 1.1 1.5 2.9 1.5 4zm43 3.2c0 .8-.5 1.2-1 .9-.6-.4-.8-1.1-.5-1.6.9-1.4 1.5-1.1 1.5.7zm-96.5 3.6c-.4 1.8-1.1 3.7-1.5 4.2-.5.5-.5-.8 0-2.7.4-2 .5-3.8.2-4.1-.3-.4 0-.6.7-.6.9 0 1.1 1 .6 3.2zm.5 9.5c0 .4-.8 1.3-1.8 1.9-1.6 1-1.7.8-1.4-2.2.4-2.8.6-3.1 1.8-1.9.8.7 1.4 1.7 1.4 2.2zm-1.1 7.1c0 1.4-.2 1.3-.9-.3-.5-1.2-.9-1.4-.9-.6-.1.8-.4 1.2-.7.8-.9-.9.6-2.8 1.7-2.2.5.4.9 1.4.8 2.3zm-16.7 12.9c-.3 1.6-.7 2.2-1 1.5-.4-1.3.4-4.2 1.1-4.2.2 0 .2 1.2-.1 2.7zm-2.2 10.7c-.6 1.6-1.3 2.6-1.6 2.3s-.1-1.4.5-2.5c.6-1.2 1.2-3.3 1.2-4.9.2-2.7.2-2.7.6-.2.2 1.4-.1 3.8-.7 5.3zm5.3 8.6c-.3 1.2-.8 1.9-1.1 1.6-.5-.6.5-3.6 1.2-3.6.2 0 .2.9-.1 2zm-8 1.5c-.7 2.1-1.3 1.9-1.3-.6 0-1.1.4-1.8 1-1.4.5.3.7 1.2.3 2zm-1.8 8c-1 2.9-1.4 3.4-1.5 1.7 0-2.3 1.8-6.7 2.5-6 .2.2-.2 2.2-1 4.3zm69.9 6.1c.4 1.5.6 2.7.4 2.8s-2.1 1.1-4.3 2.3-4.9 2.3-5.9 2.5c-1.1.1-3 1.4-4.3 2.6-1.9 1.9-2.7 2.1-3.8 1.2-.8-.7-1.5-1.7-1.5-2.2 0-1.6 3.2-2.1 4.2-.7.7 1 .8.8.3-.7-.5-1.9.5-2.8 6.2-6.2 3.7-2.2 7.1-4.1 7.4-4.1.4-.1 1 1.1 1.3 2.5zm-20.8 11.7c-.5-.9-.2-1.1.8-.7.9.3 1.3 1 1 1.5-.6 1-5 3.4-9 5-2.3.8-2.5.7-1.6-.4.7-.8.8-1.8.4-2.2-.4-.5-.1-.5.6-.1s2.1-.3 3.5-1.8c1.7-2 2.5-2.2 3.6-1.3 1.2.9 1.3.9.7 0zm-20.6 6.1c0 .2-1.2 1.2-2.7 2.1l-2.8 1.8 1.9-2.1c1.7-2 3.6-2.9 3.6-1.8zm7.8 2.1a.96.96 0 0 1-.9.2c-.4-.1-1.6.6-2.7 1.7-1.2 1-2.7 1.6-3.4 1.3-.8-.3-.2-.9 1.5-1.7 1.5-.7 2.7-1.7 2.7-2.1 0-.5.7-.6 1.5-.2.9.3 1.5.7 1.3.8zm-37.7 11.8c-1 .9-1.1.8-.5-.6.3-1 .9-1.5 1.2-1.2s0 1.1-.7 1.8zm108 8.2c-.1 1.5-2.4 1.2-2.9-.3-.3-.9.2-1.3 1.2-1 1 .1 1.7.7 1.7 1.3zm1 5.2c.6 1.6 1 3 1.1 3.3 0 .3.4 1.1 1 1.8 1.3 1.6.4 2.6-1.6 1.9-.9-.4-1.3-1.3-1-2.1.4-.9-.6-2.6-2.3-4.2-1.5-1.5-2.3-2.4-1.6-2 .6.3 1.4.2 1.8-.4 1-1.6 1.5-1.2 2.6 1.7zm16.3 2.8c.6 1.7.4 1.8-1.8.9-2-.8-2.1-2.4-.2-2.4.8 0 1.6.7 2 1.5zm-140.3 1.8c-1 .9-1.1.8-.5-.6.3-1 .9-1.5 1.2-1.2s0 1.1-.7 1.8zM360 432c1.6 3.1 1.8 4.5 1 6-1.1 2.1-2.9 2.7-3.1 1-.3-2-.4-11-.2-11s1.2 1.8 2.3 4zm-152.4-.1c-1 1.6-2.9 6.6-3.3 8.6-.2 1.1-.7 3.1-1.2 4.5-1.1 2.8-5.1 16.4-5.5 18.3-.9 4.2-1.9 6.7-2.8 6.7-.6 0-.7-.8-.3-1.8.9-2.4 3.3-12.1 3.9-15.7.2-1.7.5-3.1.6-3.3.2-.1.3-.5.4-1 .5-2.3 5-13 6.2-15 1.3-2 3.2-3.3 2-1.3zm135.4 1.2c1.7 3.4 2.8 7.9 1.9 7.9-1.4 0-4.2-4.9-3.6-6.4.3-.7 0-1.9-.6-2.6-.9-1-.9-1.2.2-.8.8.2 1.8 1.1 2.1 1.9zm-131.3 1.1c-.3.8-.6.5-.6-.6-.1-1.1.2-1.7.5-1.3.3.3.4 1.2.1 1.9zm142.1 1.6c.2 1.3 1 2.6 1.8 2.9s1.4.9 1.4 1.4-1.2.3-2.7-.3c-1.6-.7-2.9-1.2-3-1.3-.1 0-.5-1.3-.9-2.9-.6-2.4-.4-2.7 1.2-2.4 1.1.2 2 1.3 2.2 2.6zm-17.3 1.5c.5-.4.3 0-.4 1-1.3 1.6-1.2 1.9.8 2.4 1.7.4 1.9.8.9 1.4-2.3 1.5-4.6 1-5.2-1.3-.3-1.3-.1-2.7.4-3.2.4-.4.6-1.6.4-2.5-.3-.9.1-.6.8.7.8 1.2 1.8 1.9 2.3 1.5zM199.3 439c-.9 2.2-1.8 3.8-2.1 3.6-.6-.7 1.9-7.6 2.8-7.6.5 0 .1 1.8-.7 4zm9.4 4.2c-.3.8-.6.5-.6-.6-.1-1.1.2-1.7.5-1.3.3.3.4 1.2.1 1.9zm-12.6 3.9c-.9 2.2-1 2.2-1 .3-.1-1.1.2-2.4.6-2.7 1.2-1.2 1.4 0 .4 2.4zm-23.1-.7c0 .2-.7.6-1.5 1-.8.3-1.5.1-1.5-.4 0-.6.7-1 1.5-1s1.5.2 1.5.4zm36.5 3.5c.3.5.1 1.2-.5 1.6-.5.3-1-.1-1-.9 0-1.8.6-2.1 1.5-.7zm-39.9 5.7c.9-.3 1.4.1 1.4 1.4 0 1.1-.4 2-.9 2-.6 0-1.8 2.6-2.7 5.7-.9 3.2-1.9 6.5-2.2 7.3s-1.1 3.4-1.7 5.7c-1 3.5-.9 4.3.2 4.3 1.8 0 1.7 1.6-.2 2.4-1.8.6-5.4 8.5-5.9 12.7-.1 1.6-1 3.7-1.9 4.7-1 1-2.6 4.3-3.7 7.3s-1.8 4-1.5 2.4l1.1-6.5.5-3.5-1.7 3.5c-1 1.9-2.1 4.4-2.5 5.5-.6 1.7-.7 1.7-.8-.6-.1-1.4.2-2.9.6-3.3.4-.3 2.2-4.3 4-8.9 1.8-4.5 3.1-6.9 2.8-5.2-.5 2.6-.4 2.7.6 1.1 1.1-1.7 2.7-6.9 4.9-15.6.6-2.2.6-4.7-.1-6.7-1.3-4.1-.4-7.3 1.9-6.8 1.5.2 2.2-1.1 3.7-6.8 1.5-5.6 2-6.6 2.3-4.4.2 2 .8 2.7 1.8 2.3zm184.4-1.5c0 .4-.7.6-1.5.3-.8-.4-1.5-1-1.5-1.5 0-.4.7-.6 1.5-.3.8.4 1.5 1 1.5 1.5zm-192.5-.1c-.3.5-1.2 1-1.8 1-.7 0-.6-.4.3-1 1.9-1.2 2.3-1.2 1.5 0zm45 3c-1 1.1-1.5 2-1 2 .4 0 .2.7-.5 1.5-.6.8-.9 1.9-.5 2.5.3.5.2 1-.2 1-.5 0-.9.8-1 1.7-.3 2.7-1.1 6.2-2.9 12.8l-2 7.7c-1 4.4-1.4 5.8-3.7 13.3-3.5 11.2-4.9 17.4-4.1 18.6.3.5.1 1.6-.5 2.3-1.1 1.3-2.7 8.3-3.6 15.8-.3 2-1 4.9-1.5 6.3-.6 1.5-1 3.4-1 4.3 0 1.3.2 1.3 1.5-.4 1.1-1.5 1.4-1.6 1.5-.4 0 .9-.5 2.1-1.2 2.8-.9.9-.9 1.2.1 1.2s1 .4.3 1.2c-.5.7-1.3 2.9-1.7 4.8-1.5 7.4-4.7 17-5.6 16.4-.5-.3-.5.5 0 1.9s.6 2.8.2 3.3c-1 1.1-3.2 8.6-6.1 20.3-1.1 4.6-2.3 8.7-2.6 9-.7.6-.1-4.1 1.1-9.4.6-2.9.5-2.9-.9-1-1.5 1.9-1.5 1.8-1-1.5.3-1.9 1.2-5.3 2-7.5 4.5-13.4 12-44.6 12.6-52.5.1-1.9.6-3.8 1.1-4.1s1.8-5.1 2.9-10.5c3.4-17 3.6-17.9 5.2-22 .8-2.1 1.8-5.7 2-7.9.3-2.2 1.5-7.6 2.7-12l3.1-13.2c.6-3.2 1.4-5 2-4.7.6.4.9.1.6-.7s.4-2.2 1.4-3.1c1.2-1 1.7-2.2 1.2-3-.5-1-.4-1 .6-.1 1.1 1 1 1.6-.5 3.3zm-2.2-1.5c-.3.9-.8 1.4-1 1.1-.3-.3-.2-.9.2-1.5.9-1.6 1.5-1.3.8.4zm-27.3.7c0 2.8-3.8 16.6-5.3 19.4-1.5 2.6-1.6 2.7-1.7.7 0-3.7 2.4-11.7 3.9-12.9.8-.6 1.1-1.6.7-2.2-.8-1.4.3-6.2 1.5-6.2.5 0 .9.6.9 1.2zm183.7 1.4c.2.5-.3 1.8-1.1 2.9-1.3 1.8-1.5 1.8-4.5-1-2.7-2.6-2.8-3.1-1.3-3.6 2.1-.7 6.4.3 6.9 1.7zm-168 .4c-.1 1.1-.5 2-.9 2-1 0-1-.4-.2-2.4.8-2.2 1.3-2 1.1.4zm-6.3 3.4c-.3.9-1 1.6-1.5 1.6-.6 0-.5-.9.1-2.1 1.3-2.4 2.4-2 1.4.5zm-59.4 1c0 .2-.7.7-1.6 1-.8.3-1.2.2-.9-.4.6-1 2.5-1.4 2.5-.6zm226 .5c0 .5-.7 1.1-1.5 1.5-.9.3-1.5 0-1.5-.9a1.54 1.54 0 0 1 1.5-1.5c.8 0 1.5.4 1.5.9zm-145.9 2.8c-1.2 2-1.4 1.4-.5-1.2.4-.9.9-1.4 1.1-1.1.3.2 0 1.3-.6 2.3zm144.6 1.9c-.3.3-1.2.4-1.9.1-.8-.3-.5-.6.6-.6 1.1-.1 1.7.2 1.3.5zM184 470.2c-.1.7-1 2.9-2 4.8l-2 3.5.6-4c.4-2.2.9-4.3 1.1-4.8.7-1.2 2.3-.8 2.3.5zm-45 1.4c0 1.2-2.6 3-3.7 2.7-.7-.3-1.8.5-2.5 1.6-.7 1.2-2.2 2.1-3.3 2.1-2-.1-2-.1 0-1.2 1.1-.6 3.3-2.2 4.8-3.5 2.7-2.2 4.7-2.9 4.7-1.7zm55.6 4.4c-.8 2.7-1.9 4.4-3 4.6-1.6.2-1.6.1-.2-2.1.9-1.4 1.6-3 1.6-3.8 0-1.3 2.1-4 2.6-3.4.2.2-.3 2.2-1 4.7zm10.2 1.3c-1.3 2.6-2.1 1.5-1.2-1.8.5-1.9.9-2.3 1.5-1.4.4.7.3 2.1-.3 3.2zm-47.1-.1c-.3.8-.6.5-.6-.6-.1-1.1.2-1.7.5-1.3.3.3.4 1.2.1 1.9zm13 2.5c-.4.3 0 1.1.9 1.7 1.4 1 1.3 1.4-.5 3-2.1 1.9-2.1 1.9-2.1-1.1 0-2.8.7-4.3 1.8-4.3.3 0 .2.3-.1.7zm5.2 7.6c-.6 4.3-1.5 7.7-1.9 7.7s-1.1 1.5-1.5 3.2c-.5 2.3-.9 2.8-1.2 1.5-.3-1 .1-3.2.7-5 .7-1.8 1.4-5.2 1.6-7.5.4-4.3 2.1-8.8 3-7.9.2.2-.1 3.8-.7 8zm-9.5 14.8c.4 2.3.5 4.3.3 4.5-.5.5-6.7-1.9-6.7-2.7 0-1 4.1-5.9 4.9-5.9.5 0 1.1 1.9 1.5 4.1zm-9.3 6.6c-.9 1.6-1 1.5-1.1-.9 0-1.4.3-3.5.8-4.5.6-1.5.8-1.4 1 .9.2 1.5-.1 3.5-.7 4.5zm4.1.8c-.2 1.4-.8 2.5-1.3 2.5-1.2 0-1.1-.7.1-3.1 1.4-2.6 1.8-2.4 1.2.6zm-6.1 10.2c-1.2 2-1.4 1.4-.5-1.2.4-.9.9-1.4 1.1-1.1.3.2 0 1.3-.6 2.3zm14 16.9c-.5 1.6-1 2.1-1 1.2-.1-1.8 1-5.1 1.5-4.5.2.1-.1 1.6-.5 3.3zm-1.5 4.7c.8-.3 1.4.1 1.3.8-.1 1.6-2.7 8.7-2.9 7.9 0-.3-.2-3.4-.4-7s-.1-5.3.1-3.8c.3 1.8.9 2.5 1.9 2.1zm21.4-2.7c0 .8-.5 1.2-1 .9-.6-.4-.8-1.1-.5-1.6.9-1.4 1.5-1.1 1.5.7zm148.4 13.6c-.4 2.3-.2 2.8 1.3 2.8 1.7.1 1.7.1 0 1.1-1 .6-2.1.9-2.4.6-.7-.8-1.3-7.9-.6-9 1-1.7 2.3 1.7 1.7 4.5zm3.6 5.8c0 .5-.7 1-1.5 1s-1.5-.5-1.5-1c0-.6.7-1 1.5-1s1.5.4 1.5 1zm-166.1 14.2c-.7 1.3-1.3 3.1-1.4 4.1-.1 1.1-.6 2.2-1.1 2.5-.5.4-.9 1.1-.9 1.7 0 .5-1 3.9-2.1 7.5-2.3 7-4.4 14.7-6.8 25-1 4.3-1.5 5.2-1.3 2.7.2-2.1-.2-3.7-.8-3.7-.5 0-.3-.5.6-1 1.1-.6 1.7-2.4 1.8-4.7.1-4.6.6-7.6 1.9-10 .5-1 1.3-3.8 1.6-6.3.9-5.5 2.4-9.9 4.4-12.2.8-.9 1.1-2.2.7-2.7-.3-.6-.1-1.1.5-1.1.7 0 1-.6.7-1.4-.3-.7.2-2.4 1.1-3.7 1.4-2 1.7-2.1 2-.7.2.9-.2 2.7-.9 4zm165.2 7.2c-.9 1.1-.9 1.5.1 1.9.7.3.1.6-1.3.6-1.4.1-2.8-.2-3.2-.5-1.2-1.3.6-3.4 3-3.4 2.1 0 2.3.3 1.4 1.4zm-181.2 51c-.9.8-1 .7-.5-.7.3-1 .7-2.8.7-4 .2-1.6.3-1.4.6.7.3 1.6-.1 3.4-.8 4zm-9.2 44.8c-.3.8-.6.5-.6-.6-.1-1.1.2-1.7.5-1.3.3.3.4 1.2.1 1.9zm5.1 3.5c-.2 1-.9 1.7-1.5 1.6-1.4-.3-4.6 8.3-3.9 10.4.4.9.1 2-.6 2.4-.9.6-.9 1.1 0 2.2 1 1.2.8 1.6-.9 2-1.1.3-1.8 1-1.5 1.5.3.6.1 1.2-.5 1.4s-1.3 2.4-1.5 4.9c-.2 2.4-1 6-1.9 7.9l-1.6 3.5.6-5.9c.7-5.7 8.6-29.8 10.7-32.3 1.5-1.9 3-1.6 2.6.4zm-37.1 5.5c-.3.8-.6.5-.6-.6-.1-1.1.2-1.7.5-1.3.3.3.4 1.2.1 1.9zm.1 10.1c-1.6 4.8-2.8 5.5-1.7 1.1.4-2.2.9-4.3.9-4.7 0-.5.4-.6.9-.2.6.3.6 1.8-.1 3.8zm-2.8-1.8c0 .8-.4 1.5-1 1.5-.5 0-.7-.7-.4-1.5.4-.8.8-1.5 1-1.5s.4.7.4 1.5zm-6 17.5c0 .5-.4 1-1 1-.5 0-1.1 1-1.1 2.2-.1 1.8-.2 1.9-.6.5-.3-1-.2-2.5.1-3.3.6-1.6 2.6-1.9 2.6-.4zm5.5 17c.3.5.1 1-.4 1-.6 0-1.1-.5-1.1-1 0-.6.2-1 .4-1 .3 0 .8.4 1.1 1z"/><use xlink:href="#B"/><path d="M288.8 206.6c-.5.4-.8 1.7-.8 2.8 0 1.2-.7 3.2-1.6 4.4-.8 1.2-1.4 2.8-1.1 3.5.5 1.5 4.9-8.2 4.5-10.1-.2-.8-.6-1-1-.6zm-6.2 17c-.4 1.4-.5 2.8-.3 3.1.3.2.8-.8 1.1-2.3.4-1.4.5-2.8.3-3.1-.3-.2-.8.8-1.1 2.3zm-6.5 24.5c-.6 1.8-.9 3.4-.7 3.6s.9-1 1.5-2.8.9-3.4.7-3.6-.9 1-1.5 2.8z"/><use xlink:href="#C"/><path d="M305 220c0 1.3 1.8 2.2 2.4 1.1.3-.5-.1-1.1-.9-1.5-.8-.3-1.5-.1-1.5.4zm-2 6.1c0 1.1.5 1.7 1 1.4.6-.3 1-1.3 1-2.1s-.4-1.4-1-1.4c-.5 0-1 .9-1 2.1zm-10.4 41.5c-.8 2.1-.4 2.5 1.4 1.4 1.1-.7 1.2-1.2.4-2s-1.3-.7-1.8.6zm-5.6 6.8c0 .8.5 1.8 1 2.1.6.3 1-.3 1-1.4 0-1.2-.4-2.1-1-2.1-.5 0-1 .6-1 1.4zm4.5 3.6c-.3 1.1-.3 3 .1 4.2.7 2.2.7 2.2 1.5.3 1.1-2.8 1.1-6.5 0-6.5-.5 0-1.3.9-1.6 2zm-7.5 34.1c0 .5.5.7 1 .4.6-.3 1-.8 1-1.1 0-.2-.4-.4-1-.4-.5 0-1 .5-1 1.1zm10 5.8c0 .5.5 1.3 1 1.6.6.3 1 .2 1-.4 0-.5-.4-1.3-1-1.6-.5-.3-1-.2-1 .4zm.5 10.1c-.4.6 0 1.9.9 2.9s1.6 2.7 1.6 3.9c0 1.1.5 2.4 1 2.7.6.3 1 1.4 1 2.4s.7 2.5 1.7 3.2c1.5 1.3 1.6 1.1 1-2.3-.7-4.5.1-7.8 1.9-7.8 1.7 0 1.9-4.6.3-5.6-.6-.3-1.5-.1-1.9.6-.6 1-.9.9-1.3-.1-.5-1.2-.7-1.2-1.5 0s-1.3 1.2-2.5.2c-1.1-.9-1.7-.9-2.2-.1zm12.1 9.5c.4.8 1 1.2 1.5.9 1.1-.6.2-2.4-1.1-2.4-.5 0-.7.7-.4 1.5zM291.5 383c.3.5.8 1 1.1 1 .2 0 .4-.5.4-1 0-.6-.5-1-1.1-1-.5 0-.7.4-.4 1z"/><use xlink:href="#D"/><path d="M182.7 552.2c-.3 1.8-.8 4.1-1.2 5-.4 1.1-.3 1.8.4 1.8.6 0 1.1-.9 1.1-2.1 0-1.1.4-2.8.9-3.8.5-.9.6-2.3.2-3-.5-.8-1-.1-1.4 2.1zm-7 26.7c-.4 1.7-.3 2.1.5 1.3.5-.5.8-1.6.6-2.3-.3-.8-.7-.3-1.1 1z"/><use xlink:href="#C" x="-100" y="326"/><use xlink:href="#B" x="-119" y="388"/><path d="M594.3 81.7c1.5.2 3.7.2 5 0 1.2-.2 0-.4-2.8-.4-2.7 0-3.8.2-2.2.4zm-6.8 1.3c.3.5-.1 1-.9 1-.9 0-1.6.4-1.6 1 0 .5-1.7 1.2-3.7 1.6-3.8.7-16.9 5.9-18.8 7.5-.6.4-4.1 2.2-7.8 3.8l-6.8 3.1 2.1-3c1.2-1.6 3.1-3.6 4.2-4.5 1.2-.8 2-1.7 1.7-1.9-.2-.2-3.1 1.6-6.4 4.1-4 3-5.9 5.1-5.8 6.3.3 1.9-17.3 20.4-22.5 23.8-3.4 2.2-3.7.8-.5-2.9 2.9-3.4 5.9-7.6 7.9-11.1.6-1.1 2.4-3.2 4-4.9 1.5-1.6 2.3-2.9 1.8-2.9-1.9 0-10.4 9.6-10.4 11.6 0 1.2-2.1 4.3-4.6 7-9.5 10-14.9 20.7-10.9 21.6 1.2.2 1 1.1-1.2 4.1-1.6 2.3-2.9 3.4-3.2 2.6-.2-.7.1-1.5.8-1.7.6-.2 1.1-1.1 1.1-2-.1-3-7.4 6.1-11.5 14.3-2.1 4.2-3.9 9.1-4.1 11-.4 4.8-3.8 10.9-6.8 12.3-1.4.6-2.6 1-2.6.8 0-1.6 2.6-7.3 3.7-8.3.8-.6 1.3-2.2 1.1-3.5-.6-4-7.6 7.5-9.2 15.3-1.3 6.4-4.7 14.2-6.6 15.4-.5.3-1 0-1-.7-.1-.8-.6-.6-1.5.6-.8 1.1-1.3 2.8-.9 3.8.3 1-.4 4.4-1.5 7.6-1.5 3.9-1.6 5.1-.6 3.8.8-1 1.6-2.4 1.8-3 .3-.8.8-.8 1.7.1 1.1 1 .9 1.7-.6 4-1 1.5-1.8 3.7-1.9 4.7 0 2.8-2.5 3.2-2.6.4-.1-1.3-.1-2.7.1-3.3.1-.5-.7-.2-1.8.8-1 .9-2.4 1.7-3.1 1.7-1.2 0-3 3.5-7 13.8-1.2 3-1.6 5-1 4.6 1.2-.7 1.1.4-.6 5.1-.4 1.1-.3 1.5.2.9 1.1-1.4 4.3-2.5 4.3-1.5 0 1.5-4.9 11.6-4.9 10.2-.1-1.1-.4-1.1-1.7 0-1.5 1.2-1.6 1.1-1-.9 1.1-3.2-1.8-2.9-4.1.5-2.4 3.6-5.1 10.2-5.1 12.8-.1 2.7-.9 6.6-1.7 8.7-.4 1.1-.3 1.8.4 1.8.6 0 1.1-.5 1.1-1 0-.6.5-1 1.1-1 .7 0 .9.9.3 2.7-.4 1.6-.8 4.3-.8 6.2-.1 3.6-1.2 4.6-3.4 3.2-1.2-.7-1.1-1.4.3-4.1.9-1.7 1.4-3.4 1.2-3.7-.3-.2-.8.5-1.2 1.6-.3 1.2-1.1 2.1-1.7 2.1s-.7-.8-.3-1.8c.4-1.1.3-1.3-.3-.7-1.4 1.4-2.5 6.8-1.3 6.1 1.8-1.1 2 .9.6 6.9-2.1 9.9-4.6 15.7-6 14.3-.3-.3.4-2.6 1.5-5.2 2.4-5.6 2.5-6.2.6-4.7-2.2 1.9-4 9.5-2.7 11.9 1.2 2.2.5 5.2-1.1 5.2-.5 0-.8 1-.6 2.3.1 1.3-.7 3.5-1.9 5-1.3 1.6-1.9 3.5-1.6 4.8.4 1.3-.2 2.7-1.6 4-1.5 1.4-1.9 2.7-1.5 4.5.5 1.7-.3 4.3-2.6 8.5-1.7 3.3-2.9 6.3-2.6 6.6.3.4-.1 1.8-1 3.2-1.7 2.4-2.7 5.7-4.4 13.6-.9 4.3-.3 6.6 1.1 4.4.7-1.2.9-1.1.9.1.1 2 2.9-3 3-5.2 0-.9.6-2.1 1.3-2.5 1.6-1.1 3.5-5.1 4-8.8.3-1.7 2.1-7.5 4.1-12.9 2-5.5 3.4-10.1 3.1-10.4-.4-.4-1 1-3.1 6.7-.2.8-.7 1.2-1 .9s.7-3.9 2.1-7.9c1.5-4.1 3.1-8.9 3.6-10.7 1.4-4.7 3.1-4 2.5 1-.8 6.8-7.3 28.7-14.5 48.8-2.2 6.3-4.7 15.3-5.5 20-1.1 6.1-2.1 8.8-3.5 10-2 1.5-4.6 10.3-3.6 12.1.4.5-.3 3.5-1.5 6.6-1.7 4.7-2.1 8-2.2 19.2-.1 13.3-.8 17.1-2.9 17.1-1.1 0-.5-7.3.9-10.8.3-1 .1-1.3-.6-.8-.7.4-1.2 1.8-1.2 3 0 1.3-.7 2.9-1.5 3.6-1.5 1.3-1.8 8-.3 8 .5 0 .7 1 .4 2.2-.3 1.3-.3 1.7 0 1 .3-.6.9-1.2 1.4-1.2.4 0 .2 2-.6 4.5-.7 2.5-1.3 6.7-1.3 9.3.1 4.9-.3 7.8-1.3 8.7-.3.3 0 2.4.6 4.6.8 3 .7 4.5-.2 6-1 1.6-1 2 .4 2.6 1 .4 1.4 1.3 1 2.7-1 4.1 1.1 32.5 2.6 34.9 1.7 2.6 2.3 10.7.8 10.7-.5 0-1-.7-1-1.7 0-.9-.3-1.4-.6-1-1 1 .7 4.7 2.2 4.7 1.6 0 4.7 6.8 4 8.7-.3.7-.1 1.5.4 1.8 1.3.8 1.3-5.1 0-7.6-.7-1.1-.7-2.6-.2-3.5.6-1.1 1.7 1.2 3.7 8.3 1.6 5.4 3.5 11.1 4.2 12.8 1.3 2.8 1.4 2.7.8-2.9-.3-3.2-1.1-6.8-1.7-8-1.3-2.4-1.6-4.2-2.2-17.6-.2-5.2-.1-7.9.3-6 .4 2 1.1 4.2 1.6 4.9.4.8 1.2 2.8 1.6 4.5.6 2.3.8 1.4.7-3.9l.1-8.8c.1-2.4 2.1-1.1 2.1 1.5 0 1.1.8 3.2 1.9 4.6 1 1.5 2.3 4 2.9 5.7 1 2.9 1 2.9 1.2.5 0-2.2.2-2.3 1.1-.7.6 1 .9 2.8.7 4-.1 1.2.2 2.3.7 2.4 1.1.2 3.5 8.6 3.5 12.3 0 1.4.9 3.3 2 4.3 1.9 1.6 2 1.6 2-1.8 0-1.9.5-3.5 1.1-3.5.5 0 .8.3.5.8-.2.4-.1 2.3.4 4.2l.8 3.5.1-3.1c.1-1.7.4-3.3.7-3.6s.5-5.9.5-12.4c.1-6.6.5-13.7 1-15.9.6-2.2 1.1-5.9 1.2-8.3.1-2.3.5-4.2 1.1-4.2.5 0 .6-2.2.3-5-.3-2.7-.2-5.2.4-5.5.5-.4.9-2.1.9-3.8 0-1.8.7-5 1.5-7.2s1.4-6.1 1.5-8.7c0-2.6.5-5.9 1.2-7.5.6-1.5 1.1-3.1 1-3.5-.5-2.2 3.1-18.5 4.3-19.7s1.3-.6.9 4.5c-.3 3.2-1.4 8.8-2.4 12.4s-2.1 8.5-2.4 11l-6.1 42c-1 6.3 3.2-4.8 4.6-12 1.9-10.1 4.2-24.9 5-32 .4-4.1 1.7-11.3 2.9-16a345.93 345.93 0 0 0 2.6-11c.9-5.8 2.4-12.2 3-13.1 1-1.7 2.6.3 2 2.7-.4 1.3-.4 2.4-.2 2.4.7 0 2.4-5.6 7-23.5 1.4-5.5 3.2-11.4 4-13 .8-1.7 1.7-4.9 1.9-7.2.3-2.3 1.9-7.1 3.6-10.6s3.1-7 3.1-7.7c0-3.7 3.5-14.7 5.1-16.3 1.1-1 1.9-2.7 1.9-3.8s.7-2.2 1.6-2.6c.9-.3 1.4-1.3 1.1-2.5-.6-2 1.8-10.3 3.5-12.5.5-.7.7-1.6.5-2.1-.3-.4 1-3.9 2.9-7.6 1.9-3.8 3.4-7.2 3.4-7.7s1.3-3 3-5.5c1.6-2.6 3.3-6.4 3.6-8.3.4-2 1.7-5.6 2.9-8.1 1.3-2.5 3.9-8.6 6-13.5 2-5 4.1-9.5 4.6-10.1s.7-1.9.3-2.8 1-3.9 3.5-7.7c2.3-3.4 4.1-6.6 4.1-7.3 0-.6 1-1.6 2.2-2.1 2.3-1 8.2-10.2 9.2-14.5.4-1.5-.4-.7-1.9 2-1.6 2.7-2.3 3.5-2 2 .4-1.4.6-3.6.6-5-.1-1.3 1.2-4.3 2.7-6.5 4-5.7 4.7-7 3.4-6.1-2.2 1.3-1.3-2.9 1.7-8.5 1.6-3 3.5-7.7 4.2-10.4.6-2.8 1.5-5.5 2-6 2.1-2.8 6.9-13.2 6.9-15 0-2.5 8.2-17.1 11.5-20.4 2-2 2.6-2.2 3.9-1.2 1.3 1.1 1.7.9 2.7-1.3.7-1.4 1.6-2.6 2-2.6.9 0 4.9-6.8 4.9-8.4 0-.8.7-1.9 1.5-2.6 1-.9 1.5-.9 1.5-.1 0 1.6 2.6 1.3 4-.5.8-.8 2.9-2.2 4.8-3s4.1-2.2 4.8-3.2c1.3-1.6 1.3-1.6 1.4.2 0 1 1.5 3.8 3.4 6.1s3.8 5.4 4.1 6.8c.9 3.3 3.5 4.4 4.2 1.7 1.4-5.2 5.4 0 7.8 10 .8 3 1.2 5.6 1 5.8-.1.1-1.2-1.2-2.4-3-1.1-1.8-2.1-2.8-2.1-2.1 0 .6.5 1.5 1 1.8.6.3 1 1.5 1 2.6 0 1.2.7 1.9 1.9 1.9 1.4 0 2.1.9 2.6 3.1.5 2 1.2 2.9 2.1 2.5 1-.4 1.3.7 1.2 4.7-.1 5.3 2.4 19.3 4.2 23.7 1 2.5 1.6 23.2.9 34.5-.2 3.3-.1 8.2.4 11 1 6.9 1 6.3-.3 13.5-.7 3.6-1.3 9.4-1.5 13-.4 7.7-1.3 12.3-3.1 15.9-1.2 2.2-1.4 2.3-1.4.6 0-1.6-.2-1.7-1-.5-.5.9-.5 1.9.2 2.7.7.9.7 2.1-.1 4.1-.7 1.6-.9 4.1-.5 5.5.4 1.7.2 2.7-.5 2.7-.6 0-1.1-.8-1.2-1.8-.2-3.2-2.8 8.1-3.4 14.7-.3 3.6-.9 7.8-1.1 9.3-1 4.9 1.4 3 2.6-2.2.7-2.8 1.6-5.3 2.1-5.6 1-.6.2 12.3-.9 14.1-.4.5-.8 2.1-.9 3.5s-.4 3.4-.6 4.5l-1.1 6c-1.2 6.2-1.7 7.5-2.7 7.5-.7 0-.8-1.2-.4-3.1.5-2.3.4-3-.5-2.4-.9.5-1 .1-.5-1.5.5-1.5.4-2-.4-1.6-1.3.8-3.1 7.1-3.1 10.8 0 3.3-1.3 4.2-3.9 2.9-1.6-.9-1.9-.6-2.5 3.2-.5 3.2-.3 4.4.9 5.3 2.4 1.8 3 9.6 1.1 14.4-.9 2.2-1.6 5.5-1.6 7.2s-.7 4-1.7 5c-1.5 1.7-1.5 1.8.4 1.8 1.7 0 2.2-1.3 3.8-8.8 1-4.8 2.2-9.1 2.6-9.6.5-.6.9-2.9.9-5.2 0-2.5.6-4.7 1.5-5.4 1.2-1 1.5-1 1.5.1 0 3.1-3.1 17.1-4.5 20.5-.8 2-1.5 5.1-1.5 6.8 0 3.5-2.4 7.6-4.4 7.6-1.6 0-3.7 4.5-3 6.4.3.7-.4 3.1-1.5 5.2-1.2 2.1-2.1 4.7-2.1 5.7s-.4 1.6-.9 1.2c-1.4-.8-2.2 1-2.6 5.8-.4 5.8-2.3 14-3.3 14.6-.5.4-1.2 2.2-1.6 4-.8 4.6-3.4 8.4-5.1 7.7-.7-.2-1.6.2-1.9 1-1 2.6-.7 3.6.8 3.1 2-.8 3 2.7 1.6 5.3-1.5 2.8-2.1 17.2-.7 16.3 2.1-1.3-.1 8.3-3.2 13.7l-3 5.5.5-4 .4-4-2.1 4.5c-1.2 2.5-2.1 5.5-2.1 6.7.2 3.2-2.6 9.3-4.2 9.3-2.3 0-5.6 5-5.6 8.4 0 2.1.3 2.7.9 1.7s1-1 1.6-.1c1.1 1.9-2.5 11.8-6.6 18-2 3-3.9 6.8-4.2 8.5-1.8 9.3-3 12.9-7.1 21.1-2.5 5.2-8.9 14.9-14.6 22.5-5.6 7.4-10.6 14.3-11 15.4s-2.7 3.8-4.9 6c-2.3 2.1-4.1 4.5-4.1 5.2 0 1.6-7.5 3.6-10.5 2.9-2.3-.6-5.1 1.5-3.8 2.8 1.1 1.1-6.5 0-12.4-1.9-5.2-1.6-9.7-5-8.7-6.6.3-.5-.1-.6-.8-.4-.8.3-3.4-1.6-6.1-4.5-5.2-5.5-6.1-5.5-2.2.2 5.2 7.6 2 5.7-4.5-2.7-4.7-6.1-7-12.8-4.2-12.3.9.2 2.2 1.4 2.9 2.8s1.3 2.1 1.3 1.6c0-.6 1.3.3 2.9 1.8 2.4 2.3 3.5 2.7 6 2.1 1.7-.4 3.1-.9 3.1-1.1 0-.5-9.9-13.3-12.2-15.9-.6-.6-1.2-.5-1.8.5-.5.8-1 1.1-1 .6s-.6-.3-1.4.3c-1 .8-2.2.7-5-.4-2-.8-3.6-1.2-3.6-.8s-.5.2-1.2-.5-1.6-1.2-2-1.2c-1.2 0-.3 11.9 1 13.2 1.7 1.7 1.5 2.8-.4 2.8s-4.4-5.8-4.4-10.2c0-3-.1-3.1-1.4-1.2-1.4 1.8-1.6 1.7-3.5-2.6-1.1-2.5-2.1-5.5-2.1-6.8s-.4-2-1-1.7c-.6.4-1.3-.7-1.6-2.4-.4-2-1.1-2.8-2-2.4-.8.3-1.4-.1-1.5-.8 0-.8-.7.3-1.5 2.3-1.1 2.6-2 3.5-3.1 3.1-.8-.3-1.8-.1-2.2.6-.6.8-1.5.9-3.4.2-2.3-.9-2.7-1.7-2.8-5.3-.1-2.9-.3-3.5-.7-1.8-.4 2.4-.5 2.4-1.8-1l-1.4-3.5.3 3.3c.4 4-.3 4.6-3.7 3.1-1.9-.9-2.9-.9-4 0-1.2 1-1.7.8-2.6-.8-.6-1.1-.8-3.2-.4-4.5.3-1.4.1-3.3-.4-4.2-1.8-3.3-2.6 7.1-1.3 19 2.6 25.2 3.8 30.2 9.7 40.3 1.3 2.3 2.4 4.8 2.4 5.6 0 .9 2.4 4.8 5.4 8.9l9.8 13.2c2.4 3.2 6.8 7.7 9.8 9.9s7.4 5.7 9.7 7.7c5.2 4.5 22.9 13.4 30.9 15.5 8.2 2.1 21 3.5 33.1 3.5 8.1 0 11.7-.5 17.5-2.4 11.7-3.9 22.4-8.2 26-10.5 1.8-1.1 5.5-3.3 8.2-4.8 2.7-1.6 7.5-5.2 10.8-8.1 3.2-2.8 6.1-5.2 6.6-5.2 1.4 0 16.9-15.5 21.9-22 13.6-17.6 26.9-40.5 38.6-66.5 4.4-9.8 12.7-30.6 14.2-35.5.4-1.4 1.1-3 1.5-3.5.4-.6 1.1-2.6 1.4-4.5.7-3.4 4-14.2 5.7-18.8.5-1.3.9-3.2.9-4.2 0-1.1.6-3.4 1.4-5.2 2.6-6.1 5.7-16.7 6.2-21.3.2-2.5.6-6.6.9-9.1.2-2.5.8-5.1 1.4-5.8.5-.6 1.4-4 1.9-7.6.6-3.6 1.7-8.3 2.6-10.5 1.7-4.5 2.1-14.5.6-14.5-1.3 0-1.3-5.6.1-12.1.7-3 1.4-4.7 1.9-4 .4.7 1-1.6 1.4-5.1l1.1-9.7c.2-1.8 0-4.3-.4-5.5-.4-1.1-.2-4.4.4-7.1 1.4-5.5 1.5-5.5 2-.7.3 3.9 2.5 6.8 2.6 3.7 0-1.7.4-5.9 1-11.5.5-3.5-.2-7.1-1.1-6.5-2.4 1.5-.2-12.1 2.4-14.7.7-.7 1.5-2.8 1.9-4.6.6-3 .5-3.2-2-3.2h-2.6l.6-9.3c.7-10.8 1.3-12.8 3.6-12.5 1.2.2 1.8-1 2.4-5.7.5-3.3.8-7.4.7-9-.1-1.7-.1-4.1-.1-5.5.2-7.1 0-9.5-.9-9.8-.6-.2-1-1.3-1-2.4 0-1.7.3-1.8 1.5-.8 1.3 1 1.5.9 1.6-1.1.5-8.6 0-17.9-1-19.8-1-1.7-1-2.5 0-3.7.8-1 1-3.9.6-9.7-.3-4.6-.1-10.2.4-12.5.6-2.7.5-7.5-.1-13.5-.6-5-.8-12.1-.4-15.6.6-5.8.8-6.3 2-4.6 1.4 1.8 1.4 1.8 1.4-.1 0-3.9-4.2-31-5.1-32.6-.5-1-.9-2.8-.9-4 0-2.6-4.1-18.1-4.6-17.5-.3.2.4 4 1.5 8.3 1.7 7 4.9 25.1 6.7 38.6.4 2.9.2 4.8-.4 4.8-.5 0-1.2-2.8-1.6-6.3-1.4-14-4-28.8-6.8-38-1.6-5.4-2.7-10.6-2.5-11.5.3-1.3.6-1.2 1.5.8 1.1 2.5 1.1 2.5 1.1.2.1-1.4.5-2.1 1.2-1.6.7.4.7-.1-.1-1.6-.7-1.3-1-3.8-.6-6 .5-3.2.1-4.3-2.4-7.5-1.7-2.1-3-3.4-3-2.9s-.5.2-1-.6-.7-2.4-.4-3.5c.4-1.4.3-1.6-.4-.7-.7 1.1-1 1-1.6-.3-1-2.7-.7-3.5 1-2.8 1.4.5 1.5.1.9-2.8-1.5-6.8-4.6-13.7-8.1-17.7-2-2.3-3.9-4-4.3-3.8-.4.3-2.3-1.2-4.3-3.2-4.5-4.7-11.8-14.9-9.8-13.8.8.5 0-.7-1.9-2.7s-3.7-3.5-4-3.4-1.7-.5-3.1-1.2l-2.5-1.4 2 2.3 2 2.3-3.3-1.9c-4.1-2.3-7.1-5.5-3.4-3.5 1.2.6 2.7.9 3.3.5.6-.3 1.9.2 3 1.2 1 .9 1.9 1.2 1.9.6 0-.5-1.9-2.4-4.2-4.1S639 95 639.5 95c.4 0 2.2 1 3.9 2.3 5.4 4.1 6.2 4 1.6-.3-4.5-4-15.7-10.1-19.5-10.5-1.1-.2-6.5-1-12-1.9s-12.7-1.6-16-1.5h-6l4.5 1.5c2.5.7 6.5 1.4 9 1.5 2.5 0 3.9.3 3.2.6-.8.3-5.7.2-11-.2-5.4-.4-9-1-8.2-1.4 2.3-.9 2.3-3.1-.1-3.1-1.1 0-1.7.4-1.4 1zm21 15c2.2 1.1 4.6 1.8 5.3 1.5 1.2-.4 9.4 3.5 11.7 5.6 1.7 1.7-1.5.9-6.3-1.5-7.4-3.6-10.2-3.9-35.9-3.3-2.3.1-4 .5-3.7.8.6 1-4.5 2.1-5.9 1.3-.7-.4-.9-.4-.5.1.7.8-7.4 6.5-9.2 6.5-.5 0-2.6 1-4.7 2.2-3.5 2-3.7 2-2.2.2.9-1 1.5-2.4 1.2-3-.4-1.3 9.1-6.4 11.8-6.4 1 0 2-.4 2.4-.9.3-.6 3.8-1.7 7.8-2.5 14.7-3.2 22.9-3.3 28.2-.6zm3.8 17.4c1.8.7 4.1 2.3 5.2 3.5l1.9 2.2-2.9-1.1c-1.6-.6-3.5-1.6-4.1-2.1-.7-.5-3.1-1.6-5.5-2.3-4.4-1.4-4.4-1.4-1.1-1.5 1.8-.1 4.7.5 6.5 1.3zM646 123c2.3 2.7 4.8 5 5.6 5 1.2 0 1.8 1.2 1.5 3.2 0 .4 1.7 3.8 3.8 7.5s4.6 9 5.7 11.8c1.7 4.7 4.7 8.8 5.7 7.9 1.3-1.3 11.5 32.5 10.3 34.5-.3.4.1 2.5.8 4.7 2.3 6.9 2.7 10.4 1.1 10.4-1.3 0-2.3-3.6-2.3-8.6 0-1.2-1.4-6.8-3.1-12.6-1.7-5.9-3.1-11.5-3.1-12.5 0-1.1-1.3-3.7-3-5.9-1.6-2.1-3-4.3-3-4.8 0-.4-1.8-4.7-3.9-9.5-4.1-9-9.9-18.5-17.5-28.7-2.5-3.4-4.6-6.4-4.6-6.8 0-1.7 2.2-.1 6 4.4zm-104.1 1.7c-6.8 7.5-8.9 9.4-8.9 7.8 0-1.2 11.6-12.5 12.8-12.5.2 0-1.5 2.1-3.9 4.7zm84.6 1.4c2 2.2 2 2.2 0 1.1-1.1-.5-2.9-2-4-3.3-2-2.2-2-2.2 0-1.1 1.1.5 2.9 2 4 3.3zm-91.6-1.4c-.7 1-2.9 3.6-4.9 5.8a116.91 116.91 0 0 0-6 7.7c-2.2 3.4-4 4.8-4 3.2 0-1.2 14.7-18.4 15.8-18.4.2 0-.2.8-.9 1.7zm74.4 4c2.7 1.3 4.7 2.7 4.4 2.9-.3.3-2.4-.4-4.6-1.6-2.3-1.1-6.5-2.7-9.4-3.5l-5.2-1.5 5 .6c2.7.3 7.1 1.7 9.8 3.1zm-25.4-1.3c-.8.8-7.9 3.5-7.9 3 0-.6 6-3.3 7.4-3.4.5 0 .7.2.5.4zm-22.2 15.8c-6.3 6.2-13 13.7-14.7 16.6-1.8 2.9-3.5 5.1-3.8 4.8-1.1-1.2 9-14.3 15.4-20.1 17.9-16.1 18.5-16.3 3.1-1.3zm-33.5-2.5c-2.4 3.2-5.2 4.4-5.2 2.2 0-.5 1.2-2.5 2.7-4.3 2-2.6 2.9-3.1 3.8-2.2 1 .8.7 1.8-1.3 4.3zm-7.2 2.7c0 .3-.4.8-1 1.1-.5.3-1 .1-1-.4 0-.6.5-1.1 1-1.1.6 0 1 .2 1 .4zm-5 3c0 .2-.8 1-1.7 1.7-1.6 1.3-1.7 1.2-.4-.4s2.1-2.1 2.1-1.3zm109 3.4c0 1.5-.2 1.5-1 .2-1.3-2-1.3-3.3 0-2.5.6.3 1 1.4 1 2.3zm-105.1 4.8c-3.2 3.4-3.6 2.2-.8-2.3 1.9-3 2.4-3.4 2.7-2 .2 1.1-.6 3-1.9 4.3zm5.1-1c-1.8 2.1-2.4 1-.8-1.5.7-1.2 1.4-1.7 1.6-1.1s-.2 1.7-.8 2.6zm-10-.4c0 2.7-3 8.9-6.6 13.8-1.4 1.9-2.3 4.3-2 5.2.2 1 0 1.6-.4 1.3-.5-.3-1.4.3-1.9 1.4-.8 1.3-.8 2-.1 2.3.6.2.4 1.2-.5 2.3-1.4 1.7-1.6 1.7-1.1.2.3-.9.1-1.7-.5-1.7s-.8-.8-.5-1.8c.3-.9-.7-.2-2.4 1.7-5.7 6.6-4.4 1.1 2-8.4 1.4-2.2 4.8-7.3 7.5-11.3 5.1-7.6 6.5-8.7 6.5-5zm-14.4 3.6c-1.8 1.6-1.8 1.6-.6-.6.6-1.3 1.4-2.1 1.8-1.8.3.4-.2 1.4-1.2 2.4zM630 158c0 .5-.2 1-.4 1-.3 0-.8-.5-1.1-1-.3-.6-.1-1 .4-1 .6 0 1.1.4 1.1 1zm49 4.2c1.1 2.4 1.9 5.2 1.9 6.3-.1 2-2.9-3.3-4.4-8.3-1.1-3.7.5-2.5 2.5 2zm-65.2 3.9c1.1 2.1 1.6 3.9 1.1 3.9-1.1 0 .7 3.3 3.7 7.2 1.2 1.5 2.5 4.7 2.8 7.1.4 2.5 1.3 4.8 2 5 1.2.5 2.1 3.2 2.9 8.7.3 2-1.6 2.7-2.4.9-.3-.8-1.8-3.7-3.2-6.5-1.5-2.9-2.7-6-2.7-7s-1-2.8-2.2-4.1c-1.1-1.2-2.2-3.8-2.3-5.6-.1-1.9-.5-3.9-.8-4.4s-.8-2.1-1.1-3.5c-.2-1.5-.9-3.5-1.5-4.6-1.5-2.8-1.4-3.7.3-2.3.8.7 2.3 3 3.4 5.2zm-111-1.9c-.8 1.3-3.8 6-6.7 10.5-2.9 4.6-5.5 8.3-5.7 8.3-.8 0 6.3-12.3 10.3-17.8 2.7-3.6 4.3-4.4 2.1-1zm101.2 3.3c0 .9-.6 1.2-1.5.9-.8-.4-1.2-1-.9-1.5.8-1.4 2.4-1 2.4.6zm-30 .5c0 .5-.2 1-.4 1-.3 0-.8-.5-1.1-1-.3-.6-.1-1 .4-1 .6 0 1.1.4 1.1 1zm-38 8.7l-5.1 9.2c-1 1.9-2.4 4-3 4.5-1.1 1 .5-2.1 8-15.6 1.4-2.6 2.7-4.5 2.9-4.3s-1 3-2.8 6.2zm-36.8 4.5c-.7.7-1.2.8-1.2.2 0-1.4 1.2-2.6 1.9-1.9.2.3-.1 1.1-.7 1.7zm140.2-.7c.3.8.1 1.5-.4 1.5-.6 0-1-.7-1-1.5s.2-1.5.4-1.5.6.7 1 1.5zM539 188.7c-1.2 1.6-2.8 4.1-3.6 5.8-.7 1.6-1.8 3.7-2.2 4.5-.5.8-2.3 4.2-4 7.5-6.4 12.6-10.6 20.4-11 20-.5-.4 13.8-29.3 15.3-30.9.5-.6 1.9-2.7 2.9-4.6 1.7-3.1 3.4-4.9 4.4-5 .2 0-.6 1.2-1.8 2.7zm103.4 1.9c.3.8.2 1.2-.4.9s-1-1-1-1.6c0-1.4.7-1.1 1.4.7zm-117 4.4c-1.7 3.3-3.7 5.1-2.7 2.3.6-1.7 3.2-5.3 3.9-5.3.1 0-.4 1.3-1.2 3zm122.1 18.5l.4 6-1.3-6.5c-.7-3.6-1.6-7.9-2-9.5-.7-2.9-.6-2.8.9.5.9 1.8 1.8 6.1 2 9.5zm-18-.4c.1 2.6.5 5.1.8 5.6 1.7 2.7 3 54.2 1.5 56.5-.6 1-1.1.9-2.1-.4s-1.1-3.3-.4-8.9c.8-5.2.7-8-.2-10.5-.7-1.9-.9-4.4-.5-5.7 1-2.9.8-7.9-.5-15.3-.8-4.3-.8-7-.1-8.8.6-1.6.6-3.4.1-4.4-1.6-3.2-3.2-14-2.5-16.9l.7-2.8 1.5 3.5c.8 1.9 1.6 5.6 1.7 8.1zM474 208.4c0 .3-.4.8-1 1.1-.5.3-1 .1-1-.4 0-.6.5-1.1 1-1.1.6 0 1 .2 1 .4zm43 1.4c0 .5-.7 1.7-1.5 2.8-1.4 1.8-1.4 1.7-.4-.9 1.2-2.7 1.9-3.4 1.9-1.9zm-46.7 3.7c-.3.9-.8 1.4-1 1.1-.3-.3-.2-.9.2-1.5.9-1.6 1.5-1.3.8.4zm212.2.5c.9 1.4 3.4 19.6 3 21.8-.1.9.5 2.5 1.3 3.5 1.4 1.5 1.5 4.7 1.3 22l-.3 23.7c0 1.9-.2 2.6-.5 1.5s-.9-2.4-1.3-2.8c-.4-.5-.5-7.4-.2-15.3.4-12.3.3-14.6-1-15.7-1.2-.9-1.7-3.8-2.1-11-.2-5.4 0-10 .5-10.3.4-.3.6-.9.3-1.4-.2-.4-.9-3.6-1.4-7.1s-1.2-7.2-1.6-8.2c-.8-1.8.9-2.4 2-.7zm-206.1 6.7c-.7 2.1-2.2 5.6-3.3 7.8-1.2 2.1-2.1 5-2.1 6.2 0 1.3-.5 2.3-1.1 2.3-1.5 0-.5-3.9 3.3-12.8 3.3-7.5 5.5-10 3.2-3.5zm38.1 14c-1.8 3.8-3.6 8-4 9.5s-1.3 3.2-2 3.8c-1.5 1.3 5.4-16 7.4-18.4 2.3-2.7 2-1.8-1.4 5.1zm135.2 4.5c-.3.8-.6.5-.6-.6-.1-1.1.2-1.7.5-1.3.3.3.4 1.2.1 1.9zm32 1c-.3.8-.6.5-.6-.6-.1-1.1.2-1.7.5-1.3.3.3.4 1.2.1 1.9zm-31 9c-.3.8-.6.5-.6-.6-.1-1.1.2-1.7.5-1.3.3.3.4 1.2.1 1.9zM505.5 255c-.9 1.8-1.8 3-2.1 2.8-.2-.3.3-1.9 1.2-3.7s1.8-3 2.1-2.8c.2.3-.3 1.9-1.2 3.7zm-3.9 9.7c-1.4 2.6-2.5 4.5-2.6 4.1-.1-1.4 4.1-10.1 4.6-9.5.3.3-.6 2.7-2 5.4zm149.1 5c-.3 1-.5.4-.5-1.2 0-1.7.2-2.4.5-1.8.2.7.2 2.1 0 3zm-196.6 0c-.8 1.5-1 1.5-1.1.2 0-1.7 1-3.2 1.8-2.5.2.3-.1 1.3-.7 2.3zm41.7 8c-2.2 5.9-3.8 8.7-3.8 6.5 0-1.5 4.7-12.2 5.4-12.2.3 0-.4 2.6-1.6 5.7zm154.9 1.5c-.2 1.3-.4.5-.4-1.7-.1-2.2.1-3.2.4-2.3.2 1 .2 2.8 0 4zm-210.5-2c-.7.7-1.2.8-1.2.2 0-1.4 1.2-2.6 1.9-1.9.2.3-.1 1.1-.7 1.7zm11.2.3c-.4.8-.8 1.5-1 1.5s-.4-.7-.4-1.5.4-1.5 1-1.5c.5 0 .7.7.4 1.5zm65.6 2.9c0 .2-1.1 2.4-2.5 4.7-2.8 5-3.4 3.8-.8-1.6 1.4-2.9 3.3-4.7 3.3-3.1zm132.4 13.5c-.4 3.4-.9 6-1.1 5.7-.3-.3-.2-3.2.2-6.6s.9-5.9 1.2-5.7c.2.3.1 3.3-.3 6.6zM490.3 290c-.3 1.2-.8 1.9-1.1 1.6-.5-.6.5-3.6 1.2-3.6.2 0 .2.9-.1 2zm-40.9 1.9c.3.5-.3 2-1.3 3.2-1.8 2.2-2 2.2-2.6.6-1.1-2.7 2.5-6.2 3.9-3.8zm-3.2 9.3c-.7.7-1.2 2.5-1.2 4s-.4 2.8-1 2.8c-1.6 0-1.1-5.2.7-7.2.9-1 1.9-1.6 2.1-1.3.3.3 0 1.1-.6 1.7zm-9.1 8.4c-1.2 1.5-2.1 3.6-2.1 4.8 0 2.9-5.1 13.4-5.7 11.8-.3-.7 0-1.8.5-2.5s2.1-4.4 3.5-8.2c1.4-3.9 3.1-8.3 3.8-10 1.3-2.7 1.4-2.8 1.7-.7.2 1.2-.6 3.4-1.7 4.8zm64 6.7c-.8.8-1.1.7-1.1-.4 0-2 1.3-3.4 1.8-1.9.3.7-.1 1.7-.7 2.3zm-72 2.8l-1 2.4v-2.6c-.1-1.4.2-2.9.6-3.3 1.2-1.2 1.4.9.4 3.5zm217.6 1.6c-.3 1-.5.4-.5-1.2 0-1.7.2-2.4.5-1.8.2.7.2 2.1 0 3zm-210.5.8c-.4 2.6-2.2 4.5-2.2 2.5 0-1.2 1.8-5 2.4-5 .2 0 .1 1.1-.2 2.5zm207 27.2c-.3 1.6-.7 2.2-1 1.5-.4-1.3.4-4.2 1.1-4.2.2 0 .2 1.2-.1 2.7zm-20.8 4.5c-.7 2.3-1.5 9.4-1.5 13 0 1.5-.4 3-.9 3.3-.6.4-1 1.7-1 3s-.5 2.7-1 3c-.6.3-.7 1.7-.4 3 .3 1.2.1 2.5-.4 2.9-1.5.9-2.1-4.4-1.1-9.9 1.5-8.4 1.7-9.8 2.6-16 1.1-7.6 2.3-9.8 3.5-6.5.5 1.2.6 3.1.2 4.2zm19.3 4c-.3.8-.6.5-.6-.6-.1-1.1.2-1.7.5-1.3.3.3.4 1.2.1 1.9zm-1.2 10c-.4 4.6-1.1 10.2-1.6 12.6s-1.1 6.4-1.4 8.9c-.2 2.5-.6 4.8-.9 5.1-1 1-.6-4.4.8-11.9.8-4.1 1.8-10.9 2.1-15.2.4-4.2.9-7.7 1.2-7.7s.2 3.7-.2 8.2zm5.2 0c-.3.8-.6.5-.6-.6-.1-1.1.2-1.7.5-1.3.3.3.4 1.2.1 1.9zm-10 35c-.3.7-.5.2-.5-1.2s.2-1.9.5-1.3c.2.7.2 1.9 0 2.5zm-.8 4.6c-.2 1.5 0 3.3.4 4 .5.6.4 1.2 0 1.2-1.2 0-4.2 12.3-4.8 19.2-.4 6.2-2.4 11.6-2.5 6.8 0-3 6.1-34 6.7-34 .3 0 .3 1.2.2 2.8zm-173.4 21.9c-.4 1-1.2 3-1.7 4.5-1 2.7-2.8 3.8-2.8 1.8 0-2.2 3-8 4.1-8 .7 0 .8.7.4 1.7zm174.2 2.5c-.3.8-.6.5-.6-.6-.1-1.1.2-1.7.5-1.3.3.3.4 1.2.1 1.9zm-39.6 13.5c-1.6 3.4-2.2 2.5-1.4-2.1.5-3.1.8-3.5 1.6-2.1.6 1.1.5 2.6-.2 4.2zm31.1 4.5c-.6.6-.8.1-.7-1.4.4-3.9.8-4.4 1.2-1.9.3 1.3 0 2.8-.5 3.3zm-2.2 8.4c-1.6 4.9-2.1 3.8-.8-1.6.6-2.4 1.3-3.9 1.6-3.2.2.6-.2 2.8-.8 4.8zm6.3-2.1c-.3.9-.8 1.4-1 1.1-.3-.3-.2-.9.2-1.5.9-1.6 1.5-1.3.8.4zm-.6 4.7c-.3.8-.6.5-.6-.6-.1-1.1.2-1.7.5-1.3.3.3.4 1.2.1 1.9zm-30.6 4.5c-.9 1.6-1 1.6-1.1.1 0-.9.3-2.5.7-3.5.7-1.6.8-1.7 1.1-.1.2 1-.1 2.5-.7 3.5zm29.9-.2c0 .8-.4 1.5-1 1.5-.5 0-.7-.7-.4-1.5.4-.8.8-1.5 1-1.5s.4.7.4 1.5zm-8.2 6c-.1 2.8-.5 4.2-1 3.7-.8-.8-.1-8.2.7-8.2.2 0 .3 2 .3 4.5zm7.2-1.1c0 .3-.4.8-1 1.1-.5.3-1 .1-1-.4 0-.6.5-1.1 1-1.1.6 0 1 .2 1 .4zm-232.7 4.2c-.4 5.6-1.4 9.4-2.4 8.9-1-.7-1.2-8.4-.3-11 1-2.5 2.9-1.1 2.7 2.1zm223.9 5.6c-.9.9-1.2.7-1.2-1.2s.3-2.1 1.2-1.2.9 1.5 0 2.4zm4.9 4.4c-.5 1.6-1 2.1-1 1.2-.1-1.8 1-5.1 1.5-4.5.2.1-.1 1.6-.5 3.3zm-230.4 3.6c-.3.7-.5.2-.5-1.2s.2-1.9.5-1.3c.2.7.2 1.9 0 2.5zm229 2c-.3.8-.6.5-.6-.6-.1-1.1.2-1.7.5-1.3.3.3.4 1.2.1 1.9zm-218.4 7c-.9 9.7-2 11.3-2.1 2.9-.1-7.5.2-9.1 1.8-9.1.4 0 .6 2.8.3 6.2zm216.9-2c-.7.7-1.2.8-1.2.2 0-1.4 1.2-2.6 1.9-1.9.2.3-.1 1.1-.7 1.7zm-208.1 12.3l-.8 8-.2-7c0-3.9.2-8.1.6-9.5 1.2-4.1 1.4-.1.4 8.5zm201.1-6c-.9 1.9-1.7 3.3-1.9 3.2-.6-.6 2.1-7.6 2.7-7.2.4.3.1 2-.8 4zm2.5 10.7c-.3.7-.5.2-.5-1.2s.2-1.9.5-1.3c.2.7.2 1.9 0 2.5zm-5.8.5c0 .5-.4 1.7-.9 2.8-.8 1.8-.9 1.7-.9-.8-.1-1.5.4-2.7.9-2.7.6 0 1 .3.9.7zm-2.5 8.7c-.3 1.4-1 2.6-1.5 2.6s-.6-.7-.4-1.5c.3-.8.7-2.2 1-3.1.9-2.7 1.7-.9.9 2zM415 525.7c0 2.4-.4 4.3-.9 4.3-1.1 0-2.4-8.6-1.5-10.1 1.1-1.9 2.4 1.2 2.4 5.8zm201-4.7c0 .5-.4 1-1 1a1.08 1.08 0 0 1-1-1c0-.6.5-1 1-1a.94.94 0 0 1 1 1zm-10.1 9.6c-1.2 3.2-2.5 5.2-2.7 4.5-.5-1.4 3.8-11.4 4.6-10.6.3.2-.6 3-1.9 6.1zm4.3 8.4c-.2 1.6-1 3-1.8 3-1 0-1.1-.6-.3-3 .6-1.7 1.4-3 1.8-3s.6 1.3.3 3zm-7.2-.5c0 .2-.9 2.8-2.1 5.7s-2.5 6.4-3 7.7-1.2 2.2-1.4 1.9c-.5-.5 2.7-9.3 3.8-10.4.4-.4.7-1.8.7-3.1s.5-2.3 1-2.3c.6 0 1 .2 1 .5zm4.3 6c-.3.9-.8 1.4-1 1.1-.3-.3-.2-.9.2-1.5.9-1.6 1.5-1.3.8.4zm-4.6 12.5c-2.2 5.3-4.1 6.9-2.7 2.2 1.7-5.6 3-8.3 3.9-7.8.5.4 0 2.9-1.2 5.6zm-176.8 4c0 .8-.6.4-1.3-1-.8-1.4-1.2-2.9-.8-3.4.6-1 2 2 2.1 4.4zm169.2-2.7c-1 .9-1.1.8-.5-.6.3-1 .9-1.5 1.2-1.2s0 1.1-.7 1.8zm-.1 2.1c0 .3-.4.8-1 1.1-.5.3-1 .1-1-.4 0-.6.5-1.1 1-1.1.6 0 1 .2 1 .4zm-2.9 5.7c-.5 1.3-1 1.9-1 1.2-.1-1.5 1-4.5 1.5-4 .3.2 0 1.5-.5 2.8zm5.9 1.9c-.5 1.6-.6 3-.3 3s-.1.8-1 1.7c-.8 1-2.1 3.9-2.7 6.5-.7 2.8-1.8 4.8-2.6 4.8s-1.1.6-.8 1.5c.4.9 0 1.5-.9 1.5-1.2 0-.8-1.8 2.2-8.3 2.1-4.5 4.3-9.4 4.9-11 1.5-3.6 2.3-3.5 1.2.3zm-7.7 2.5c-.3.9-.8 1.4-1 1.1-.3-.3-.2-.9.2-1.5.9-1.6 1.5-1.3.8.4zm-3.2 6.2c-.8 1.5-1 1.5-1.1.2 0-1.7 1-3.2 1.8-2.5.2.3-.1 1.3-.7 2.3zm-1.8 5c-1 2.9-1.4 3.4-2.3 2.8-.5-.3-.2-1.5.8-2.5 2-2.5 2.3-2.5 1.5-.3zm-4.8 9.1c-1.5 1.6-1.6 1.5-.4-1.2.7-1.5 1.5-2.3 1.7-1.6.3.7-.3 1.9-1.3 2.8zm5.9 4c-.4.9-.6 2.1-.5 2.5 0 .4-.6 1-1.4 1.3s-1.2 1-.9 1.5 0 .9-.5.9c-.6 0-1.1.6-1.1 1.2-.1 1.9-6 9.4-6 7.6 0-.9.6-2 1.3-2.6s3-4.7 5.2-9.2c2.3-4.7 4.1-7.5 4.3-6.6.2 1 0 2.5-.4 3.4zm-8.8 1.8c-.4.9-.9 1.5-1.1 1.2-.3-.3-.3-1.3.1-2.2s.9-1.5 1.1-1.2c.3.3.3 1.3-.1 2.2zm-1.6 3.9c0 .2-1.1 2.1-2.5 4.1-2.9 4.3-3.2 3.9-.8-1.1 1.4-2.9 3.3-4.7 3.3-3zm-127 16.6c0 1.8-1.8.9-2.3-1.2-.4-1.6-.3-1.8.9-.8.8.6 1.4 1.5 1.4 2zm117-1.1c0 .5-.5 1-1.1 1-.5 0-.7-.5-.4-1 .3-.6.8-1 1.1-1 .2 0 .4.4.4 1zm.5 10.7l-9 11c-4.6 5.4-4.5 6.6.2 2.2 3.6-3.3 3.6-3.3 1.6-.4-1.2 1.6-3.6 4.3-5.4 6-2.6 2.4-2.9 2.6-1.6.6.8-1.3 1.4-2.8 1.1-3.5-.2-.6 1.3-3.2 3.3-5.7 2.1-2.5 5.9-7.4 8.5-10.7 2.7-3.4 5.3-6.2 5.8-6.2.6 0-1.5 3-4.5 6.7zm-98.4-1.5c1.1 2.1 1.1 2.2-.4.9-1-.7-1.7-1.7-1.7-2.2 0-1.5.9-1 2.1 1.3zm-15.3 2.3c-.3.3-.9-.2-1.2-1.2-.6-1.4-.5-1.5.5-.6.7.7 1 1.5.7 1.8zm5.2 3.4c1.2 2.4 1.3 3.1.1 3.1s-4.1-2.9-4.1-4.1c0-1.7 2.9-.9 4 1zm86.3 23.5c-5.5 6-18.8 14.1-25.1 15.2-1.4.3-3.6 1.1-5.1 1.8-3.6 1.9-10.5 3-9.6 1.7.3-.6 1.6-1.1 2.8-1.1 1.3 0 3.1-.6 4.2-1.4 1.1-.7 3.8-1.9 6-2.6 7.4-2.3 19.6-10 27.5-17.3.8-.8 1.9-1.2 2.3-1 .4.3-.9 2.4-3 4.7zm-44.5 20.3c-1 .2-2.6.2-3.5 0-1-.3-.2-.5 1.7-.5s2.7.2 1.8.5zm95-576c.6.2 1.8.2 2.5 0 .6-.3.1-.5-1.3-.5s-1.9.2-1.2.5zm-68 40.8c-2.5 3.4-2.2 4.3.3 1.1 1.2-1.5 2-2.9 1.8-3.1-.2-.1-1.2.7-2.1 2zM386 161.9c0 2.5.6 2.7 1.3.6.4-.8.2-1.7-.3-2-.6-.4-1 .3-1 1.4z"/><use xlink:href="#D" x="433" y="-289"/><path d="M578 174.4c0 .2.7.9 1.5 1.6.9.7 1.5.8 1.5.2 0-.5-.7-1.2-1.5-1.6-.8-.3-1.5-.4-1.5-.2zm24.5 4.6c.3.5.8 1 1.1 1 .2 0 .4-.5.4-1 0-.6-.5-1-1.1-1-.5 0-.7.4-.4 1zm-38.1 9.5c-.9 1.4-1.4 2.8-1.1 3.1s1.3-.8 2.2-2.5c1.9-3.7 1.2-4.1-1.1-.6zm128.1 6.7c1.7 7.9 3.9 10.4 3 3.3-.9-6.9-1.4-8.2-2.9-8.8-1.1-.4-1.1.5-.1 5.5zm-83.2 1.8c.4 1.4.7 3.5.7 4.8s.4 2.1.9 1.8c.9-.6-.2-7.3-1.5-8.4-.4-.4-.4.4-.1 1.8z"/><use xlink:href="#D" x="394" y="-265"/><path d="M555.9 204.7c-2.2 4.6-2.2 5 .1 1.5 1.3-1.8 2-3.5 1.8-3.7-.3-.3-1.1.7-1.9 2.2zm58.1-1.5c0 .9.5 2 1 2.3 1.3.8 1.3-.5 0-2.5-.8-1.3-1-1.3-1 .2zm3.6 2.6c-.3.5-.1 2.2.4 3.8.8 2.9.8 2.9.9-.9.1-3.6-.3-4.5-1.3-2.9zm2.3 10.7c-1 2-1 11.5 0 11.5.6 0 1.1.8 1.2 1.7 0 1 .5.4 1-1.2.8-3-1.2-14-2.2-12zm-65.8 3.2c0 .6-.4 2-.7 3-.5 1.4-.4 1.5.5.7.7-.7 1.1-2 .8-3-.3-1.1-.5-1.4-.6-.7zm59.6 9.4c.4 1.3.8 1.8 1.1 1 .2-.7-.1-1.8-.6-2.3-.8-.8-.9-.4-.5 1.3zm2.8 3.8c-.3.5-.1 1.2.5 1.6.5.3 1-.1 1-.9 0-1.8-.6-2.1-1.5-.7zm3.1 1.3c-.9 3.4-.8 3.8.9 3.8.8 0 1.5.7 1.5 1.6 0 .8.4 1.3.8 1 1.2-.7 0-7.8-1.4-8.3-.6-.2-1.4.6-1.8 1.9zM544 242c-.6 1.2-.9 2.4-.7 2.7.3.2 1.1-.5 1.7-1.7s.9-2.4.7-2.7c-.3-.2-1.1.5-1.7 1.7zm151.8 2.6c-.3.5 0 2.5.5 4.4.8 2.7 1.2 3 1.4 1.5.4-2.4-1.1-7.3-1.9-5.9z"/><use xlink:href="#E"/><path d="M534 262.5l-2.6 6.2c-.7 1.8-1.2 3.3-.9 3.3.9 0 5.6-10.2 5.2-11.3-.2-.7-1 .1-1.7 1.8zm87.7 1.1c-1.2 1.3-.8 5.5.8 7 1.3 1.4 1.5 1.3 1.4-.8-.2-3.6-1.3-7-2.2-6.2zM697 275c0 2.2.3 4 .8 4 .4 0 .6-1.8.4-4s-.6-4-.8-4-.4 1.8-.4 4z"/><use xlink:href="#B" x="332" y="72"/><path d="M617.6 276.8c-.3.5-.1 2.2.4 3.8.8 2.9.8 2.9.9-.9.1-3.6-.3-4.5-1.3-2.9z"/><use xlink:href="#F"/><path d="M620.8 290.2c-.3.7-.3 3.3 0 5.7.5 5.4 2.2 3.5 2.2-2.7 0-4-1.3-5.7-2.2-3z"/><use xlink:href="#F" x="220" y="16"/><path d="M510.6 313.6c-.9 2.3-.7 3.6.3 3 1.2-.8 2.1-4.6 1.1-4.6-.4 0-1.1.7-1.4 1.6zm-93.3 3.9c-1.6 3.3-1.6 3.7-.1 5.2 1.6 1.5 1.7 1.4 2.4-1 .3-1.5 1.3-2.7 2.1-2.7 1 0 1.3-.6.9-1.6-.3-.9-.6-2-.6-2.5 0-2.3-3.2-.5-4.7 2.6zm-.3 8.9c0 .7-.9 3.4-2.1 6-1.1 2.6-1.8 5.2-1.6 5.9.6 1.6 3.9-6 4.4-10.1.2-1.7.1-3.2-.2-3.2s-.5.6-.5 1.4zm192.6 5.8c-.9 3.4-.7 5 .4 4.3 1.3-.8 1.3 1.1.1 3.4-.5.9-.6 2.3-.2 3 .9 1.4 2.6-5.9 2.2-9.4-.4-3.1-1.8-3.9-2.5-1.3z"/><use xlink:href="#C" x="337" y="99"/><path d="M610.1 364c0 1.4.4 3.2.9 4 .9 1.3 1 1.3.9 0-.1-.8-.5-2.6-.9-4l-.8-2.5-.1 2.5zm-122.6 2c-.4 1.2-.5 2.4-.2 2.7.3.2.8-.5 1.2-1.7s.5-2.4.2-2.7c-.3-.2-.8.5-1.2 1.7z"/><use xlink:href="#E" x="66" y="113"/><use xlink:href="#C" x="133" y="123"/><path d="M402.7 386c-.3 1.1-.1 2 .4 2s.9-.9.9-2-.2-2-.4-2-.6.9-.9 2zm192.9 20c-.3 1.8-.4 3.5-.1 3.8s.5 0 .5-.6c0-2.2 1.9-1.2 2.2 1s.4 2.1.9-.3c.4-1.7 0-3.5-1.1-4.9l-1.7-2.3-.7 3.3zm-372 23.5c-.9 2.6-.7 3.2.5 1.2.6-1 .9-2.1.6-2.3-.2-.3-.7.2-1.1 1.1zm366.1.7c-.8 2.8-.9 7.3-.2 6.6 1.2-1.2 2.2-6.6 1.5-7.8-.5-.8-.9-.4-1.3 1.2zm-3.7 15.9c0 1.8.3 2.9.7 2.5 1-1 1.1-4.6.1-5.2-.4-.3-.8.9-.8 2.7zm-260 .9c0 .5.4 1 .9 1 .6 0 1.3-.5 1.6-1 .3-.6-.1-1-.9-1-.9 0-1.6.4-1.6 1zm-201.5 4.1c-5.5 4.1-6.7 5.6-2.7 3.3 2.9-1.7 8.3-6.4 7.1-6.4-.2 0-2.2 1.4-4.4 3.1zm188.9-2.2c.4.5 0 1.1-.6 1.4-.9.3-.7.7.5 1.2 1 .4 2 .5 2.3.3.7-.8-.7-3.8-1.8-3.8-.5 0-.7.4-.4.9zm.9 4.8c-1.1.4-1.1 1.1.3 5 .4 1 .6 3.2.5 4.9-.3 4.2 1.5 5.2 2.3 1.3.6-3.2-.2-10.7-1.3-11.3-.3-.2-1.1-.1-1.8.1zm19.2.3c-.4.6.5 1 2 1s2.4-.4 2-1c-.3-.6-1.2-1-2-1s-1.7.4-2 1zM215 456a1.08 1.08 0 0 0 1 1c.6 0 1-.5 1-1a.94.94 0 0 0-1-1c-.5 0-1 .4-1 1zm120.2.7c-1 .4-1 .8-.1 1.9 1.6 2 2.9 1.7 2.9-.6 0-2-.5-2.3-2.8-1.3zm-5.7 9.3c.3.5 1.1 1 1.6 1 .6 0 .7-.5.4-1-.3-.6-1.1-1-1.6-1-.6 0-.7.4-.4 1zm-219.8 2.8c-1.6 1.7-1.6 1.9.1 1.7 2.5-.1 4.3-1.5 3.7-2.6-.9-1.4-2-1.1-3.8.9zm34.8 1.2c-.8 1.3.5 1.3 2.5 0 1.3-.8 1.3-1-.2-1-.9 0-2 .4-2.3 1zm171 6c.4.6 1.1.8 1.6.5 1.4-.9 1.1-1.5-.7-1.5-.8 0-1.2.5-.9 1zm1 6.2c.9 2.9 1.1 3.1 2.4 2.3 1.7-1 1.3-2.3-1-3.6-1.9-1-2-.9-1.4 1.3zm72.7 24.9l-.8 7.5c-.4 3.8-.3 4.5.6 3.1.6-.9.9-4.3.7-7.5-.2-3.1-.4-4.5-.5-3.1zm173.5 17.6c-.4.3-.7 1.1-.7 1.7s.5.5 1.2-.2c.6-.6.9-1.4.7-1.7-.3-.3-.9-.2-1.2.2zM314 526.6c0 .8.5 1.2 1 .9.6-.4.8-1.1.5-1.6-.9-1.4-1.5-1.1-1.5.7z"/><use xlink:href="#B" x="98" y="324"/><path d="M435.3 543.5c0 2.7.2 3.8.4 2.2.2-1.5.2-3.7 0-5-.2-1.2-.4 0-.4 2.8zm118.3 3c-.3.9-.6 2.2-.5 2.8 0 .7.5.1 1-1.2s.8-2.6.5-2.8c-.2-.2-.6.3-1 1.2zm-139.9 5.4c-.2 1 .2 2.9.9 4.2 1.3 2.3 1.3 2.3 1.4-1.3 0-4-1.5-5.9-2.3-2.9zm21.3.6c0 1.4.2 2.5.4 2.5s.6-1.1.8-2.5c.3-1.4.1-2.5-.3-2.5-.5 0-.9 1.1-.9 2.5z"/><use xlink:href="#B" x="117" y="350"/><path d="M190.7 563.3c-1.1 2.9-.9 4.3.4 3 .6-.6.9-1.9.7-2.9-.3-1.8-.4-1.8-1.1-.1z"/><use xlink:href="#C" x="162" y="306"/><path d="M546.1 568.8c-.7 1.4-.6 1.8.9 1.8 1 0 2.1-.8 2.3-1.8.3-1.1 0-1.8-.9-1.8-.7 0-1.8.8-2.3 1.8z"/><use xlink:href="#E" x="-209" y="331"/><path d="M538.1 583.4c-.8 1-.9 1.6-.1 2.1.5.3 1.3-.1 1.6-1 .9-2.2-.1-2.9-1.5-1.1zm-358.5 3.1c-.3.9-.6 2.2-.5 2.8 0 .7.5.1 1-1.2s.8-2.6.5-2.8c-.2-.2-.6.3-1 1.2zm259.9 10.2l1.8 6.7c1 4.5 1.2 4.7 1.8 2.2.8-2.8-1.7-10.6-3.4-10.6-.5 0-.6.8-.2 1.7z"/><use xlink:href="#C" x="-96" y="345"/><path d="M173.8 608.2c-.9 3.5-1.5 6.5-1.3 6.7.6.5 3.7-10.8 3.3-12-.2-.5-1.1 1.9-2 5.3zm158.7-5.2c.3.5 1 1 1.6 1 .5 0 .9-.5.9-1 0-.6-.7-1-1.6-1-.8 0-1.2.4-.9 1zm-165 7c-.3.5-.1 1 .4 1 .6 0 1.1-.5 1.1-1 0-.6-.2-1-.4-1-.3 0-.8.4-1.1 1zm-1.4 5.5c-.6 2.2-1.1 5.3-1.1 6.8 0 1.6-.5 3.7-1 4.8-.8 1.5-.7 1.9.4 1.9.8 0 1.7 1 1.9 2.2.3 1.6.4 1.5.2-.4-.1-1.5.2-2.9.6-3 .3-.2.9-2.3 1.2-4.8l.6-4.5-1.3 4.5c-1.3 4-1.4 4.2-1.5 1.5 0-1.7.4-4.7 1-6.8s.8-4.4.6-5c-.2-.7-.9.6-1.6 2.8zm4.2 10c-.3.9-.3 1.8-.1 2.1.3.3.8-.4 1.1-1.6.6-2.3-.1-2.7-1-.5zm299.4 7.6c1.2 1.2 2.4 2.1 2.7 1.8.2-.2-.8-1.3-2.2-2.3l-2.7-1.9 2.2 2.4z"/><use xlink:href="#C" x="-110" y="382"/><use xlink:href="#C" x="-106" y="382"/><path d="M167 643.8c0 1.2-.4 2.2-.9 2.2s-1.4 1.3-2 3c-.8 2.3-.7 3 .3 3 1.4 0 4.3-8.6 3.2-9.7-.3-.3-.6.3-.6 1.5zm315-.3c0 .8.9 1.5 2 1.5s2-.2 2-.5c0-.2-.9-.9-2-1.5-1.6-.9-2-.8-2 .5zm-320.1 17.2c-1.3 1.6-1.2 1.7.4.4s2.1-2.1 1.3-2.1c-.2 0-1 .8-1.7 1.7zm-1.2 3.5c-1.9 5-1.9 5.4-.2 3.7.9-.9 1.5-2.5 1.3-3.5-.5-1.8-.5-1.8-1.1-.2z"/><use xlink:href="#C" x="-118" y="408"/><use xlink:href="#F" x="-55" y="389"/><path d="M98.3 685.6c-1.6 5-1.7 11.8-.3 10.9.6-.4.8-1 .5-1.5s-.1-2.7.6-4.8c.6-2.1.9-4.9.7-6.2-.2-2.1-.5-1.9-1.5 1.6zm2.7 5.4c0 1.9.3 2.1 1.2 1.2s.9-1.5 0-2.4-1.2-.7-1.2 1.2z"/><use xlink:href="#B" x="-195" y="498"/><path d="M94.4 712.1c-.3.6-.1 1.6.5 2.2.8.8 1.1.5 1.1-1.1 0-2.4-.5-2.8-1.6-1.1zm-1.8 19.4c.8 3.7 1.4 4.5 1.4 1.9 0-1-.5-2.6-1-3.4-.8-1.1-.9-.7-.4 1.5z"/><defs ><path id="B" d="M291.2 203c0 1.4.2 1.9.5 1.2.2-.6.2-1.8 0-2.5-.3-.6-.5-.1-.5 1.3z"/><path id="C" d="M274.1 257.6c0 1.1.3 1.4.6.6.3-.7.2-1.6-.1-1.9-.3-.4-.6.2-.5 1.3z"/><path id="D" d="M165.6 462.7c-.6 1.4-.5 1.5.5.6.7-.7 1-1.5.7-1.8s-.9.2-1.2 1.2z"/><path id="E" d="M621.2 254c0 1.9.2 2.7.5 1.7.2-.9.2-2.5 0-3.5-.3-.9-.5-.1-.5 1.8z"/><path id="F" d="M210.1 279.7c-.1.6-.4 2-.7 3-.5 1.7-.5 1.7.6 0 .6-1 .9-2.3.6-3-.3-.9-.5-.9-.5 0z"/></defs></svg>