<?xml version="1.0" standalone="no"?>
<!DOCTYPE svg PUBLIC "-//W3C//DTD SVG 20010904//EN"
 "http://www.w3.org/TR/2001/REC-SVG-20010904/DTD/svg10.dtd">
<svg version="1.0" xmlns="http://www.w3.org/2000/svg"
 width="800.000000pt" height="800.000000pt" viewBox="0 0 800.000000 800.000000"
 preserveAspectRatio="xMidYMid meet">

<g transform="translate(0.000000,800.000000) scale(0.100000,-0.100000)"
fill="#000000" stroke="none">
<path d="M3253 7547 c-19 -25 -43 -25 -43 -1 0 8 -5 14 -11 14 -5 0 -7 -5 -3
-11 4 -8 1 -8 -13 -1 -16 9 -25 5 -51 -19 -17 -16 -35 -29 -41 -29 -6 0 -31
-20 -57 -45 -25 -25 -41 -45 -35 -45 17 0 13 -14 -10 -39 -23 -24 -74 -137
-133 -296 -21 -55 -44 -113 -51 -130 -7 -16 -19 -50 -26 -75 -7 -25 -23 -62
-36 -82 -12 -20 -25 -49 -29 -65 -4 -15 -18 -40 -32 -55 -14 -16 -23 -28 -19
-28 3 0 -10 -24 -29 -52 -19 -29 -34 -58 -34 -65 0 -12 -30 -86 -51 -125 -5
-10 -9 -22 -9 -28 0 -5 -9 -19 -21 -31 -13 -13 -18 -27 -14 -40 4 -11 2 -19
-4 -19 -6 0 -11 -7 -11 -15 0 -8 -4 -15 -8 -15 -12 0 -32 -46 -32 -71 0 -11
-11 -37 -25 -59 -14 -23 -28 -55 -32 -73 -3 -18 -12 -39 -19 -47 -7 -8 -13
-19 -13 -25 0 -18 -44 -149 -72 -210 -92 -207 -146 -384 -155 -509 -2 -32 -15
-90 -29 -128 -14 -38 -28 -94 -31 -124 -5 -39 -22 -81 -60 -150 -29 -52 -59
-116 -68 -142 -29 -88 -56 -190 -56 -211 0 -32 -27 -125 -48 -167 -11 -22 -23
-55 -26 -74 -3 -19 -12 -55 -21 -80 -9 -25 -17 -58 -19 -75 -1 -16 -9 -55 -18
-85 -9 -30 -22 -82 -28 -115 -19 -94 -22 -98 -88 -118 -33 -11 -68 -27 -78
-38 -9 -10 -23 -19 -29 -19 -7 0 -18 -7 -26 -16 -7 -8 -30 -25 -52 -36 -52
-26 -119 -88 -113 -105 3 -7 -4 -19 -15 -27 -20 -13 -20 -15 -2 -25 17 -10 17
-12 0 -22 -9 -5 -15 -14 -12 -20 4 -5 -3 -9 -15 -9 -11 0 -23 -7 -27 -15 -8
-23 4 -30 24 -13 22 19 56 32 48 18 -9 -15 -64 -42 -74 -36 -12 8 -61 -8 -61
-19 0 -13 22 -14 39 -1 11 8 13 8 8 -1 -8 -13 -67 -45 -66 -35 4 29 -5 30 -32
3 -17 -17 -27 -35 -24 -41 4 -6 11 -8 16 -5 16 11 10 -3 -15 -29 -23 -26 -43
-36 -31 -16 3 5 0 8 -7 5 -7 -3 -13 -16 -13 -29 0 -14 5 -22 12 -19 12 5 11
-26 -2 -46 -5 -10 50 -27 72 -22 19 3 16 -10 -9 -36 -18 -19 -19 -25 -8 -36
10 -10 12 -9 7 5 -4 11 0 19 11 22 9 3 29 17 44 31 23 21 68 45 88 47 3 0 17
9 32 19 14 10 30 19 35 19 15 0 63 47 63 62 0 17 51 32 60 18 3 -5 12 -3 21 3
13 10 14 14 3 25 -8 7 -15 8 -19 2 -3 -6 -1 -10 6 -10 7 0 10 -3 6 -6 -3 -3
-11 -3 -17 1 -8 5 -8 11 1 21 15 18 24 18 43 -2 17 -17 21 -8 7 16 -13 20 -2
34 15 19 12 -10 13 -9 8 5 -4 11 1 19 17 25 13 5 25 7 27 6 2 -1 -6 -20 -17
-41 -11 -22 -21 -55 -22 -74 -2 -19 -6 -39 -9 -45 -4 -5 -7 -17 -8 -25 0 -8
-10 -40 -22 -70 -12 -30 -24 -65 -27 -78 -3 -12 -9 -25 -14 -28 -5 -3 -9 -14
-9 -25 0 -11 4 -17 10 -14 15 9 12 -1 -15 -55 -14 -27 -25 -56 -25 -65 0 -9
-12 -28 -27 -42 -18 -17 -24 -27 -16 -30 14 -5 2 -35 -24 -61 -7 -7 -14 -19
-14 -25 -1 -7 -3 -21 -4 -32 -1 -11 -22 -58 -45 -105 -40 -80 -54 -111 -78
-170 -5 -14 -22 -53 -36 -87 -15 -34 -33 -95 -41 -135 -21 -106 -70 -290 -83
-315 -7 -12 -12 -40 -12 -62 0 -22 -11 -69 -24 -104 -19 -51 -24 -80 -22 -143
2 -44 -1 -89 -5 -102 -5 -12 -5 -22 0 -22 5 0 17 22 26 50 9 27 18 50 20 50 7
0 -6 -95 -14 -103 -10 -10 -2 -47 9 -47 5 0 15 -3 23 -6 9 -3 22 8 36 31 12
22 26 33 32 29 8 -4 4 -13 -12 -25 -15 -11 -19 -19 -10 -19 12 0 11 -3 -1 -17
-17 -20 -24 -98 -8 -88 6 3 10 -1 10 -10 0 -9 -9 -19 -19 -22 -11 -3 -22 -15
-25 -26 -9 -33 -7 -87 2 -87 15 0 42 36 42 56 0 35 12 64 26 64 8 0 14 8 14
18 0 19 23 88 32 97 10 10 -20 -133 -33 -157 -7 -13 -12 -35 -11 -51 2 -17 -4
-30 -13 -33 -8 -3 -12 -10 -9 -15 2 -5 -2 -21 -10 -36 -16 -30 -19 -26 -17 22
1 26 -1 27 -8 10 -5 -11 -13 -33 -17 -50 -4 -17 -9 -24 -12 -16 -2 8 -10 -2
-18 -24 -7 -20 -10 -43 -8 -49 7 -19 39 -16 52 5 7 11 8 19 2 19 -5 0 -10 7
-10 15 0 16 16 20 24 6 8 -12 -12 -113 -24 -125 -6 -6 -13 1 -20 18 -17 45
-35 26 -36 -37 0 -31 -6 -62 -12 -70 -7 -7 -11 -49 -11 -98 0 -47 -2 -99 -6
-115 l-6 -29 16 30 c15 30 15 29 9 -27 -3 -31 -1 -59 4 -62 11 -7 22 40 22 93
0 20 6 56 14 81 7 25 14 67 14 94 1 27 4 51 7 54 5 5 10 -70 6 -98 -1 -8 -7
-49 -12 -90 -14 -105 -19 -201 -9 -195 5 3 11 19 15 36 4 17 13 33 21 36 8 3
14 19 14 37 0 17 5 38 10 46 8 12 10 12 10 -5 0 -11 -5 -37 -11 -58 -6 -22 -7
-46 -3 -55 4 -10 8 -19 8 -22 1 -3 5 -11 9 -18 5 -7 5 -21 2 -32 -9 -27 8 -25
20 2 13 29 35 35 35 9 0 -39 20 -26 78 47 34 43 43 50 49 37 3 -10 1 -32 -5
-49 -16 -43 -15 -62 4 -102 17 -36 27 -36 45 -2 7 12 7 18 1 14 -17 -10 -20
17 -6 64 7 25 12 59 12 75 -1 105 77 419 90 362 2 -10 -4 -29 -12 -42 -9 -14
-14 -25 -10 -25 4 0 1 -7 -6 -15 -10 -12 -10 -19 -2 -27 8 -8 13 -3 17 18 4
16 10 38 15 49 9 19 23 73 56 210 8 33 19 68 25 77 5 10 9 29 9 43 0 15 4 24
8 21 5 -3 9 0 9 7 0 7 3 23 7 37 7 23 6 23 -13 -4 l-20 -30 -11 29 c-10 27 -9
47 6 92 6 16 5 16 -10 -2 -12 -14 -16 -15 -13 -4 3 8 13 44 22 80 20 71 42
107 30 49 -6 -33 -6 -34 9 -14 8 11 18 33 21 47 4 15 11 25 15 22 4 -3 10 5
14 18 10 36 7 42 -10 21 -15 -19 -16 -19 -9 1 13 37 16 67 7 61 -5 -3 -12 -20
-16 -37 -3 -18 -9 -29 -12 -26 -4 3 -3 22 0 40 4 24 13 37 27 40 13 4 18 10
14 17 -6 9 -10 9 -16 -1 -15 -25 -17 -4 -4 41 7 25 18 74 24 110 12 75 13 78
29 107 7 12 10 28 7 35 -3 7 1 22 9 33 15 20 15 20 10 0 -3 -11 -1 -45 4 -75
6 -30 10 -43 11 -27 0 15 5 35 10 45 5 9 17 53 26 97 10 44 23 87 30 95 13 14
21 39 30 86 6 30 6 30 14 10 7 -19 8 -19 13 2 4 16 2 22 -9 22 -11 0 -13 5 -7
18 4 9 8 27 8 39 1 12 6 21 11 20 6 -1 9 8 7 21 -2 13 3 25 12 28 10 4 16 18
16 40 0 18 6 48 14 66 17 39 64 239 68 286 1 19 6 36 10 38 7 5 24 93 19 108
-1 5 2 12 6 15 4 3 19 49 31 101 13 52 26 102 29 110 4 8 7 20 8 25 0 6 7 24
15 40 7 17 14 35 14 40 4 30 20 82 28 92 5 7 7 16 4 22 -3 5 0 21 8 36 9 17
16 22 19 13 4 -9 6 -8 6 4 1 9 -4 18 -10 20 -7 2 -7 12 2 31 13 29 25 34 32
15 3 -7 4 -3 4 10 -1 12 -4 22 -8 22 -3 0 -4 12 -1 26 3 15 8 21 12 15 4 -7
11 -2 18 14 9 20 9 25 -2 25 -10 0 -9 11 5 53 9 28 19 61 21 72 1 11 11 28 20
39 9 10 14 24 11 32 -3 8 1 14 9 14 7 0 19 9 26 20 7 11 23 20 36 20 13 0 26
7 30 15 3 9 12 12 22 8 13 -5 15 -3 9 7 -6 10 -3 12 12 8 13 -3 24 1 32 14 6
10 16 16 21 13 5 -3 13 3 19 12 6 10 11 12 11 6 0 -7 8 -13 18 -12 10 0 12 3
5 6 -18 7 -16 23 2 23 9 0 18 7 21 15 4 8 10 12 15 9 6 -3 21 2 35 11 14 9 42
18 62 20 43 3 63 12 240 105 74 39 138 68 143 64 5 -3 9 1 9 8 0 9 3 9 10 -2
12 -19 13 -67 1 -74 -20 -12 -3 -168 20 -182 5 -3 6 2 3 10 -10 25 20 19 46
-9 13 -14 20 -25 16 -25 -4 0 0 -7 9 -16 9 -9 13 -19 10 -22 -3 -4 -10 0 -14
7 -6 8 -11 9 -15 3 -3 -6 1 -18 10 -26 8 -9 11 -16 7 -16 -5 0 -19 11 -31 25
-13 14 -26 24 -31 21 -12 -8 -11 -65 0 -72 6 -3 14 -17 19 -30 10 -25 29 -33
31 -11 1 6 2 19 3 27 2 28 31 21 43 -11 8 -20 17 -30 26 -26 7 3 23 -6 36 -19
13 -13 27 -24 32 -24 5 0 9 -7 9 -15 0 -8 -9 -15 -20 -15 -12 0 -20 7 -20 16
0 20 -24 13 -28 -9 -2 -12 3 -17 17 -17 12 0 21 -4 21 -10 0 -5 10 -10 23 -10
17 0 27 -10 40 -40 9 -22 17 -45 17 -51 0 -6 14 -9 33 -7 27 3 37 -3 64 -37
18 -22 38 -40 45 -41 7 0 21 -2 32 -2 15 -2 16 -5 6 -17 -7 -8 -18 -15 -24
-14 -31 4 -34 -2 -31 -48 6 -75 0 -84 -49 -82 -29 2 -43 7 -43 16 0 18 54 46
70 37 7 -4 1 4 -13 18 -17 17 -43 30 -76 36 -48 8 -51 7 -46 -10 3 -14 11 -18
24 -15 27 7 59 -25 42 -41 -7 -7 -19 -12 -26 -12 -7 0 -22 -8 -33 -16 -20 -15
-20 -15 -1 -30 11 -8 25 -14 32 -14 7 0 12 -10 12 -22 -4 -64 2 -89 25 -99 21
-10 24 -17 25 -87 1 -76 1 -76 -13 -43 -8 18 -12 43 -9 56 3 13 1 26 -5 29 -5
4 -7 14 -4 23 4 10 2 14 -4 10 -10 -6 -21 11 -43 71 -13 34 -36 52 -57 45 -13
-5 -12 -8 20 -69 26 -50 31 -107 13 -142 -19 -37 -20 -75 -4 -105 18 -32 21
-67 6 -67 -9 0 -9 -3 0 -12 7 -7 8 -17 2 -28 -7 -12 -4 -23 10 -38 19 -20 23
-64 8 -88 -4 -5 -3 -16 2 -24 5 -8 7 -25 4 -37 -4 -13 -3 -31 1 -40 4 -10 8
-47 10 -83 1 -36 5 -75 9 -87 4 -14 3 -23 -3 -23 -10 0 -36 -68 -28 -76 2 -2
12 -1 21 2 13 5 17 15 14 35 -6 39 21 39 28 0 4 -17 12 -32 20 -35 7 -3 11
-12 8 -20 -3 -8 -1 -17 5 -21 13 -7 15 -55 2 -55 -5 0 -15 10 -24 22 l-15 23
-25 -24 c-20 -18 -24 -28 -17 -45 5 -11 11 -34 15 -50 4 -20 9 -26 14 -18 6
10 10 10 19 0 12 -15 35 -67 37 -83 0 -5 4 -16 8 -22 5 -7 5 -19 0 -25 -4 -7
-8 -41 -8 -75 0 -53 3 -63 18 -63 9 0 17 7 17 16 0 9 7 30 14 47 19 41 46 169
57 272 21 183 40 295 63 359 8 22 18 68 21 101 4 33 14 73 22 90 10 17 17 63
18 115 3 88 8 150 25 310 47 458 46 531 -6 761 -15 64 -24 139 -25 190 0 46
-4 107 -9 134 -5 28 -13 71 -16 97 -7 46 -6 47 28 61 20 8 39 20 42 26 11 17
-3 13 -42 -11 -22 -13 -33 -16 -30 -8 2 7 19 21 36 30 46 25 77 67 63 84 -7 8
-8 16 -3 18 22 8 23 47 3 67 -12 12 -21 25 -21 31 0 5 -8 14 -19 19 -16 9 -17
17 -10 60 4 27 13 60 20 73 7 13 13 58 14 103 0 44 6 114 12 155 7 41 17 129
23 195 7 66 16 130 21 143 5 13 11 73 14 135 7 146 12 177 30 197 18 20 19 31
2 25 -13 -6 -41 70 -32 86 4 5 -1 9 -9 9 -9 0 -16 -5 -16 -11 0 -5 -4 -7 -10
-4 -13 8 -13 55 0 75 8 13 11 12 24 -5 13 -17 15 -18 16 -3 0 9 -5 20 -11 23
-7 5 -5 15 5 31 9 13 16 30 16 38 0 17 35 40 48 32 4 -3 9 24 10 60 2 39 -1
64 -8 64 -5 0 -10 -15 -10 -32 0 -46 -14 -66 -34 -49 -14 12 -14 17 0 49 8 21
19 39 25 40 5 2 7 8 3 13 -3 5 0 9 5 9 6 0 11 -5 11 -12 0 -25 18 8 23 44 4
26 1 38 -8 42 -42 16 -18 151 29 158 13 2 19 9 17 18 -13 46 -21 173 -20 305
1 85 -4 165 -10 185 -6 19 -11 47 -11 62 0 38 -63 83 -138 99 -31 7 -70 23
-87 35 -16 12 -51 28 -78 34 -26 7 -47 18 -46 24 4 35 -3 85 -14 100 -12 16
-14 11 -13 -39 1 -40 -3 -60 -12 -63 -11 -3 -13 12 -9 72 2 42 1 79 -4 82 -5
2 -4 15 1 29 7 17 5 25 -6 29 -8 3 -12 10 -9 16 3 5 2 10 -3 10 -6 0 -12 -7
-16 -15 -10 -27 -26 -16 -26 18 -1 47 -17 109 -31 117 -6 4 -25 4 -40 0 -28
-8 -34 -3 -30 23 2 13 -7 7 -26 -16z m592 -1064 c-5 -21 -8 -23 -21 -12 -10 8
-12 15 -4 23 5 5 10 19 10 31 1 19 1 19 11 2 6 -10 8 -30 4 -44z m-862 -353
c3 -11 2 -18 -2 -15 -5 2 -13 -8 -20 -23 -10 -24 -10 -25 3 -9 13 16 14 16 19
-5 6 -22 4 -41 -13 -108 -5 -19 -14 -62 -21 -95 -15 -72 -63 -185 -79 -185 -7
0 -10 -13 -9 -33 2 -18 0 -37 -3 -42 -3 -6 -13 -41 -23 -80 -9 -38 -23 -83
-30 -100 -7 -16 -23 -61 -35 -100 -31 -96 -51 -145 -62 -145 -12 0 -10 14 4
28 9 9 9 12 1 12 -17 0 -27 -41 -13 -50 10 -6 8 -24 -9 -82 -13 -40 -26 -82
-31 -93 -26 -66 -40 -114 -40 -142 0 -34 -23 -62 -35 -42 -4 6 -2 14 4 18 7 5
13 60 15 157 5 185 4 174 15 174 5 0 5 -15 1 -34 -8 -35 -5 -46 12 -46 5 0 6
5 2 12 -4 7 -3 8 4 4 6 -4 8 -14 5 -24 -6 -14 -4 -15 9 -4 9 7 18 28 20 47 3
28 1 34 -12 30 -25 -8 -40 37 -21 62 9 11 21 18 26 16 16 -5 36 70 23 82 -8 7
-9 5 -5 -7 3 -10 2 -20 -3 -23 -6 -4 -10 0 -10 9 0 8 -3 23 -6 33 -3 10 -2 14
3 8 12 -16 63 -3 63 15 0 9 -20 8 -37 -3 -19 -12 -21 5 -8 55 8 33 9 50 1 58
-7 7 -5 10 7 10 16 0 37 52 37 92 0 9 5 20 10 23 6 3 10 16 10 28 0 13 6 32
14 43 8 11 24 53 36 94 24 80 95 254 135 332 14 27 25 55 25 64 0 20 16 10 23
-16z m148 -119 c0 -20 0 -58 -1 -85 -1 -32 2 -46 9 -41 17 10 13 -14 -5 -32
-10 -10 -13 -25 -10 -39 4 -13 2 -24 -3 -24 -5 0 -7 -9 -4 -20 3 -11 0 -20 -6
-20 -6 0 -11 -11 -11 -24 0 -13 -7 -29 -15 -36 -8 -7 -15 -8 -15 -3 0 6 -20 9
-45 9 -30 -1 -49 4 -54 13 -10 16 -3 76 12 105 5 10 9 36 9 57 -1 21 3 41 9
44 5 4 9 21 10 38 1 30 2 30 8 7 l7 -24 17 24 17 24 0 -44 c0 -30 3 -40 9 -31
5 8 7 20 4 27 -2 6 0 15 6 19 8 4 8 12 1 26 -8 14 -7 27 5 49 20 39 45 30 46
-19z m-586 -161 c-3 -5 -11 -10 -16 -10 -6 0 -7 5 -4 10 3 6 11 10 16 10 6 0
7 -4 4 -10z m733 -61 c-6 -16 -12 -28 -15 -26 -7 7 8 57 18 57 4 0 3 -14 -3
-31z m-144 -97 c-4 -18 -10 -32 -15 -32 -8 0 -3 46 8 62 10 17 13 2 7 -30z
m129 23 c-3 -9 -8 -14 -10 -11 -3 3 -2 9 2 15 9 16 15 13 8 -4z m-197 -71 c-4
-9 -9 -15 -11 -12 -3 3 -3 13 1 22 4 9 9 15 11 12 3 -3 3 -13 -1 -22z m160
-100 c-9 -8 -16 -11 -16 -5 0 5 5 13 10 16 6 3 11 18 11 33 l2 27 4 -28 c3
-16 -2 -33 -11 -43z m-323 -176 c8 -6 9 -10 1 -15 -14 -10 -25 -53 -13 -53 5
0 9 8 9 19 0 10 7 24 15 31 8 7 12 16 9 21 -3 5 2 9 10 9 10 0 16 9 16 24 0
13 6 27 13 29 9 4 9 7 -1 14 -8 6 -11 25 -8 52 5 61 23 74 23 16 0 -35 6 -51
23 -67 13 -12 18 -23 12 -27 -25 -15 -39 -80 -44 -190 -2 -51 18 -68 28 -24 3
15 10 39 14 53 7 22 9 22 11 5 1 -11 3 -33 6 -50 2 -16 5 -43 6 -60 1 -16 6
-36 10 -42 5 -8 3 -13 -4 -13 -9 0 -9 -3 0 -14 6 -7 9 -21 5 -30 -5 -12 -2
-15 10 -10 9 4 16 1 16 -6 0 -6 -9 -14 -21 -17 -15 -4 -20 -12 -16 -29 2 -13
-1 -22 -7 -21 -6 1 -10 -7 -8 -18 1 -11 5 -38 8 -59 3 -26 1 -42 -8 -47 -10
-7 -10 -9 0 -9 6 0 12 -7 12 -15 0 -8 -7 -15 -16 -15 -14 0 -14 -3 -4 -15 21
-25 40 -18 40 15 0 17 5 30 10 30 6 0 10 11 10 25 0 14 5 25 10 25 6 0 8 -11
4 -27 -6 -24 -5 -26 8 -15 12 10 18 10 28 -2 15 -19 4 -38 -19 -31 -14 4 -17
-2 -18 -30 -1 -19 3 -35 7 -35 13 0 19 -54 7 -62 -8 -5 -7 -17 5 -41 16 -34
16 -35 -7 -45 -16 -7 -26 -7 -33 0 -13 13 -17 4 -30 -57 -6 -32 -13 -41 -32
-43 -13 -2 -30 -10 -37 -18 -8 -8 -23 -14 -34 -14 -10 0 -19 -4 -19 -10 0 -5
-11 -10 -24 -10 -14 0 -28 -4 -31 -10 -3 -5 -25 -18 -49 -28 -42 -19 -124 -71
-178 -112 -14 -11 -33 -20 -41 -20 -8 0 -28 -7 -43 -15 -16 -8 -36 -15 -44
-15 -9 0 -32 -12 -53 -26 -30 -20 -41 -23 -52 -14 -15 13 -9 38 14 58 9 8 10
10 3 7 -10 -5 -13 -2 -10 11 2 11 9 18 15 17 6 -1 14 4 17 13 3 8 2 13 -2 10
-5 -3 -9 1 -9 9 0 8 4 12 8 9 9 -5 18 8 25 38 10 42 11 79 2 84 -4 3 -8 11 -8
17 0 7 4 6 10 -3 8 -13 10 -12 10 4 0 11 6 27 13 35 18 21 38 91 26 91 -10 0
9 48 26 68 10 11 12 11 12 0 0 -7 4 -26 8 -43 5 -22 4 -26 -4 -15 -12 18 -19
12 -23 -20 -2 -14 -6 -30 -10 -35 -3 -6 -9 -28 -12 -50 l-6 -40 25 50 c14 28
23 56 20 63 -2 6 2 12 9 12 12 0 43 56 50 90 2 8 8 26 13 40 6 14 16 51 23 83
8 32 17 60 22 63 4 3 8 13 8 23 0 10 9 29 19 43 11 13 22 44 24 69 3 25 9 43
16 41 6 -1 11 9 11 23 0 14 7 36 15 49 9 13 15 28 14 32 -2 5 4 29 11 54 8 25
14 54 15 65 1 11 18 67 38 125 19 58 39 119 44 135 6 22 9 6 11 -65 2 -60 7
-97 15 -102z m307 110 c0 -16 -3 -19 -11 -11 -6 6 -8 16 -5 22 11 17 16 13 16
-11z m63 -45 c-3 -7 -10 -13 -15 -13 -6 0 -7 7 -4 16 3 9 6 21 6 27 0 7 4 7 9
-2 5 -8 7 -20 4 -28z m-67 -40 c-10 -26 -29 1 -21 28 7 20 8 21 17 5 5 -9 7
-24 4 -33z m-1027 -47 c-9 -8 -10 -7 -5 7 3 10 7 24 7 30 1 7 3 4 6 -7 3 -10
-1 -23 -8 -30z m1005 9 c-4 -8 -8 -15 -10 -15 -2 0 -4 7 -4 15 0 8 4 15 10 15
5 0 7 -7 4 -15z m-664 -31 c0 -8 -5 -12 -10 -9 -6 4 -8 11 -5 16 9 14 15 11
15 -7z m-140 -44 c0 -5 -5 -10 -11 -10 -5 0 -7 5 -4 10 3 6 8 10 11 10 2 0 4
-4 4 -10z m777 -160 c1 -18 -2 -28 -7 -25 -6 4 -10 -3 -10 -13 0 -13 -9 -21
-25 -24 -14 -3 -25 -1 -25 3 0 5 7 9 15 9 10 0 15 10 15 29 0 62 33 80 37 21z
m-11 -137 c-7 -18 -35 -16 -43 2 -3 9 3 25 13 36 l18 20 8 -22 c5 -13 6 -29 4
-36z m-36 -47 c0 -20 0 -20 -15 0 -8 10 -14 28 -14 39 0 20 0 20 14 1 8 -11
15 -29 15 -40z m430 -32 c0 -8 -5 -12 -10 -9 -6 4 -8 11 -5 16 9 14 15 11 15
-7z m-965 -36 c-4 -18 -11 -37 -15 -42 -5 -5 -5 8 0 27 4 20 5 38 2 41 -3 4 0
6 7 6 9 0 11 -10 6 -32z m5 -95 c0 -4 -8 -13 -18 -19 -16 -10 -17 -8 -14 22 4
28 6 31 18 19 8 -7 14 -17 14 -22z m-11 -71 c0 -14 -2 -13 -9 3 -5 12 -9 14
-9 6 -1 -8 -4 -12 -7 -8 -9 9 6 28 17 22 5 -4 9 -14 8 -23z m-167 -129 c-3
-16 -7 -22 -10 -15 -4 13 4 42 11 42 2 0 2 -12 -1 -27z m-22 -107 c-6 -16 -13
-26 -16 -23 -3 3 -1 14 5 25 6 12 12 33 12 49 2 27 2 27 6 2 2 -14 -1 -38 -7
-53z m53 -86 c-3 -12 -8 -19 -11 -16 -5 6 5 36 12 36 2 0 2 -9 -1 -20z m-80
-15 c-7 -21 -13 -19 -13 6 0 11 4 18 10 14 5 -3 7 -12 3 -20z m-18 -80 c-10
-29 -14 -34 -15 -17 0 23 18 67 25 60 2 -2 -2 -22 -10 -43z m699 -61 c4 -15 6
-27 4 -28 -2 -1 -21 -11 -43 -23 -22 -12 -49 -23 -59 -25 -11 -1 -30 -14 -43
-26 -19 -19 -27 -21 -38 -12 -8 7 -15 17 -15 22 0 16 32 21 42 7 7 -10 8 -8 3
7 -5 19 5 28 62 62 37 22 71 41 74 41 4 1 10 -11 13 -25z m-208 -117 c-5 9 -2
11 8 7 9 -3 13 -10 10 -15 -6 -10 -50 -34 -90 -50 -23 -8 -25 -7 -16 4 7 8 8
18 4 22 -4 5 -1 5 6 1 7 -4 21 3 35 18 17 20 25 22 36 13 12 -9 13 -9 7 0z
m-206 -61 c0 -2 -12 -12 -27 -21 l-28 -18 19 21 c17 20 36 29 36 18z m78 -21
c-2 -2 -6 -3 -9 -2 -4 1 -16 -6 -27 -17 -12 -10 -27 -16 -34 -13 -8 3 -2 9 15
17 15 7 27 17 27 21 0 5 7 6 15 2 9 -3 15 -7 13 -8z m-377 -118 c-10 -9 -11
-8 -5 6 3 10 9 15 12 12 3 -3 0 -11 -7 -18z m1080 -82 c-1 -15 -24 -12 -29 3
-3 9 2 13 12 10 10 -1 17 -7 17 -13z m10 -52 c6 -16 10 -30 11 -33 0 -3 4 -11
10 -18 13 -16 4 -26 -16 -19 -9 4 -13 13 -10 21 4 9 -6 26 -23 42 -15 15 -23
24 -16 20 6 -3 14 -2 18 4 10 16 15 12 26 -17z m163 -28 c6 -17 4 -18 -18 -9
-20 8 -21 24 -2 24 8 0 16 -7 20 -15z m-1403 -18 c-10 -9 -11 -8 -5 6 3 10 9
15 12 12 3 -3 0 -11 -7 -18z m1429 -47 c16 -31 18 -45 10 -60 -11 -21 -29 -27
-31 -10 -3 20 -4 110 -2 110 2 0 12 -18 23 -40z m-1524 1 c-10 -16 -29 -66
-33 -86 -2 -11 -7 -31 -12 -45 -11 -28 -51 -164 -55 -183 -9 -42 -19 -67 -28
-67 -6 0 -7 8 -3 18 9 24 33 121 39 157 2 17 5 31 6 33 2 1 3 5 4 10 5 23 50
130 62 150 13 20 32 33 20 13z m1354 -12 c17 -34 28 -79 19 -79 -14 0 -42 49
-36 64 3 7 0 19 -6 26 -9 10 -9 12 2 8 8 -2 18 -11 21 -19z m-1313 -11 c-3 -8
-6 -5 -6 6 -1 11 2 17 5 13 3 -3 4 -12 1 -19z m1421 -16 c2 -13 10 -26 18 -29
8 -3 14 -9 14 -14 0 -5 -12 -3 -27 3 -16 7 -29 12 -30 13 -1 0 -5 13 -9 29 -6
24 -4 27 12 24 11 -2 20 -13 22 -26z m-173 -15 c5 4 3 0 -4 -10 -13 -16 -12
-19 8 -24 17 -4 19 -8 9 -14 -23 -15 -46 -10 -52 13 -3 13 -1 27 4 32 4 4 6
16 4 25 -3 9 1 6 8 -7 8 -12 18 -19 23 -15z m-1372 -17 c-9 -22 -18 -38 -21
-36 -6 7 19 76 28 76 5 0 1 -18 -7 -40z m94 -42 c-3 -8 -6 -5 -6 6 -1 11 2 17
5 13 3 -3 4 -12 1 -19z m-126 -39 c-9 -22 -10 -22 -10 -3 -1 11 2 24 6 27 12
12 14 0 4 -24z m-231 7 c0 -2 -7 -6 -15 -10 -8 -3 -15 -1 -15 4 0 6 7 10 15
10 8 0 15 -2 15 -4z m365 -35 c3 -5 1 -12 -5 -16 -5 -3 -10 1 -10 9 0 18 6 21
15 7z m-399 -57 c9 3 14 -1 14 -14 0 -11 -4 -20 -9 -20 -6 0 -18 -26 -27 -57
-9 -32 -19 -65 -22 -73 -3 -8 -11 -34 -17 -57 -10 -35 -9 -43 2 -43 18 0 17
-16 -2 -24 -18 -6 -54 -85 -59 -127 -1 -16 -10 -37 -19 -47 -10 -10 -26 -43
-37 -73 -11 -30 -18 -40 -15 -24 3 17 8 46 11 65 l5 35 -17 -35 c-10 -19 -21
-44 -25 -55 -6 -17 -7 -17 -8 6 -1 14 2 29 6 33 4 3 22 43 40 89 18 45 31 69
28 52 -5 -26 -4 -27 6 -11 11 17 27 69 49 156 6 22 6 47 -1 67 -13 41 -4 73
19 68 15 -2 22 11 37 68 15 56 20 66 23 44 2 -20 8 -27 18 -23z m1844 15 c0
-4 -7 -6 -15 -3 -8 4 -15 10 -15 15 0 4 7 6 15 3 8 -4 15 -10 15 -15z m-1925
1 c-3 -5 -12 -10 -18 -10 -7 0 -6 4 3 10 19 12 23 12 15 0z m450 -30 c-10 -11
-15 -20 -10 -20 4 0 2 -7 -5 -15 -6 -8 -9 -19 -5 -25 3 -5 2 -10 -2 -10 -5 0
-9 -8 -10 -17 -3 -27 -11 -62 -29 -128 -9 -33 -18 -68 -20 -77 -10 -44 -14
-58 -37 -133 -35 -112 -49 -174 -41 -186 3 -5 1 -16 -5 -23 -11 -13 -27 -83
-36 -158 -3 -20 -10 -49 -15 -63 -6 -15 -10 -34 -10 -43 0 -13 2 -13 15 4 11
15 14 16 15 4 0 -9 -5 -21 -12 -28 -9 -9 -9 -12 1 -12 10 0 10 -4 3 -12 -5 -7
-13 -29 -17 -48 -15 -74 -47 -170 -56 -164 -5 3 -5 -5 0 -19 5 -14 6 -28 2
-33 -10 -11 -32 -86 -61 -203 -11 -46 -23 -87 -26 -90 -7 -6 -1 41 11 94 6 29
5 29 -9 10 -15 -19 -15 -18 -10 15 3 19 12 53 20 75 45 134 120 446 126 525 1
19 6 38 11 41 5 3 18 51 29 105 34 170 36 179 52 220 8 21 18 57 20 79 3 22
15 76 27 120 11 44 25 104 31 132 6 32 14 50 20 47 6 -4 9 -1 6 7 -3 8 4 22
14 31 12 10 17 22 12 30 -5 10 -4 10 6 1 11 -10 10 -16 -5 -33z m-22 15 c-3
-9 -8 -14 -10 -11 -3 3 -2 9 2 15 9 16 15 13 8 -4z m-273 -7 c0 -28 -38 -166
-53 -194 -15 -26 -16 -27 -17 -7 0 37 24 117 39 129 8 6 11 16 7 22 -8 14 3
62 15 62 5 0 9 -6 9 -12z m1837 -14 c2 -5 -3 -18 -11 -29 -13 -18 -15 -18 -45
10 -27 26 -28 31 -13 36 21 7 64 -3 69 -17z m-1680 -4 c-1 -11 -5 -20 -9 -20
-10 0 -10 4 -2 24 8 22 13 20 11 -4z m-63 -34 c-3 -9 -10 -16 -15 -16 -6 0 -5
9 1 21 13 24 24 20 14 -5z m-594 -10 c0 -2 -7 -7 -16 -10 -8 -3 -12 -2 -9 4 6
10 25 14 25 6z m2260 -5 c0 -5 -7 -11 -15 -15 -9 -3 -15 0 -15 9 0 8 7 15 15
15 8 0 15 -4 15 -9z m-1459 -28 c-12 -20 -14 -14 -5 12 4 9 9 14 11 11 3 -2 0
-13 -6 -23z m1446 -19 c-3 -3 -12 -4 -19 -1 -8 3 -5 6 6 6 11 1 17 -2 13 -5z
m-1677 -26 c-1 -7 -10 -29 -20 -48 l-20 -35 6 40 c4 22 9 43 11 48 7 12 23 8
23 -5z m-450 -14 c0 -12 -26 -30 -37 -27 -7 3 -18 -5 -25 -16 -7 -12 -22 -21
-33 -21 -20 1 -20 1 0 12 11 6 33 22 48 35 27 22 47 29 47 17z m556 -44 c-8
-27 -19 -44 -30 -46 -16 -2 -16 -1 -2 21 9 14 16 30 16 38 0 13 21 40 26 34 2
-2 -3 -22 -10 -47z m102 -13 c-13 -26 -21 -15 -12 18 5 19 9 23 15 14 4 -7 3
-21 -3 -32z m-471 1 c-3 -8 -6 -5 -6 6 -1 11 2 17 5 13 3 -3 4 -12 1 -19z
m130 -25 c-4 -3 0 -11 9 -17 14 -10 13 -14 -5 -30 -21 -19 -21 -19 -21 11 0
28 7 43 18 43 3 0 2 -3 -1 -7z m52 -76 c-6 -43 -15 -77 -19 -77 -4 0 -11 -15
-15 -32 -5 -23 -9 -28 -12 -15 -3 10 1 32 7 50 7 18 14 52 16 75 4 43 21 88
30 79 2 -2 -1 -38 -7 -80z m-95 -148 c4 -23 5 -43 3 -45 -5 -5 -67 19 -67 27
0 10 41 59 49 59 5 0 11 -19 15 -41z m-93 -66 c-9 -16 -10 -15 -11 9 0 14 3
35 8 45 6 15 8 14 10 -9 2 -15 -1 -35 -7 -45z m41 -8 c-2 -14 -8 -25 -13 -25
-12 0 -11 7 1 31 14 26 18 24 12 -6z m-61 -102 c-12 -20 -14 -14 -5 12 4 9 9
14 11 11 3 -2 0 -13 -6 -23z m140 -169 c-5 -16 -10 -21 -10 -12 -1 18 10 51
15 45 2 -1 -1 -16 -5 -33z m-15 -47 c8 3 14 -1 13 -8 -1 -16 -27 -87 -29 -79
0 3 -2 34 -4 70 -2 36 -1 53 1 38 3 -18 9 -25 19 -21z m214 27 c0 -8 -5 -12
-10 -9 -6 4 -8 11 -5 16 9 14 15 11 15 -7z m1484 -136 c-4 -23 -2 -28 13 -28
17 -1 17 -1 0 -11 -10 -6 -21 -9 -24 -6 -7 8 -13 79 -6 90 10 17 23 -17 17
-45z m36 -58 c0 -5 -7 -10 -15 -10 -8 0 -15 5 -15 10 0 6 7 10 15 10 8 0 15
-4 15 -10z m-1661 -142 c-7 -13 -13 -31 -14 -41 -1 -11 -6 -22 -11 -25 -5 -4
-9 -11 -9 -17 0 -5 -10 -39 -21 -75 -23 -70 -44 -147 -68 -250 -10 -43 -15
-52 -13 -27 2 21 -2 37 -8 37 -5 0 -3 5 6 10 11 6 17 24 18 47 1 46 6 76 19
100 5 10 13 38 16 63 9 55 24 99 44 122 8 9 11 22 7 27 -3 6 -1 11 5 11 7 0
10 6 7 14 -3 7 2 24 11 37 14 20 17 21 20 7 2 -9 -2 -27 -9 -40z m1652 -72
c-9 -11 -9 -15 1 -19 7 -3 1 -6 -13 -6 -14 -1 -28 2 -32 5 -12 13 6 34 30 34
21 0 23 -3 14 -14z m-1812 -510 c-9 -8 -10 -7 -5 7 3 10 7 28 7 40 2 16 3 14
6 -7 3 -16 -1 -34 -8 -40z m-92 -448 c-3 -8 -6 -5 -6 6 -1 11 2 17 5 13 3 -3
4 -12 1 -19z m51 -35 c-2 -10 -9 -17 -15 -16 -14 3 -46 -83 -39 -104 4 -9 1
-20 -6 -24 -9 -6 -9 -11 0 -22 10 -12 8 -16 -9 -20 -11 -3 -18 -10 -15 -15 3
-6 1 -12 -5 -14 -6 -2 -13 -24 -15 -49 -2 -24 -10 -60 -19 -79 l-16 -35 6 59
c7 57 86 298 107 323 15 19 30 16 26 -4z m-371 -55 c-3 -8 -6 -5 -6 6 -1 11 2
17 5 13 3 -3 4 -12 1 -19z m1 -101 c-16 -48 -28 -55 -17 -11 4 22 9 43 9 47 0
5 4 6 9 2 6 -3 6 -18 -1 -38z m-28 18 c0 -8 -4 -15 -10 -15 -5 0 -7 7 -4 15 4
8 8 15 10 15 2 0 4 -7 4 -15z m-60 -175 c0 -5 -4 -10 -10 -10 -5 0 -11 -10
-11 -22 -1 -18 -2 -19 -6 -5 -3 10 -2 25 1 33 6 16 26 19 26 4z m55 -170 c3
-5 1 -10 -4 -10 -6 0 -11 5 -11 10 0 6 2 10 4 10 3 0 8 -4 11 -10z"/>
<path d="M2912 5970 c0 -14 2 -19 5 -12 2 6 2 18 0 25 -3 6 -5 1 -5 -13z"/>
<path d="M2888 5934 c-5 -4 -8 -17 -8 -28 0 -12 -7 -32 -16 -44 -8 -12 -14
-28 -11 -35 5 -15 49 82 45 101 -2 8 -6 10 -10 6z"/>
<path d="M2826 5764 c-4 -14 -5 -28 -3 -31 3 -2 8 8 11 23 4 14 5 28 3 31 -3
2 -8 -8 -11 -23z"/>
<path d="M2761 5519 c-6 -18 -9 -34 -7 -36 2 -2 9 10 15 28 6 18 9 34 7 36 -2
2 -9 -10 -15 -28z"/>
<path d="M2741 5424 c0 -11 3 -14 6 -6 3 7 2 16 -1 19 -3 4 -6 -2 -5 -13z"/>
<path d="M3050 5800 c0 -13 18 -22 24 -11 3 5 -1 11 -9 15 -8 3 -15 1 -15 -4z"/>
<path d="M3030 5739 c0 -11 5 -17 10 -14 6 3 10 13 10 21 0 8 -4 14 -10 14 -5
0 -10 -9 -10 -21z"/>
<path d="M2926 5324 c-8 -21 -4 -25 14 -14 11 7 12 12 4 20 -8 8 -13 7 -18 -6z"/>
<path d="M2870 5256 c0 -8 5 -18 10 -21 6 -3 10 3 10 14 0 12 -4 21 -10 21 -5
0 -10 -6 -10 -14z"/>
<path d="M2915 5220 c-3 -11 -3 -30 1 -42 7 -22 7 -22 15 -3 11 28 11 65 0 65
-5 0 -13 -9 -16 -20z"/>
<path d="M2840 4879 c0 -5 5 -7 10 -4 6 3 10 8 10 11 0 2 -4 4 -10 4 -5 0 -10
-5 -10 -11z"/>
<path d="M2940 4821 c0 -5 5 -13 10 -16 6 -3 10 -2 10 4 0 5 -4 13 -10 16 -5
3 -10 2 -10 -4z"/>
<path d="M2945 4720 c-4 -6 0 -19 9 -29 9 -10 16 -27 16 -39 0 -11 5 -24 10
-27 6 -3 10 -14 10 -24 0 -10 7 -25 17 -32 15 -13 16 -11 10 23 -7 45 1 78 19
78 17 0 19 46 3 56 -6 3 -15 1 -19 -6 -6 -10 -9 -9 -13 1 -5 12 -7 12 -15 0
-8 -12 -13 -12 -25 -2 -11 9 -17 9 -22 1z"/>
<path d="M3066 4625 c4 -8 10 -12 15 -9 11 6 2 24 -11 24 -5 0 -7 -7 -4 -15z"/>
<path d="M2915 4170 c3 -5 8 -10 11 -10 2 0 4 5 4 10 0 6 -5 10 -11 10 -5 0
-7 -4 -4 -10z"/>
<path d="M1656 3373 c-6 -14 -5 -15 5 -6 7 7 10 15 7 18 -3 3 -9 -2 -12 -12z"/>
<path d="M1827 2478 c-3 -18 -8 -41 -12 -50 -4 -11 -3 -18 4 -18 6 0 11 9 11
21 0 11 4 28 9 38 5 9 6 23 2 30 -5 8 -10 1 -14 -21z"/>
<path d="M1757 2211 c-4 -17 -3 -21 5 -13 5 5 8 16 6 23 -3 8 -7 3 -11 -10z"/>
<path d="M1741 2164 c0 -11 3 -14 6 -6 3 7 2 16 -1 19 -3 4 -6 -2 -5 -13z"/>
<path d="M1722 2090 c0 -14 2 -19 5 -12 2 6 2 18 0 25 -3 6 -5 1 -5 -13z"/>
<path d="M5943 7183 c15 -2 37 -2 50 0 12 2 0 4 -28 4 -27 0 -38 -2 -22 -4z"/>
<path d="M5875 7170 c3 -5 -1 -10 -9 -10 -9 0 -16 -4 -16 -10 0 -5 -17 -12
-37 -16 -38 -7 -169 -59 -188 -75 -6 -4 -41 -22 -78 -38 l-68 -31 21 30 c12
16 31 36 42 45 12 8 20 17 17 19 -2 2 -31 -16 -64 -41 -40 -30 -59 -51 -58
-63 3 -19 -173 -204 -225 -238 -34 -22 -37 -8 -5 29 29 34 59 76 79 111 6 11
24 32 40 49 15 16 23 29 18 29 -19 0 -104 -96 -104 -116 0 -12 -21 -43 -46
-70 -95 -100 -149 -207 -109 -216 12 -2 10 -11 -12 -41 -16 -23 -29 -34 -32
-26 -2 7 1 15 8 17 6 2 11 11 11 20 -1 30 -74 -61 -115 -143 -21 -42 -39 -91
-41 -110 -4 -48 -38 -109 -68 -123 -14 -6 -26 -10 -26 -8 0 16 26 73 37 83 8
6 13 22 11 35 -6 40 -76 -75 -92 -153 -13 -64 -47 -142 -66 -154 -5 -3 -10 0
-10 7 -1 8 -6 6 -15 -6 -8 -11 -13 -28 -9 -38 3 -10 -4 -44 -15 -76 -15 -39
-16 -51 -6 -38 8 10 16 24 18 30 3 8 8 8 17 -1 11 -10 9 -17 -6 -40 -10 -15
-18 -37 -19 -47 0 -28 -25 -32 -26 -4 -1 13 -1 27 1 33 1 5 -7 2 -18 -8 -10
-9 -24 -17 -31 -17 -12 0 -30 -35 -70 -138 -12 -30 -16 -50 -10 -46 12 7 11
-4 -6 -51 -4 -11 -3 -15 2 -9 11 14 43 25 43 15 0 -15 -49 -116 -49 -102 -1
11 -4 11 -17 0 -15 -12 -16 -11 -10 9 11 32 -18 29 -41 -5 -24 -36 -51 -102
-51 -128 -1 -27 -9 -66 -17 -87 -4 -11 -3 -18 4 -18 6 0 11 5 11 10 0 6 5 10
11 10 7 0 9 -9 3 -27 -4 -16 -8 -43 -8 -62 -1 -36 -12 -46 -34 -32 -12 7 -11
14 3 41 9 17 14 34 12 37 -3 2 -8 -5 -12 -16 -3 -12 -11 -21 -17 -21 -6 0 -7
8 -3 18 4 11 3 13 -3 7 -14 -14 -25 -68 -13 -61 18 11 20 -9 6 -69 -21 -99
-46 -157 -60 -143 -3 3 4 26 15 52 24 56 25 62 6 47 -22 -19 -40 -95 -27 -119
12 -22 5 -52 -11 -52 -5 0 -8 -10 -6 -23 1 -13 -7 -35 -19 -50 -13 -16 -19
-35 -16 -48 4 -13 -2 -27 -16 -40 -15 -14 -19 -27 -15 -45 5 -17 -3 -43 -26
-85 -17 -33 -29 -63 -26 -66 3 -4 -1 -18 -10 -32 -17 -24 -27 -57 -44 -136 -9
-43 -3 -66 11 -44 7 12 9 11 9 -1 1 -20 29 30 30 52 0 9 6 21 13 25 16 11 35
51 40 88 3 17 21 75 41 129 20 55 34 101 31 104 -4 4 -10 -10 -31 -67 -2 -8
-7 -12 -10 -9 -3 3 7 39 21 79 15 41 31 89 36 107 14 47 31 40 25 -10 -8 -68
-73 -287 -145 -488 -22 -63 -47 -153 -55 -200 -11 -61 -21 -88 -35 -100 -20
-15 -46 -103 -36 -121 4 -5 -3 -35 -15 -66 -17 -47 -21 -80 -22 -192 -1 -133
-8 -171 -29 -171 -11 0 -5 73 9 108 3 10 1 13 -6 8 -7 -4 -12 -18 -12 -30 0
-13 -7 -29 -15 -36 -15 -13 -18 -80 -3 -80 5 0 7 -10 4 -22 -3 -13 -3 -17 0
-10 3 6 9 12 14 12 4 0 2 -20 -6 -45 -7 -25 -13 -67 -13 -93 1 -49 -3 -78 -13
-87 -3 -3 0 -24 6 -46 8 -30 7 -45 -2 -60 -10 -16 -10 -20 4 -26 10 -4 14 -13
10 -27 -10 -41 11 -325 26 -349 17 -26 23 -107 8 -107 -5 0 -10 7 -10 17 0 9
-3 14 -6 10 -10 -10 7 -47 22 -47 16 0 47 -68 40 -87 -3 -7 -1 -15 4 -18 13
-8 13 51 0 76 -7 11 -7 26 -2 35 6 11 17 -12 37 -83 16 -54 35 -111 42 -128
13 -28 14 -27 8 29 -3 32 -11 68 -17 80 -13 24 -16 42 -22 176 -2 52 -1 79 3
60 4 -20 11 -42 16 -49 4 -8 12 -28 16 -45 6 -23 8 -14 7 39 0 39 0 78 1 88 1
24 21 11 21 -15 0 -11 8 -32 19 -46 10 -15 23 -40 29 -57 10 -29 10 -29 12 -5
0 22 2 23 11 7 6 -10 9 -28 7 -40 -1 -12 2 -23 7 -24 11 -2 35 -86 35 -123 0
-14 9 -33 20 -43 19 -16 20 -16 20 18 0 19 5 35 11 35 5 0 8 -3 5 -8 -2 -4 -1
-23 4 -42 l8 -35 1 31 c1 17 4 33 7 36 3 3 5 59 5 124 1 66 5 137 10 159 6 22
11 59 12 83 1 23 5 42 11 42 5 0 6 22 3 50 -3 27 -2 52 4 55 5 4 9 21 9 38 0
18 7 50 15 72 8 22 14 61 15 87 0 26 5 59 12 75 6 15 11 31 10 35 -5 22 31
185 43 197 12 12 13 6 9 -45 -3 -32 -14 -88 -24 -124 -10 -36 -21 -85 -24
-110 -8 -57 -53 -373 -61 -420 -10 -63 32 48 46 120 19 101 42 249 50 320 4
41 17 113 29 160 12 47 23 96 26 110 9 58 24 122 30 131 10 17 26 -3 20 -27
-4 -13 -4 -24 -2 -24 7 0 24 56 70 235 14 55 32 114 40 130 8 17 17 49 19 72
3 23 19 71 36 106 17 35 31 70 31 77 0 37 35 147 51 163 11 10 19 27 19 38 0
11 7 22 16 26 9 3 14 13 11 25 -6 20 18 103 35 125 5 7 7 16 5 21 -3 4 10 39
29 76 19 38 34 72 34 77 0 5 13 30 30 55 16 26 33 64 36 83 4 20 17 56 29 81
13 25 39 86 60 135 20 50 41 95 46 101 5 6 7 19 3 28 -4 9 10 39 35 77 23 34
41 66 41 73 0 6 10 16 22 21 23 10 82 102 92 145 4 15 -4 7 -19 -20 -16 -27
-23 -35 -20 -20 4 14 6 36 6 50 -1 13 12 43 27 65 40 57 47 70 34 61 -22 -13
-13 29 17 85 16 30 35 77 42 104 6 28 15 55 20 60 21 28 69 132 69 150 0 25
82 171 115 204 20 20 26 22 39 12 13 -11 17 -9 27 13 7 14 16 26 20 26 9 0 49
68 49 84 0 8 7 19 15 26 10 9 15 9 15 1 0 -16 26 -13 40 5 8 8 29 22 48 30 19
8 41 22 48 32 13 16 13 16 14 -2 0 -10 15 -38 34 -61 19 -23 38 -54 41 -68 9
-33 35 -44 42 -17 14 52 54 0 78 -100 8 -30 12 -56 10 -58 -1 -1 -12 12 -24
30 -11 18 -21 28 -21 21 0 -6 5 -15 10 -18 6 -3 10 -15 10 -26 0 -12 7 -19 19
-19 14 0 21 -9 26 -31 5 -20 12 -29 21 -25 10 4 13 -7 12 -47 -1 -53 24 -193
42 -237 10 -25 16 -232 9 -345 -2 -33 -1 -82 4 -110 10 -69 10 -63 -3 -135 -7
-36 -13 -94 -15 -130 -4 -77 -13 -123 -31 -159 -12 -22 -14 -23 -14 -6 0 16
-2 17 -10 5 -5 -9 -5 -19 2 -27 7 -9 7 -21 -1 -41 -7 -16 -9 -41 -5 -55 4 -17
2 -27 -5 -27 -6 0 -11 8 -12 18 -2 32 -28 -81 -34 -147 -3 -36 -9 -78 -11 -93
-10 -49 14 -30 26 22 7 28 16 53 21 56 10 6 2 -123 -9 -141 -4 -5 -8 -21 -9
-35 -1 -14 -4 -34 -6 -45 -2 -11 -7 -38 -11 -60 -12 -62 -17 -75 -27 -75 -7 0
-8 12 -4 31 5 23 4 30 -5 24 -9 -5 -10 -1 -5 15 5 15 4 20 -4 16 -13 -8 -31
-71 -31 -108 0 -33 -13 -42 -39 -29 -16 9 -19 6 -25 -32 -5 -32 -3 -44 9 -53
24 -18 30 -96 11 -144 -9 -22 -16 -55 -16 -72 0 -17 -7 -40 -17 -50 -15 -17
-15 -18 4 -18 17 0 22 13 38 88 10 48 22 91 26 96 5 6 9 29 9 52 0 25 6 47 15
54 12 10 15 10 15 -1 0 -31 -31 -171 -45 -205 -8 -20 -15 -51 -15 -68 0 -35
-24 -76 -44 -76 -16 0 -37 -45 -30 -64 3 -7 -4 -31 -15 -52 -12 -21 -21 -47
-21 -57 0 -10 -4 -16 -9 -12 -14 8 -22 -10 -26 -58 -4 -58 -23 -140 -33 -146
-5 -4 -12 -22 -16 -40 -8 -46 -34 -84 -51 -77 -7 2 -16 -2 -19 -10 -10 -26 -7
-36 8 -31 20 8 30 -27 16 -53 -15 -28 -21 -172 -7 -163 21 13 -1 -83 -32 -137
l-30 -55 5 40 4 40 -21 -45 c-12 -25 -21 -55 -21 -67 2 -32 -26 -93 -42 -93
-23 0 -56 -50 -56 -84 0 -21 3 -27 9 -17 6 10 10 10 16 1 11 -19 -25 -118 -66
-180 -20 -30 -39 -68 -42 -85 -18 -93 -30 -129 -71 -211 -25 -52 -89 -149
-146 -225 -56 -74 -106 -143 -110 -154 -4 -11 -27 -38 -49 -60 -23 -21 -41
-45 -41 -52 0 -16 -75 -36 -105 -29 -23 6 -51 -15 -38 -28 11 -11 -65 0 -124
19 -52 16 -97 50 -87 66 3 5 -1 6 -8 4 -8 -3 -34 16 -61 45 -52 55 -61 55 -22
-2 52 -76 20 -57 -45 27 -47 61 -70 128 -42 123 9 -2 22 -14 29 -28 7 -14 13
-21 13 -16 0 6 13 -3 29 -18 24 -23 35 -27 60 -21 17 4 31 9 31 11 0 5 -99
133 -122 159 -6 6 -12 5 -18 -5 -5 -8 -10 -11 -10 -6 0 5 -6 3 -14 -3 -10 -8
-22 -7 -50 4 -20 8 -36 12 -36 8 0 -4 -5 -2 -12 5 -7 7 -16 12 -20 12 -12 0
-3 -119 10 -132 17 -17 15 -28 -4 -28 -19 0 -44 58 -44 102 0 30 -1 31 -14 12
-14 -18 -16 -17 -35 26 -11 25 -21 55 -21 68 0 13 -4 20 -10 17 -6 -4 -13 7
-16 24 -4 20 -11 28 -20 24 -8 -3 -14 1 -15 8 0 8 -7 -3 -15 -23 -11 -26 -20
-35 -31 -31 -8 3 -18 1 -22 -6 -6 -8 -15 -9 -34 -2 -23 9 -27 17 -28 53 -1 29
-3 35 -7 18 -4 -24 -5 -24 -18 10 l-14 35 3 -33 c4 -40 -3 -46 -37 -31 -19 9
-29 9 -40 0 -12 -10 -17 -8 -26 8 -6 11 -8 32 -4 45 3 14 1 33 -4 42 -18 33
-26 -71 -13 -190 26 -252 38 -302 97 -403 13 -23 24 -48 24 -56 0 -9 24 -48
54 -89 30 -40 74 -99 98 -132 24 -32 68 -77 98 -99 30 -22 74 -57 97 -77 52
-45 229 -134 309 -155 82 -21 210 -35 331 -35 81 0 117 5 175 24 117 39 224
82 260 105 18 11 55 33 82 48 27 16 75 52 108 81 32 28 61 52 66 52 14 0 169
155 219 220 136 176 269 405 386 665 44 98 127 306 142 355 4 14 11 30 15 35
4 6 11 26 14 45 7 34 40 142 57 188 5 13 9 32 9 42 0 11 6 34 14 52 26 61 57
167 62 213 2 25 6 66 9 91 2 25 8 51 14 58 5 6 14 40 19 76 6 36 17 83 26 105
17 45 21 145 6 145 -13 0 -13 56 1 121 7 30 14 47 19 40 4 -7 10 16 14 51 4
35 9 78 11 97 2 18 0 43 -4 55 -4 11 -2 44 4 71 14 55 15 55 20 7 3 -39 25
-68 26 -37 0 17 4 59 10 115 5 35 -2 71 -11 65 -24 -15 -2 121 24 147 7 7 15
28 19 46 6 30 5 32 -20 32 l-26 0 6 93 c7 108 13 128 36 125 12 -2 18 10 24
57 5 33 8 74 7 90 -1 17 -1 41 -1 55 2 71 0 95 -9 98 -6 2 -10 13 -10 24 0 17
3 18 15 8 13 -10 15 -9 16 11 5 86 0 179 -10 198 -10 17 -10 25 0 37 8 10 10
39 6 97 -3 46 -1 102 4 125 6 27 5 75 -1 135 -6 50 -8 121 -4 156 6 58 8 63
20 46 14 -18 14 -18 14 1 0 39 -42 310 -51 326 -5 10 -9 28 -9 40 0 26 -41
181 -46 175 -3 -2 4 -40 15 -83 17 -70 49 -251 67 -386 4 -29 2 -48 -4 -48 -5
0 -12 28 -16 63 -14 140 -40 288 -68 380 -16 54 -27 106 -25 115 3 13 6 12 15
-8 11 -25 11 -25 11 -2 1 14 5 21 12 16 7 -4 7 1 -1 16 -7 13 -10 38 -6 60 5
32 1 43 -24 75 -17 21 -30 34 -30 29 0 -5 -5 -2 -10 6 -5 8 -7 24 -4 35 4 14
3 16 -4 7 -7 -11 -10 -10 -16 3 -10 27 -7 35 10 28 14 -5 15 -1 9 28 -15 68
-46 137 -81 177 -20 23 -39 40 -43 38 -4 -3 -23 12 -43 32 -45 47 -118 149
-98 138 8 -5 0 7 -19 27 -19 20 -37 35 -40 34 -3 -1 -17 5 -31 12 l-25 14 20
-23 20 -23 -33 19 c-41 23 -71 55 -34 35 12 -6 27 -9 33 -5 6 3 19 -2 30 -12
10 -9 19 -12 19 -6 0 5 -19 24 -42 41 -23 17 -38 31 -33 31 4 0 22 -10 39 -23
54 -41 62 -40 16 3 -45 40 -157 101 -195 105 -11 2 -65 10 -120 19 -55 9 -127
16 -160 15 l-60 0 45 -15 c25 -7 65 -14 90 -15 25 0 39 -3 32 -6 -8 -3 -57 -2
-110 2 -54 4 -90 10 -82 14 23 9 23 31 -1 31 -11 0 -17 -4 -14 -10z m210 -150
c22 -11 46 -18 53 -15 12 4 94 -35 117 -56 17 -17 -15 -9 -63 15 -74 36 -102
39 -359 33 -23 -1 -40 -5 -37 -8 6 -10 -45 -21 -59 -13 -7 4 -9 4 -5 -1 7 -8
-74 -65 -92 -65 -5 0 -26 -10 -47 -22 -35 -20 -37 -20 -22 -2 9 10 15 24 12
30 -4 13 91 64 118 64 10 0 20 4 24 9 3 6 38 17 78 25 147 32 229 33 282 6z
m38 -174 c18 -7 41 -23 52 -35 l19 -22 -29 11 c-16 6 -35 16 -41 21 -7 5 -31
16 -55 23 -44 14 -44 14 -11 15 18 1 47 -5 65 -13z m337 -76 c23 -27 48 -50
56 -50 12 0 18 -12 15 -32 0 -4 17 -38 38 -75 21 -37 46 -90 57 -118 17 -47
47 -88 57 -79 13 13 115 -325 103 -345 -3 -4 1 -25 8 -47 23 -69 27 -104 11
-104 -13 0 -23 36 -23 86 0 12 -14 68 -31 126 -17 59 -31 115 -31 125 0 11
-13 37 -30 59 -16 21 -30 43 -30 48 0 4 -18 47 -39 95 -41 90 -99 185 -175
287 -25 34 -46 64 -46 68 0 17 22 1 60 -44z m-1041 -17 c-68 -75 -89 -94 -89
-78 0 12 116 125 128 125 2 0 -15 -21 -39 -47z m846 -14 c20 -22 20 -22 0 -11
-11 5 -29 20 -40 33 -20 22 -20 22 0 11 11 -5 29 -20 40 -33z m-916 14 c-7
-10 -29 -36 -49 -58 -19 -22 -46 -57 -60 -77 -22 -34 -40 -48 -40 -32 0 12
147 184 158 184 2 0 -2 -8 -9 -17z m744 -40 c27 -13 47 -27 44 -29 -3 -3 -24
4 -46 16 -23 11 -65 27 -94 35 l-52 15 50 -6 c27 -3 71 -17 98 -31z m-254 13
c-8 -8 -79 -35 -79 -30 0 6 60 33 74 34 5 0 7 -2 5 -4z m-222 -158 c-63 -62
-130 -137 -147 -166 -18 -29 -35 -51 -38 -48 -11 12 90 143 154 201 179 161
185 163 31 13z m-335 25 c-24 -32 -52 -44 -52 -22 0 5 12 25 27 43 20 26 29
31 38 22 10 -8 7 -18 -13 -43z m-72 -27 c0 -3 -4 -8 -10 -11 -5 -3 -10 -1 -10
4 0 6 5 11 10 11 6 0 10 -2 10 -4z m-50 -30 c0 -2 -8 -10 -17 -17 -16 -13 -17
-12 -4 4 13 16 21 21 21 13z m1090 -34 c0 -15 -2 -15 -10 -2 -13 20 -13 33 0
25 6 -3 10 -14 10 -23z m-1051 -48 c-32 -34 -36 -22 -8 23 19 30 24 34 27 20
2 -11 -6 -30 -19 -43z m51 10 c-18 -21 -24 -10 -8 15 7 12 14 17 16 11 2 -6
-2 -17 -8 -26z m-100 4 c0 -27 -30 -89 -66 -138 -14 -19 -23 -43 -20 -52 2
-10 0 -16 -4 -13 -5 3 -14 -3 -19 -14 -8 -13 -8 -20 -1 -23 6 -2 4 -12 -5 -23
-14 -17 -16 -17 -11 -2 3 9 1 17 -5 17 -6 0 -8 8 -5 18 3 9 -7 2 -24 -17 -57
-66 -44 -11 20 84 14 22 48 73 75 113 51 76 65 87 65 50z m-144 -36 c-18 -16
-18 -16 -6 6 6 13 14 21 18 18 3 -4 -2 -14 -12 -24z m1294 -12 c0 -5 -2 -10
-4 -10 -3 0 -8 5 -11 10 -3 6 -1 10 4 10 6 0 11 -4 11 -10z m490 -42 c11 -24
19 -52 19 -63 -1 -20 -29 33 -44 83 -11 37 5 25 25 -20z m-652 -39 c11 -21 16
-39 11 -39 -11 0 7 -33 37 -72 12 -15 25 -47 28 -71 4 -25 13 -48 20 -50 12
-5 21 -32 29 -87 3 -20 -16 -27 -24 -9 -3 8 -18 37 -32 65 -15 29 -27 60 -27
70 0 10 -10 28 -22 41 -11 12 -22 38 -23 56 -1 19 -5 39 -8 44 -3 5 -8 21 -11
35 -2 15 -9 35 -15 46 -15 28 -14 37 3 23 8 -7 23 -30 34 -52z m-1110 19 c-8
-13 -38 -60 -67 -105 -29 -46 -55 -83 -57 -83 -8 0 63 123 103 178 27 36 43
44 21 10z m1012 -33 c0 -9 -6 -12 -15 -9 -8 4 -12 10 -9 15 8 14 24 10 24 -6z
m-300 -5 c0 -5 -2 -10 -4 -10 -3 0 -8 5 -11 10 -3 6 -1 10 4 10 6 0 11 -4 11
-10z m-380 -87 c-18 -32 -41 -73 -51 -92 -10 -19 -24 -40 -30 -45 -11 -10 5
21 80 156 14 26 27 45 29 43 2 -2 -10 -30 -28 -62z m-368 -45 c-7 -7 -12 -8
-12 -2 0 14 12 26 19 19 2 -3 -1 -11 -7 -17z m1402 7 c3 -8 1 -15 -4 -15 -6 0
-10 7 -10 15 0 8 2 15 4 15 2 0 6 -7 10 -15z m-1004 -82 c-12 -16 -28 -41 -36
-58 -7 -16 -18 -37 -22 -45 -5 -8 -23 -42 -40 -75 -64 -126 -106 -204 -110
-200 -5 4 138 293 153 309 5 6 19 27 29 46 17 31 34 49 44 50 2 0 -6 -12 -18
-27z m1034 -19 c3 -8 2 -12 -4 -9 -6 3 -10 10 -10 16 0 14 7 11 14 -7z m-1170
-44 c-17 -33 -37 -51 -27 -23 6 17 32 53 39 53 1 0 -4 -13 -12 -30z m1221
-185 l4 -60 -13 65 c-7 36 -16 79 -20 95 -7 29 -6 28 9 -5 9 -18 18 -61 20
-95z m-180 4 c1 -26 5 -51 8 -56 17 -27 30 -542 15 -565 -6 -10 -11 -9 -21 4
-10 13 -11 33 -4 89 8 52 7 80 -2 105 -7 19 -9 44 -5 57 10 29 8 79 -5 153 -8
43 -8 70 -1 88 6 16 6 34 1 44 -16 32 -32 140 -25 169 l7 28 15 -35 c8 -19 16
-56 17 -81z m-1555 47 c0 -3 -4 -8 -10 -11 -5 -3 -10 -1 -10 4 0 6 5 11 10 11
6 0 10 -2 10 -4z m430 -14 c0 -5 -7 -17 -15 -28 -14 -18 -14 -17 -4 9 12 27
19 34 19 19z m-467 -37 c-3 -9 -8 -14 -10 -11 -3 3 -2 9 2 15 9 16 15 13 8 -4z
m2122 -5 c9 -14 34 -196 30 -218 -1 -9 5 -25 13 -35 14 -15 15 -47 13 -220 -2
-111 -3 -218 -3 -237 0 -19 -2 -26 -5 -15 -3 11 -9 24 -13 28 -4 5 -5 74 -2
153 4 123 3 146 -10 157 -12 9 -17 38 -21 110 -2 54 0 100 5 103 4 3 6 9 3 14
-2 4 -9 36 -14 71 -5 35 -12 72 -16 82 -8 18 9 24 20 7z m-2061 -67 c-7 -21
-22 -56 -33 -78 -12 -21 -21 -50 -21 -62 0 -13 -5 -23 -11 -23 -15 0 -5 39 33
128 33 75 55 100 32 35z m381 -140 c-18 -38 -36 -80 -40 -95 -4 -15 -13 -32
-20 -38 -15 -13 54 160 74 184 23 27 20 18 -14 -51z m1352 -45 c-3 -8 -6 -5
-6 6 -1 11 2 17 5 13 3 -3 4 -12 1 -19z m320 -10 c-3 -8 -6 -5 -6 6 -1 11 2
17 5 13 3 -3 4 -12 1 -19z m-310 -90 c-3 -8 -6 -5 -6 6 -1 11 2 17 5 13 3 -3
4 -12 1 -19z m-1452 -58 c-9 -18 -18 -30 -21 -28 -2 3 3 19 12 37 9 18 18 30
21 28 2 -3 -3 -19 -12 -37z m-39 -97 c-14 -26 -25 -45 -26 -41 -1 14 41 101
46 95 3 -3 -6 -27 -20 -54z m1491 -50 c-3 -10 -5 -4 -5 12 0 17 2 24 5 18 2
-7 2 -21 0 -30z m-1966 0 c-8 -15 -10 -15 -11 -2 0 17 10 32 18 25 2 -3 -1
-13 -7 -23z m417 -80 c-22 -59 -38 -87 -38 -65 0 15 47 122 54 122 3 0 -4 -26
-16 -57z m1549 -15 c-2 -13 -4 -5 -4 17 -1 22 1 32 4 23 2 -10 2 -28 0 -40z
m-2105 20 c-7 -7 -12 -8 -12 -2 0 14 12 26 19 19 2 -3 -1 -11 -7 -17z m112 -3
c-4 -8 -8 -15 -10 -15 -2 0 -4 7 -4 15 0 8 4 15 10 15 5 0 7 -7 4 -15z m656
-29 c0 -2 -11 -24 -25 -47 -28 -50 -34 -38 -8 16 14 29 33 47 33 31z m1324
-135 c-4 -34 -9 -60 -11 -57 -3 3 -2 32 2 66 4 34 9 59 12 57 2 -3 1 -33 -3
-66z m-1591 39 c-3 -12 -8 -19 -11 -16 -5 6 5 36 12 36 2 0 2 -9 -1 -20z
m-409 -19 c3 -5 -3 -20 -13 -32 -18 -22 -20 -22 -26 -6 -11 27 25 62 39 38z
m-32 -93 c-7 -7 -12 -25 -12 -40 0 -15 -4 -28 -10 -28 -16 0 -11 52 7 72 9 10
19 16 21 13 3 -3 0 -11 -6 -17z m-91 -84 c-12 -15 -21 -36 -21 -48 0 -29 -51
-134 -57 -118 -3 7 0 18 5 25 5 7 21 44 35 82 14 39 31 83 38 100 13 27 14 28
17 7 2 -12 -6 -34 -17 -48z m640 -67 c-8 -8 -11 -7 -11 4 0 20 13 34 18 19 3
-7 -1 -17 -7 -23z m-720 -28 l-10 -24 0 26 c-1 14 2 29 6 33 12 12 14 -9 4
-35z m2176 -16 c-3 -10 -5 -4 -5 12 0 17 2 24 5 18 2 -7 2 -21 0 -30z m-2105
-8 c-4 -26 -22 -45 -22 -25 0 12 18 50 24 50 2 0 1 -11 -2 -25z m2070 -272
c-3 -16 -7 -22 -10 -15 -4 13 4 42 11 42 2 0 2 -12 -1 -27z m-208 -45 c-7 -23
-15 -94 -15 -130 0 -15 -4 -30 -9 -33 -6 -4 -10 -17 -10 -30 0 -13 -5 -27 -10
-30 -6 -3 -7 -17 -4 -30 3 -12 1 -25 -4 -29 -15 -9 -21 44 -11 99 15 84 17 98
26 160 11 76 23 98 35 65 5 -12 6 -31 2 -42z m193 -40 c-3 -8 -6 -5 -6 6 -1
11 2 17 5 13 3 -3 4 -12 1 -19z m-12 -100 c-4 -46 -11 -102 -16 -126 -5 -24
-11 -64 -14 -89 -2 -25 -6 -48 -9 -51 -10 -10 -6 44 8 119 8 41 18 109 21 152
4 42 9 77 12 77 3 0 2 -37 -2 -82z m52 0 c-3 -8 -6 -5 -6 6 -1 11 2 17 5 13 3
-3 4 -12 1 -19z m-100 -350 c-3 -7 -5 -2 -5 12 0 14 2 19 5 13 2 -7 2 -19 0
-25z m-8 -46 c-2 -15 0 -33 4 -40 5 -6 4 -12 0 -12 -12 0 -42 -123 -48 -192
-4 -62 -24 -116 -25 -68 0 30 61 340 67 340 3 0 3 -12 2 -28z m-1734 -219 c-4
-10 -12 -30 -17 -45 -10 -27 -28 -38 -28 -18 0 22 30 80 41 80 7 0 8 -7 4 -17z
m1742 -25 c-3 -8 -6 -5 -6 6 -1 11 2 17 5 13 3 -3 4 -12 1 -19z m-396 -135
c-16 -34 -22 -25 -14 21 5 31 8 35 16 21 6 -11 5 -26 -2 -42z m311 -45 c-6 -6
-8 -1 -7 14 4 39 8 44 12 19 3 -13 0 -28 -5 -33z m-22 -84 c-16 -49 -21 -38
-8 16 6 24 13 39 16 32 2 -6 -2 -28 -8 -48z m63 21 c-3 -9 -8 -14 -10 -11 -3
3 -2 9 2 15 9 16 15 13 8 -4z m-6 -47 c-3 -8 -6 -5 -6 6 -1 11 2 17 5 13 3 -3
4 -12 1 -19z m-306 -45 c-9 -16 -10 -16 -11 -1 0 9 3 25 7 35 7 16 8 17 11 1
2 -10 -1 -25 -7 -35z m299 2 c0 -8 -4 -15 -10 -15 -5 0 -7 7 -4 15 4 8 8 15
10 15 2 0 4 -7 4 -15z m-82 -60 c-1 -28 -5 -42 -10 -37 -8 8 -1 82 7 82 2 0 3
-20 3 -45z m72 11 c0 -3 -4 -8 -10 -11 -5 -3 -10 -1 -10 4 0 6 5 11 10 11 6 0
10 -2 10 -4z m-2327 -42 c-4 -56 -14 -94 -24 -89 -10 7 -12 84 -3 110 10 25
29 11 27 -21z m2239 -56 c-9 -9 -12 -7 -12 12 0 19 3 21 12 12 9 -9 9 -15 0
-24z m49 -44 c-5 -16 -10 -21 -10 -12 -1 18 10 51 15 45 2 -1 -1 -16 -5 -33z
m-2304 -36 c-3 -7 -5 -2 -5 12 0 14 2 19 5 13 2 -7 2 -19 0 -25z m2290 -20
c-3 -8 -6 -5 -6 6 -1 11 2 17 5 13 3 -3 4 -12 1 -19z m-2184 -70 c-9 -97 -20
-113 -21 -29 -1 75 2 91 18 91 4 0 6 -28 3 -62z m2169 20 c-7 -7 -12 -8 -12
-2 0 14 12 26 19 19 2 -3 -1 -11 -7 -17z m-2081 -123 l-8 -80 -2 70 c0 39 2
81 6 95 12 41 14 1 4 -85z m2011 60 c-9 -19 -17 -33 -19 -32 -6 6 21 76 27 72
4 -3 1 -20 -8 -40z m25 -107 c-3 -7 -5 -2 -5 12 0 14 2 19 5 13 2 -7 2 -19 0
-25z m-58 -5 c0 -5 -4 -17 -9 -28 -8 -18 -9 -17 -9 8 -1 15 4 27 9 27 6 0 10
-3 9 -7z m-25 -87 c-3 -14 -10 -26 -15 -26 -5 0 -6 7 -4 15 3 8 7 22 10 31 9
27 17 9 9 -20z m-1944 -53 c0 -24 -4 -43 -9 -43 -11 0 -24 86 -15 101 11 19
24 -12 24 -58z m2010 47 c0 -5 -4 -10 -10 -10 -5 0 -10 5 -10 10 0 6 5 10 10
10 6 0 10 -4 10 -10z m-101 -96 c-12 -32 -25 -52 -27 -45 -5 14 38 114 46 106
3 -2 -6 -30 -19 -61z m43 -84 c-2 -16 -10 -30 -18 -30 -10 0 -11 6 -3 30 6 17
14 30 18 30 4 0 6 -13 3 -30z m-72 5 c0 -2 -9 -28 -21 -57 -12 -29 -25 -64
-30 -77 -5 -13 -12 -22 -14 -19 -5 5 27 93 38 104 4 4 7 18 7 31 0 13 5 23 10
23 6 0 10 -2 10 -5z m43 -60 c-3 -9 -8 -14 -10 -11 -3 3 -2 9 2 15 9 16 15 13
8 -4z m-46 -125 c-22 -53 -41 -69 -27 -22 17 56 30 83 39 78 5 -4 0 -29 -12
-56z m-1768 -40 c0 -8 -6 -4 -13 10 -8 14 -12 29 -8 34 6 10 20 -20 21 -44z
m1692 27 c-10 -9 -11 -8 -5 6 3 10 9 15 12 12 3 -3 0 -11 -7 -18z m-1 -21 c0
-3 -4 -8 -10 -11 -5 -3 -10 -1 -10 4 0 6 5 11 10 11 6 0 10 -2 10 -4z m-29
-57 c-5 -13 -10 -19 -10 -12 -1 15 10 45 15 40 3 -2 0 -15 -5 -28z m59 -19
c-5 -16 -6 -30 -3 -30 3 0 -1 -8 -10 -17 -8 -10 -21 -39 -27 -65 -7 -28 -18
-48 -26 -48 -8 0 -11 -6 -8 -15 4 -9 0 -15 -9 -15 -12 0 -8 18 22 83 21 45 43
94 49 110 15 36 23 35 12 -3z m-77 -25 c-3 -9 -8 -14 -10 -11 -3 3 -2 9 2 15
9 16 15 13 8 -4z m-32 -62 c-8 -15 -10 -15 -11 -2 0 17 10 32 18 25 2 -3 -1
-13 -7 -23z m-18 -50 c-10 -29 -14 -34 -23 -28 -5 3 -2 15 8 25 20 25 23 25
15 3z m-48 -91 c-15 -16 -16 -15 -4 12 7 15 15 23 17 16 3 -7 -3 -19 -13 -28z
m59 -40 c-4 -9 -6 -21 -5 -25 0 -4 -6 -10 -14 -13 -8 -3 -12 -10 -9 -15 3 -5
0 -9 -5 -9 -6 0 -11 -6 -11 -12 -1 -19 -60 -94 -60 -76 0 9 6 20 13 26 7 6 30
47 52 92 23 47 41 75 43 66 2 -10 0 -25 -4 -34z m-88 -18 c-4 -9 -9 -15 -11
-12 -3 3 -3 13 1 22 4 9 9 15 11 12 3 -3 3 -13 -1 -22z m-16 -39 c0 -2 -11
-21 -25 -41 -29 -43 -32 -39 -8 11 14 29 33 47 33 30z m-1270 -166 c0 -18 -18
-9 -23 12 -4 16 -3 18 9 8 8 -6 14 -15 14 -20z m1170 11 c0 -5 -5 -10 -11 -10
-5 0 -7 5 -4 10 3 6 8 10 11 10 2 0 4 -4 4 -10z m5 -107 c-31 -38 -71 -87 -90
-110 -46 -54 -45 -66 2 -22 36 33 36 33 16 4 -12 -16 -36 -43 -54 -60 -26 -24
-29 -26 -16 -6 8 13 14 28 11 35 -2 6 13 32 33 57 21 25 59 74 85 107 27 34
53 62 58 62 6 0 -15 -30 -45 -67z m-984 15 c11 -21 11 -22 -4 -9 -10 7 -17 17
-17 22 0 15 9 10 21 -13z m-153 -23 c-3 -3 -9 2 -12 12 -6 14 -5 15 5 6 7 -7
10 -15 7 -18z m52 -34 c12 -24 13 -31 1 -31 -12 0 -41 29 -41 41 0 17 29 9 40
-10z m863 -235 c-55 -60 -188 -141 -251 -152 -14 -3 -36 -11 -51 -18 -36 -19
-105 -30 -96 -17 3 6 16 11 28 11 13 0 31 6 42 14 11 7 38 19 60 26 74 23 196
100 275 173 8 8 19 12 23 10 4 -3 -9 -24 -30 -47z m-445 -203 c-10 -2 -26 -2
-35 0 -10 3 -2 5 17 5 19 0 27 -2 18 -5z"/>
<path d="M5948 7013 c6 -2 18 -2 25 0 6 3 1 5 -13 5 -14 0 -19 -2 -12 -5z"/>
<path d="M5268 6605 c-25 -34 -22 -43 3 -11 12 15 20 29 18 31 -2 1 -12 -7
-21 -20z"/>
<path d="M3860 6381 c0 -25 6 -27 13 -6 4 8 2 17 -3 20 -6 4 -10 -3 -10 -14z"/>
<path d="M5986 6263 c-6 -14 -5 -15 5 -6 7 7 10 15 7 18 -3 3 -9 -2 -12 -12z"/>
<path d="M5780 6256 c0 -2 7 -9 15 -16 9 -7 15 -8 15 -2 0 5 -7 12 -15 16 -8
3 -15 4 -15 2z"/>
<path d="M6025 6210 c3 -5 8 -10 11 -10 2 0 4 5 4 10 0 6 -5 10 -11 10 -5 0
-7 -4 -4 -10z"/>
<path d="M5644 6115 c-9 -14 -14 -28 -11 -31 3 -3 13 8 22 25 19 37 12 41 -11
6z"/>
<path d="M6925 6048 c17 -79 39 -104 30 -33 -9 69 -14 82 -29 88 -11 4 -11 -5
-1 -55z"/>
<path d="M6093 6030 c4 -14 7 -35 7 -48 0 -13 4 -21 9 -18 9 6 -2 73 -15 84
-4 4 -4 -4 -1 -18z"/>
<path d="M5596 6023 c-6 -14 -5 -15 5 -6 7 7 10 15 7 18 -3 3 -9 -2 -12 -12z"/>
<path d="M5559 5953 c-22 -46 -22 -50 1 -15 13 18 20 35 18 37 -3 3 -11 -7
-19 -22z"/>
<path d="M6140 5968 c0 -9 5 -20 10 -23 13 -8 13 5 0 25 -8 13 -10 13 -10 -2z"/>
<path d="M6176 5942 c-3 -5 -1 -22 4 -38 8 -29 8 -29 9 9 1 36 -3 45 -13 29z"/>
<path d="M6199 5835 c-10 -20 -10 -115 0 -115 6 0 11 -8 12 -17 0 -10 5 -4 10
12 8 30 -12 140 -22 120z"/>
<path d="M5541 5803 c0 -6 -4 -20 -7 -30 -5 -14 -4 -15 5 -7 7 7 11 20 8 30
-3 11 -5 14 -6 7z"/>
<path d="M6137 5709 c4 -13 8 -18 11 -10 2 7 -1 18 -6 23 -8 8 -9 4 -5 -13z"/>
<path d="M6165 5671 c-3 -5 -1 -12 5 -16 5 -3 10 1 10 9 0 18 -6 21 -15 7z"/>
<path d="M6196 5658 c-9 -34 -8 -38 9 -38 8 0 15 -7 15 -16 0 -8 4 -13 8 -10
12 7 0 78 -14 83 -6 2 -14 -6 -18 -19z"/>
<path d="M5440 5580 c-6 -12 -9 -24 -7 -27 3 -2 11 5 17 17 6 12 9 24 7 27 -3
2 -11 -5 -17 -17z"/>
<path d="M6958 5554 c-3 -5 0 -25 5 -44 8 -27 12 -30 14 -15 4 24 -11 73 -19
59z"/>
<path d="M6212 5460 c0 -19 2 -27 5 -17 2 9 2 25 0 35 -3 9 -5 1 -5 -18z"/>
<path d="M5340 5375 c-7 -16 -18 -45 -26 -62 -7 -18 -12 -33 -9 -33 9 0 56
102 52 113 -2 7 -10 -1 -17 -18z"/>
<path d="M6217 5364 c-12 -13 -8 -55 8 -70 13 -14 15 -13 14 8 -2 36 -13 70
-22 62z"/>
<path d="M6970 5250 c0 -22 3 -40 8 -40 4 0 6 18 4 40 -2 22 -6 40 -8 40 -2 0
-4 -18 -4 -40z"/>
<path d="M6232 5250 c0 -14 2 -19 5 -12 2 6 2 18 0 25 -3 6 -5 1 -5 -13z"/>
<path d="M6176 5232 c-3 -5 -1 -22 4 -38 8 -29 8 -29 9 9 1 36 -3 45 -13 29z"/>
<path d="M2101 5203 c-1 -6 -4 -20 -7 -30 -5 -17 -5 -17 6 0 6 10 9 23 6 30
-3 9 -5 9 -5 0z"/>
<path d="M6208 5098 c-3 -7 -3 -33 0 -57 5 -54 22 -35 22 27 0 40 -13 57 -22
30z"/>
<path d="M4301 5043 c-1 -6 -4 -20 -7 -30 -5 -17 -5 -17 6 0 6 10 9 23 6 30
-3 9 -5 9 -5 0z"/>
<path d="M5106 4864 c-9 -23 -7 -36 3 -30 12 8 21 46 11 46 -4 0 -11 -7 -14
-16z"/>
<path d="M4173 4825 c-16 -33 -16 -37 -1 -52 16 -15 17 -14 24 10 3 15 13 27
21 27 10 0 13 6 9 16 -3 9 -6 20 -6 25 0 23 -32 5 -47 -26z"/>
<path d="M4170 4736 c0 -7 -9 -34 -21 -60 -11 -26 -18 -52 -16 -59 6 -16 39
60 44 101 2 17 1 32 -2 32 -3 0 -5 -6 -5 -14z"/>
<path d="M6096 4678 c-9 -34 -7 -50 4 -43 13 8 13 -11 1 -34 -5 -9 -6 -23 -2
-30 9 -14 26 59 22 94 -4 31 -18 39 -25 13z"/>
<path d="M6111 4434 c0 -11 3 -14 6 -6 3 7 2 16 -1 19 -3 4 -6 -2 -5 -13z"/>
<path d="M6101 4360 c0 -14 4 -32 9 -40 9 -13 10 -13 9 0 -1 8 -5 26 -9 40
l-8 25 -1 -25z"/>
<path d="M4875 4340 c-4 -12 -5 -24 -2 -27 3 -2 8 5 12 17 4 12 5 24 2 27 -3
2 -8 -5 -12 -17z"/>
<path d="M6872 4330 c0 -19 2 -27 5 -17 2 9 2 25 0 35 -3 9 -5 1 -5 -18z"/>
<path d="M4071 4194 c0 -11 3 -14 6 -6 3 7 2 16 -1 19 -3 4 -6 -2 -5 -13z"/>
<path d="M4027 4140 c-3 -11 -1 -20 4 -20 5 0 9 9 9 20 0 11 -2 20 -4 20 -2 0
-6 -9 -9 -20z"/>
<path d="M5956 3940 c-3 -18 -4 -35 -1 -38 3 -3 5 0 5 6 0 22 19 12 22 -10 3
-22 4 -21 9 3 4 17 0 35 -11 49 l-17 23 -7 -33z"/>
<path d="M2236 3705 c-9 -26 -7 -32 5 -12 6 10 9 21 6 23 -2 3 -7 -2 -11 -11z"/>
<path d="M5897 3698 c-8 -28 -9 -73 -2 -66 12 12 22 66 15 78 -5 8 -9 4 -13
-12z"/>
<path d="M5860 3539 c0 -18 3 -29 7 -25 10 10 11 46 1 52 -4 3 -8 -9 -8 -27z"/>
<path d="M3260 3530 c0 -5 4 -10 9 -10 6 0 13 5 16 10 3 6 -1 10 -9 10 -9 0
-16 -4 -16 -10z"/>
<path d="M1245 3489 c-55 -41 -67 -56 -27 -33 29 17 83 64 71 64 -2 0 -22 -14
-44 -31z"/>
<path d="M3134 3511 c4 -5 0 -11 -6 -14 -9 -3 -7 -7 5 -12 10 -4 20 -5 23 -3
7 8 -7 38 -18 38 -5 0 -7 -4 -4 -9z"/>
<path d="M3143 3463 c-11 -4 -11 -11 3 -50 4 -10 6 -32 5 -49 -3 -42 15 -52
23 -13 6 32 -2 107 -13 113 -3 2 -11 1 -18 -1z"/>
<path d="M3335 3460 c-4 -6 5 -10 20 -10 15 0 24 4 20 10 -3 6 -12 10 -20 10
-8 0 -17 -4 -20 -10z"/>
<path d="M2150 3440 c0 -5 5 -10 10 -10 6 0 10 5 10 10 0 6 -4 10 -10 10 -5 0
-10 -4 -10 -10z"/>
<path d="M3352 3433 c-10 -4 -10 -8 -1 -19 16 -20 29 -17 29 6 0 20 -5 23 -28
13z"/>
<path d="M3295 3340 c3 -5 11 -10 16 -10 6 0 7 5 4 10 -3 6 -11 10 -16 10 -6
0 -7 -4 -4 -10z"/>
<path d="M1097 3312 c-16 -17 -16 -19 1 -17 25 1 43 15 37 26 -9 14 -20 11
-38 -9z"/>
<path d="M1445 3300 c-8 -13 5 -13 25 0 13 8 13 10 -2 10 -9 0 -20 -4 -23 -10z"/>
<path d="M3155 3240 c4 -6 11 -8 16 -5 14 9 11 15 -7 15 -8 0 -12 -5 -9 -10z"/>
<path d="M3165 3178 c9 -29 11 -31 24 -23 17 10 13 23 -10 36 -19 10 -20 9
-14 -13z"/>
<path d="M3892 2929 c-1 -14 -5 -48 -8 -75 -4 -38 -3 -45 6 -31 6 9 9 43 7 75
-2 31 -4 45 -5 31z"/>
<path d="M5627 2753 c-4 -3 -7 -11 -7 -17 0 -6 5 -5 12 2 6 6 9 14 7 17 -3 3
-9 2 -12 -2z"/>
<path d="M3140 2734 c0 -8 5 -12 10 -9 6 4 8 11 5 16 -9 14 -15 11 -15 -7z"/>
<path d="M3892 2730 c0 -14 2 -19 5 -12 2 6 2 18 0 25 -3 6 -5 1 -5 -13z"/>
<path d="M4353 2565 c0 -27 2 -38 4 -22 2 15 2 37 0 50 -2 12 -4 0 -4 -28z"/>
<path d="M5536 2535 c-3 -9 -6 -22 -5 -28 0 -7 5 -1 10 12 5 13 8 26 5 28 -2
2 -6 -3 -10 -12z"/>
<path d="M4137 2481 c-2 -10 2 -29 9 -42 13 -23 13 -23 14 13 0 40 -15 59 -23
29z"/>
<path d="M4350 2475 c0 -14 2 -25 4 -25 2 0 6 11 8 25 3 14 1 25 -3 25 -5 0
-9 -11 -9 -25z"/>
<path d="M4082 2470 c0 -14 2 -19 5 -12 2 6 2 18 0 25 -3 6 -5 1 -5 -13z"/>
<path d="M1907 2367 c-11 -29 -9 -43 4 -30 6 6 9 19 7 29 -3 18 -4 18 -11 1z"/>
<path d="M4361 2364 c0 -11 3 -14 6 -6 3 7 2 16 -1 19 -3 4 -6 -2 -5 -13z"/>
<path d="M5461 2312 c-7 -14 -6 -18 9 -18 10 0 21 8 23 18 3 11 0 18 -9 18 -7
0 -18 -8 -23 -18z"/>
<path d="M4122 2150 c0 -19 2 -27 5 -17 2 9 2 25 0 35 -3 9 -5 1 -5 -18z"/>
<path d="M5381 2166 c-8 -10 -9 -16 -1 -21 5 -3 13 1 16 10 9 22 -1 29 -15 11z"/>
<path d="M1796 2135 c-3 -9 -6 -22 -5 -28 0 -7 5 -1 10 12 5 13 8 26 5 28 -2
2 -6 -3 -10 -12z"/>
<path d="M4395 2033 c3 -10 12 -40 18 -67 10 -45 12 -47 18 -22 8 28 -17 106
-34 106 -5 0 -6 -8 -2 -17z"/>
<path d="M1781 1974 c0 -11 3 -14 6 -6 3 7 2 16 -1 19 -3 4 -6 -2 -5 -13z"/>
<path d="M1738 1918 c-9 -35 -15 -65 -13 -67 6 -5 37 108 33 120 -2 5 -11 -19
-20 -53z"/>
<path d="M3325 1970 c3 -5 10 -10 16 -10 5 0 9 5 9 10 0 6 -7 10 -16 10 -8 0
-12 -4 -9 -10z"/>
<path d="M1675 1900 c-3 -5 -1 -10 4 -10 6 0 11 5 11 10 0 6 -2 10 -4 10 -3 0
-8 -4 -11 -10z"/>
<path d="M1661 1845 c-6 -22 -11 -53 -11 -68 0 -16 -5 -37 -10 -48 -8 -15 -7
-19 4 -19 8 0 17 -10 19 -22 3 -16 4 -15 2 4 -1 15 2 29 6 30 3 2 9 23 12 48
l6 45 -13 -45 c-13 -40 -14 -42 -15 -15 0 17 4 47 10 68 6 21 8 44 6 50 -2 7
-9 -6 -16 -28z"/>
<path d="M1703 1745 c-3 -9 -3 -18 -1 -21 3 -3 8 4 11 16 6 23 -1 27 -10 5z"/>
<path d="M4697 1669 c12 -12 24 -21 27 -18 2 2 -8 13 -22 23 l-27 19 22 -24z"/>
<path d="M1641 1604 c0 -11 3 -14 6 -6 3 7 2 16 -1 19 -3 4 -6 -2 -5 -13z"/>
<path d="M1681 1604 c0 -11 3 -14 6 -6 3 7 2 16 -1 19 -3 4 -6 -2 -5 -13z"/>
<path d="M1670 1562 c0 -12 -4 -22 -9 -22 -5 0 -14 -13 -20 -30 -8 -23 -7 -30
3 -30 14 0 43 86 32 97 -3 3 -6 -3 -6 -15z"/>
<path d="M4820 1565 c0 -8 9 -15 20 -15 11 0 20 2 20 5 0 2 -9 9 -20 15 -16 9
-20 8 -20 -5z"/>
<path d="M1619 1393 c-13 -16 -12 -17 4 -4 16 13 21 21 13 21 -2 0 -10 -8 -17
-17z"/>
<path d="M1607 1358 c-19 -50 -19 -54 -2 -37 9 9 15 25 13 35 -5 18 -5 18 -11
2z"/>
<path d="M1561 1344 c0 -11 3 -14 6 -6 3 7 2 16 -1 19 -3 4 -6 -2 -5 -13z"/>
<path d="M1551 1313 c-1 -6 -4 -20 -7 -30 -5 -17 -5 -17 6 0 6 10 9 23 6 30
-3 9 -5 9 -5 0z"/>
<path d="M983 1144 c-16 -50 -17 -118 -3 -109 6 4 8 10 5 15 -3 5 -1 27 6 48
6 21 9 49 7 62 -2 21 -5 19 -15 -16z"/>
<path d="M1010 1090 c0 -19 3 -21 12 -12 9 9 9 15 0 24 -9 9 -12 7 -12 -12z"/>
<path d="M962 990 c0 -14 2 -19 5 -12 2 6 2 18 0 25 -3 6 -5 1 -5 -13z"/>
<path d="M944 879 c-3 -6 -1 -16 5 -22 8 -8 11 -5 11 11 0 24 -5 28 -16 11z"/>
<path d="M926 685 c8 -37 14 -45 14 -19 0 10 -5 26 -10 34 -8 11 -9 7 -4 -15z"/>
</g>
</svg>
